<?xml version="1.0" encoding="UTF-8" standalone="no"?>
<!DOCTYPE svg PUBLIC "-//W3C//DTD SVG 1.1//EN"
 "http://www.w3.org/Graphics/SVG/1.1/DTD/svg11.dtd">
<!-- Generated by graphviz version 2.38.0 (20140413.2041)
 -->
<!-- Title: include/Cam_Writer.hpp Pages: 1 -->
<svg width="1010pt" height="140pt"
 viewBox="0.00 0.00 1009.50 140.00" xmlns="http://www.w3.org/2000/svg" xmlns:xlink="http://www.w3.org/1999/xlink">
<g id="graph0" class="graph" transform="scale(1 1) rotate(0) translate(4 136)">
<title>include/Cam_Writer.hpp</title>
<polygon fill="white" stroke="none" points="-4,4 -4,-136 1005.5,-136 1005.5,4 -4,4"/>
<!-- Node1 -->
<g id="node1" class="node"><title>Node1</title>
<polygon fill="#bfbfbf" stroke="black" points="438,-112.5 438,-131.5 560,-131.5 560,-112.5 438,-112.5"/>
<text text-anchor="middle" x="499" y="-119.5" font-family="Helvetica,sans-Serif" font-size="10.00">include/Cam_Writer.hpp</text>
</g>
<!-- Node2 -->
<g id="node2" class="node"><title>Node2</title>
<polygon fill="white" stroke="#bfbfbf" points="0,-56.5 0,-75.5 54,-75.5 54,-56.5 0,-56.5"/>
<text text-anchor="middle" x="27" y="-63.5" font-family="Helvetica,sans-Serif" font-size="10.00">iostream</text>
</g>
<!-- Node1&#45;&gt;Node2 -->
<g id="edge1" class="edge"><title>Node1&#45;&gt;Node2</title>
<path fill="none" stroke="midnightblue" d="M437.964,-117.447C355.286,-112.027 203.009,-99.8928 64.0214,-75.9424"/>
<polygon fill="midnightblue" stroke="midnightblue" points="64.4917,-72.4716 54.0384,-74.1975 63.2864,-79.3671 64.4917,-72.4716"/>
</g>
<!-- Node3 -->
<g id="node3" class="node"><title>Node3</title>
<polygon fill="white" stroke="#bfbfbf" points="72,-56.5 72,-75.5 128,-75.5 128,-56.5 72,-56.5"/>
<text text-anchor="middle" x="100" y="-63.5" font-family="Helvetica,sans-Serif" font-size="10.00">sys/ipc.h</text>
</g>
<!-- Node1&#45;&gt;Node3 -->
<g id="edge2" class="edge"><title>Node1&#45;&gt;Node3</title>
<path fill="none" stroke="midnightblue" d="M437.826,-115.56C367.701,-108.84 249.166,-96.0049 138.232,-76.0426"/>
<polygon fill="midnightblue" stroke="midnightblue" points="138.676,-72.5659 128.21,-74.2157 137.42,-79.4524 138.676,-72.5659"/>
</g>
<!-- Node4 -->
<g id="node4" class="node"><title>Node4</title>
<polygon fill="white" stroke="#bfbfbf" points="146,-56.5 146,-75.5 214,-75.5 214,-56.5 146,-56.5"/>
<text text-anchor="middle" x="180" y="-63.5" font-family="Helvetica,sans-Serif" font-size="10.00">sys/types.h</text>
</g>
<!-- Node1&#45;&gt;Node4 -->
<g id="edge3" class="edge"><title>Node1&#45;&gt;Node4</title>
<path fill="none" stroke="midnightblue" d="M442.795,-112.469C387.137,-103.865 299.532,-89.8991 224,-76 223.899,-75.9815 223.799,-75.9629 223.698,-75.9443"/>
<polygon fill="midnightblue" stroke="midnightblue" points="224.563,-72.5463 214.084,-74.1103 223.251,-79.4223 224.563,-72.5463"/>
</g>
<!-- Node5 -->
<g id="node5" class="node"><title>Node5</title>
<polygon fill="white" stroke="#bfbfbf" points="232.5,-56.5 232.5,-75.5 303.5,-75.5 303.5,-56.5 232.5,-56.5"/>
<text text-anchor="middle" x="268" y="-63.5" font-family="Helvetica,sans-Serif" font-size="10.00">sys/mman.h</text>
</g>
<!-- Node1&#45;&gt;Node5 -->
<g id="edge4" class="edge"><title>Node1&#45;&gt;Node5</title>
<path fill="none" stroke="midnightblue" d="M462.397,-112.444C422.033,-103.008 357.042,-87.8151 313.448,-77.6243"/>
<polygon fill="midnightblue" stroke="midnightblue" points="314.207,-74.2072 303.672,-75.339 312.613,-81.0235 314.207,-74.2072"/>
</g>
<!-- Node6 -->
<g id="node6" class="node"><title>Node6</title>
<polygon fill="white" stroke="#bfbfbf" points="322,-56.5 322,-75.5 382,-75.5 382,-56.5 322,-56.5"/>
<text text-anchor="middle" x="352" y="-63.5" font-family="Helvetica,sans-Serif" font-size="10.00">sys/stat.h</text>
</g>
<!-- Node1&#45;&gt;Node6 -->
<g id="edge5" class="edge"><title>Node1&#45;&gt;Node6</title>
<path fill="none" stroke="midnightblue" d="M475.707,-112.444C451.193,-103.438 412.404,-89.1891 384.8,-79.049"/>
<polygon fill="midnightblue" stroke="midnightblue" points="385.777,-75.6793 375.184,-75.5164 383.363,-82.25 385.777,-75.6793"/>
</g>
<!-- Node7 -->
<g id="node7" class="node"><title>Node7</title>
<polygon fill="white" stroke="#bfbfbf" points="400,-56.5 400,-75.5 444,-75.5 444,-56.5 400,-56.5"/>
<text text-anchor="middle" x="422" y="-63.5" font-family="Helvetica,sans-Serif" font-size="10.00">fcntl.h</text>
</g>
<!-- Node1&#45;&gt;Node7 -->
<g id="edge6" class="edge"><title>Node1&#45;&gt;Node7</title>
<path fill="none" stroke="midnightblue" d="M486.629,-112.324C474.842,-104.058 456.868,-91.4527 442.864,-81.6322"/>
<polygon fill="midnightblue" stroke="midnightblue" points="444.538,-78.5307 434.341,-75.6545 440.518,-84.2619 444.538,-78.5307"/>
</g>
<!-- Node8 -->
<g id="node8" class="node"><title>Node8</title>
<polygon fill="white" stroke="#bfbfbf" points="462.5,-56.5 462.5,-75.5 535.5,-75.5 535.5,-56.5 462.5,-56.5"/>
<text text-anchor="middle" x="499" y="-63.5" font-family="Helvetica,sans-Serif" font-size="10.00">semaphore.h</text>
</g>
<!-- Node1&#45;&gt;Node8 -->
<g id="edge7" class="edge"><title>Node1&#45;&gt;Node8</title>
<path fill="none" stroke="midnightblue" d="M499,-112.083C499,-105.006 499,-94.8611 499,-85.9865"/>
<polygon fill="midnightblue" stroke="midnightblue" points="502.5,-85.751 499,-75.7511 495.5,-85.7511 502.5,-85.751"/>
</g>
<!-- Node9 -->
<g id="node9" class="node"><title>Node9</title>
<polygon fill="white" stroke="#bfbfbf" points="553.5,-56.5 553.5,-75.5 602.5,-75.5 602.5,-56.5 553.5,-56.5"/>
<text text-anchor="middle" x="578" y="-63.5" font-family="Helvetica,sans-Serif" font-size="10.00">string.h</text>
</g>
<!-- Node1&#45;&gt;Node9 -->
<g id="edge8" class="edge"><title>Node1&#45;&gt;Node9</title>
<path fill="none" stroke="midnightblue" d="M511.693,-112.324C523.901,-103.979 542.578,-91.2122 557.003,-81.3524"/>
<polygon fill="midnightblue" stroke="midnightblue" points="559.058,-84.1871 565.339,-75.6545 555.108,-78.4082 559.058,-84.1871"/>
</g>
<!-- Node10 -->
<g id="node10" class="node"><title>Node10</title>
<polygon fill="white" stroke="#bfbfbf" points="621,-56.5 621,-75.5 667,-75.5 667,-56.5 621,-56.5"/>
<text text-anchor="middle" x="644" y="-63.5" font-family="Helvetica,sans-Serif" font-size="10.00">stdio.h</text>
</g>
<!-- Node1&#45;&gt;Node10 -->
<g id="edge9" class="edge"><title>Node1&#45;&gt;Node10</title>
<path fill="none" stroke="midnightblue" d="M521.976,-112.444C546.157,-103.438 584.418,-89.1891 611.646,-79.049"/>
<polygon fill="midnightblue" stroke="midnightblue" points="612.982,-82.2864 621.132,-75.5164 610.539,-75.7265 612.982,-82.2864"/>
</g>
<!-- Node11 -->
<g id="node11" class="node"><title>Node11</title>
<polygon fill="white" stroke="#bfbfbf" points="685.5,-56.5 685.5,-75.5 736.5,-75.5 736.5,-56.5 685.5,-56.5"/>
<text text-anchor="middle" x="711" y="-63.5" font-family="Helvetica,sans-Serif" font-size="10.00">unistd.h</text>
</g>
<!-- Node1&#45;&gt;Node11 -->
<g id="edge10" class="edge"><title>Node1&#45;&gt;Node11</title>
<path fill="none" stroke="midnightblue" d="M532.61,-112.484C566.271,-103.949 619.82,-90.3534 675.674,-76.0781"/>
<polygon fill="midnightblue" stroke="midnightblue" points="676.567,-79.4626 685.388,-73.5946 674.832,-72.6808 676.567,-79.4626"/>
</g>
<!-- Node12 -->
<g id="node12" class="node"><title>Node12</title>
<polygon fill="white" stroke="#bfbfbf" points="754.5,-56.5 754.5,-75.5 861.5,-75.5 861.5,-56.5 754.5,-56.5"/>
<text text-anchor="middle" x="808" y="-63.5" font-family="Helvetica,sans-Serif" font-size="10.00">opencv2/opencv.hpp</text>
</g>
<!-- Node1&#45;&gt;Node12 -->
<g id="edge11" class="edge"><title>Node1&#45;&gt;Node12</title>
<path fill="none" stroke="midnightblue" d="M547.962,-112.444C602.544,-102.905 690.79,-87.4834 749.101,-77.293"/>
<polygon fill="midnightblue" stroke="midnightblue" points="750.019,-80.6857 759.267,-75.5164 748.814,-73.7902 750.019,-80.6857"/>
</g>
<!-- Node13 -->
<g id="node13" class="node"><title>Node13</title>
<polygon fill="white" stroke="#bfbfbf" points="838,-0.5 838,-19.5 942,-19.5 942,-0.5 838,-0.5"/>
<text text-anchor="middle" x="890" y="-7.5" font-family="Helvetica,sans-Serif" font-size="10.00">librealsense2/rs.hpp</text>
</g>
<!-- Node1&#45;&gt;Node13 -->
<g id="edge12" class="edge"><title>Node1&#45;&gt;Node13</title>
<path fill="none" stroke="midnightblue" d="M560.274,-121.508C653.617,-121.005 825.418,-114.659 871,-76 884.29,-64.7286 888.56,-44.7199 889.799,-29.8697"/>
<polygon fill="midnightblue" stroke="midnightblue" points="893.302,-29.8969 890.256,-19.7493 886.309,-29.5814 893.302,-29.8969"/>
</g>
<!-- Node14 -->
<g id="node14" class="node"><title>Node14</title>
<g id="a_node14"><a xlink:href="Camera_8hpp.html" target="_top" xlink:title="Camera.hpp">
<polygon fill="white" stroke="black" points="918,-56.5 918,-75.5 988,-75.5 988,-56.5 918,-56.5"/>
<text text-anchor="middle" x="953" y="-63.5" font-family="Helvetica,sans-Serif" font-size="10.00">Camera.hpp</text>
</a>
</g>
</g>
<!-- Node1&#45;&gt;Node14 -->
<g id="edge13" class="edge"><title>Node1&#45;&gt;Node14</title>
<path fill="none" stroke="midnightblue" d="M560.239,-115.561C639.706,-108.191 782.566,-93.8755 904,-76 905.276,-75.8122 906.569,-75.6158 907.873,-75.4124"/>
<polygon fill="midnightblue" stroke="midnightblue" points="908.69,-78.825 917.986,-73.7431 907.55,-71.9185 908.69,-78.825"/>
</g>
<!-- Node14&#45;&gt;Node13 -->
<g id="edge14" class="edge"><title>Node14&#45;&gt;Node13</title>
<path fill="none" stroke="midnightblue" d="M942.878,-56.324C933.474,-48.2631 919.256,-36.0765 907.931,-26.3695"/>
<polygon fill="midnightblue" stroke="midnightblue" points="910.177,-23.6844 900.306,-19.8339 905.621,-28.9993 910.177,-23.6844"/>
</g>
<!-- Node15 -->
<g id="node15" class="node"><title>Node15</title>
<polygon fill="white" stroke="#bfbfbf" points="960.5,-0.5 960.5,-19.5 1001.5,-19.5 1001.5,-0.5 960.5,-0.5"/>
<text text-anchor="middle" x="981" y="-7.5" font-family="Helvetica,sans-Serif" font-size="10.00">string</text>
</g>
<!-- Node14&#45;&gt;Node15 -->
<g id="edge15" class="edge"><title>Node14&#45;&gt;Node15</title>
<path fill="none" stroke="midnightblue" d="M957.624,-56.083C961.456,-48.6913 967.024,-37.9533 971.765,-28.8111"/>
<polygon fill="midnightblue" stroke="midnightblue" points="974.966,-30.2398 976.462,-19.7511 968.752,-27.0175 974.966,-30.2398"/>
</g>
</g>
</svg>
