<?xml version="1.0" encoding="UTF-8" standalone="no"?>
<!DOCTYPE svg PUBLIC "-//W3C//DTD SVG 1.1//EN"
 "http://www.w3.org/Graphics/SVG/1.1/DTD/svg11.dtd">
<!-- Generated by graphviz version 2.38.0 (20140413.2041)
 -->
<!-- Title: include/Camera.hpp Pages: 1 -->
<svg width="172pt" height="84pt"
 viewBox="0.00 0.00 171.50 84.00" xmlns="http://www.w3.org/2000/svg" xmlns:xlink="http://www.w3.org/1999/xlink">
<g id="graph0" class="graph" transform="scale(1 1) rotate(0) translate(4 80)">
<title>include/Camera.hpp</title>
<polygon fill="white" stroke="none" points="-4,4 -4,-80 167.5,-80 167.5,4 -4,4"/>
<!-- Node1 -->
<g id="node1" class="node"><title>Node1</title>
<polygon fill="#bfbfbf" stroke="black" points="45,-56.5 45,-75.5 149,-75.5 149,-56.5 45,-56.5"/>
<text text-anchor="middle" x="97" y="-63.5" font-family="Helvetica,sans-Serif" font-size="10.00">include/Camera.hpp</text>
</g>
<!-- Node2 -->
<g id="node2" class="node"><title>Node2</title>
<polygon fill="white" stroke="#bfbfbf" points="0,-0.5 0,-19.5 104,-19.5 104,-0.5 0,-0.5"/>
<text text-anchor="middle" x="52" y="-7.5" font-family="Helvetica,sans-Serif" font-size="10.00">librealsense2/rs.hpp</text>
</g>
<!-- Node1&#45;&gt;Node2 -->
<g id="edge1" class="edge"><title>Node1&#45;&gt;Node2</title>
<path fill="none" stroke="midnightblue" d="M89.5692,-56.083C83.1473,-48.3768 73.6944,-37.0333 65.8775,-27.6531"/>
<polygon fill="midnightblue" stroke="midnightblue" points="68.3832,-25.1927 59.2926,-19.7511 63.0057,-29.674 68.3832,-25.1927"/>
</g>
<!-- Node3 -->
<g id="node3" class="node"><title>Node3</title>
<polygon fill="white" stroke="#bfbfbf" points="122.5,-0.5 122.5,-19.5 163.5,-19.5 163.5,-0.5 122.5,-0.5"/>
<text text-anchor="middle" x="143" y="-7.5" font-family="Helvetica,sans-Serif" font-size="10.00">string</text>
</g>
<!-- Node1&#45;&gt;Node3 -->
<g id="edge2" class="edge"><title>Node1&#45;&gt;Node3</title>
<path fill="none" stroke="midnightblue" d="M104.596,-56.083C111.227,-48.2982 121.021,-36.8015 129.058,-27.3665"/>
<polygon fill="midnightblue" stroke="midnightblue" points="131.725,-29.6332 135.545,-19.7511 126.396,-25.0939 131.725,-29.6332"/>
</g>
</g>
</svg>
