<?xml version="1.0" encoding="UTF-8" standalone="no"?>
<!DOCTYPE svg PUBLIC "-//W3C//DTD SVG 1.1//EN"
 "http://www.w3.org/Graphics/SVG/1.1/DTD/svg11.dtd">
<!-- Generated by graphviz version 2.38.0 (20140413.2041)
 -->
<!-- Title: include/Camera.hpp Pages: 1 -->
<svg width="336pt" height="196pt"
 viewBox="0.00 0.00 335.50 196.00" xmlns="http://www.w3.org/2000/svg" xmlns:xlink="http://www.w3.org/1999/xlink">
<g id="graph0" class="graph" transform="scale(1 1) rotate(0) translate(4 192)">
<title>include/Camera.hpp</title>
<polygon fill="white" stroke="none" points="-4,4 -4,-192 331.5,-192 331.5,4 -4,4"/>
<!-- Node1 -->
<g id="node1" class="node"><title>Node1</title>
<polygon fill="#bfbfbf" stroke="black" points="62.5,-168.5 62.5,-187.5 166.5,-187.5 166.5,-168.5 62.5,-168.5"/>
<text text-anchor="middle" x="114.5" y="-175.5" font-family="Helvetica,sans-Serif" font-size="10.00">include/Camera.hpp</text>
</g>
<!-- Node2 -->
<g id="node2" class="node"><title>Node2</title>
<g id="a_node2"><a xlink:href="Helper_8hpp.html" target="_top" xlink:title="include/Helper.hpp">
<polygon fill="white" stroke="black" points="109.5,-112.5 109.5,-131.5 207.5,-131.5 207.5,-112.5 109.5,-112.5"/>
<text text-anchor="middle" x="158.5" y="-119.5" font-family="Helvetica,sans-Serif" font-size="10.00">include/Helper.hpp</text>
</a>
</g>
</g>
<!-- Node1&#45;&gt;Node2 -->
<g id="edge1" class="edge"><title>Node1&#45;&gt;Node2</title>
<path fill="none" stroke="midnightblue" d="M128.235,-160.144C135.901,-150.736 145.133,-139.405 151.369,-131.751"/>
<polygon fill="midnightblue" stroke="midnightblue" points="125.369,-158.12 121.766,-168.083 130.796,-162.541 125.369,-158.12"/>
</g>
<!-- Node5 -->
<g id="node5" class="node"><title>Node5</title>
<g id="a_node5"><a xlink:href="Logging_8hpp.html" target="_top" xlink:title="include/Logging.hpp">
<polygon fill="white" stroke="black" points="0,-56.5 0,-75.5 103,-75.5 103,-56.5 0,-56.5"/>
<text text-anchor="middle" x="51.5" y="-63.5" font-family="Helvetica,sans-Serif" font-size="10.00">include/Logging.hpp</text>
</a>
</g>
</g>
<!-- Node1&#45;&gt;Node5 -->
<g id="edge9" class="edge"><title>Node1&#45;&gt;Node5</title>
<path fill="none" stroke="midnightblue" d="M104.557,-159.64C90.8713,-135.744 66.7509,-93.6286 56.4205,-75.5914"/>
<polygon fill="midnightblue" stroke="midnightblue" points="101.549,-161.43 109.556,-168.368 107.624,-157.951 101.549,-161.43"/>
</g>
<!-- Node3 -->
<g id="node3" class="node"><title>Node3</title>
<g id="a_node3"><a xlink:href="Voxel_8hpp.html" target="_top" xlink:title="include/Voxel.hpp">
<polygon fill="white" stroke="black" points="121.5,-56.5 121.5,-75.5 215.5,-75.5 215.5,-56.5 121.5,-56.5"/>
<text text-anchor="middle" x="168.5" y="-63.5" font-family="Helvetica,sans-Serif" font-size="10.00">include/Voxel.hpp</text>
</a>
</g>
</g>
<!-- Node2&#45;&gt;Node3 -->
<g id="edge2" class="edge"><title>Node2&#45;&gt;Node3</title>
<path fill="none" stroke="midnightblue" d="M162,-102.101C163.66,-93.1357 165.563,-82.8579 166.879,-75.7511"/>
<polygon fill="midnightblue" stroke="midnightblue" points="158.531,-101.613 160.151,-112.083 165.414,-102.888 158.531,-101.613"/>
</g>
<!-- Node2&#45;&gt;Node5 -->
<g id="edge4" class="edge"><title>Node2&#45;&gt;Node5</title>
<path fill="none" stroke="midnightblue" d="M132.198,-107.726C112.385,-97.7271 85.7925,-84.3065 68.6487,-75.6545"/>
<polygon fill="midnightblue" stroke="midnightblue" points="130.804,-110.943 141.309,-112.324 133.958,-104.694 130.804,-110.943"/>
</g>
<!-- Node7 -->
<g id="node7" class="node"><title>Node7</title>
<g id="a_node7"><a xlink:href="Voxel_8cuh.html" target="_top" xlink:title="include/Voxel.cuh">
<polygon fill="white" stroke="black" points="233.5,-56.5 233.5,-75.5 327.5,-75.5 327.5,-56.5 233.5,-56.5"/>
<text text-anchor="middle" x="280.5" y="-63.5" font-family="Helvetica,sans-Serif" font-size="10.00">include/Voxel.cuh</text>
</a>
</g>
</g>
<!-- Node2&#45;&gt;Node7 -->
<g id="edge7" class="edge"><title>Node2&#45;&gt;Node7</title>
<path fill="none" stroke="midnightblue" d="M187.039,-108.368C209.886,-98.2553 241.305,-84.3486 261.259,-75.5164"/>
<polygon fill="midnightblue" stroke="midnightblue" points="185.559,-105.196 177.831,-112.444 188.392,-111.597 185.559,-105.196"/>
</g>
<!-- Node4 -->
<g id="node4" class="node"><title>Node4</title>
<g id="a_node4"><a xlink:href="CPU__main_8cpp.html" target="_top" xlink:title="src/CPU_main.cpp">
<polygon fill="white" stroke="black" points="57.5,-0.5 57.5,-19.5 157.5,-19.5 157.5,-0.5 57.5,-0.5"/>
<text text-anchor="middle" x="107.5" y="-7.5" font-family="Helvetica,sans-Serif" font-size="10.00">src/CPU_main.cpp</text>
</a>
</g>
</g>
<!-- Node3&#45;&gt;Node4 -->
<g id="edge3" class="edge"><title>Node3&#45;&gt;Node4</title>
<path fill="none" stroke="midnightblue" d="M151.033,-49.5372C140.156,-39.9087 126.556,-27.8694 117.479,-19.8339"/>
<polygon fill="midnightblue" stroke="midnightblue" points="148.892,-52.3162 158.699,-56.324 153.532,-47.0749 148.892,-52.3162"/>
</g>
<!-- Node5&#45;&gt;Node4 -->
<g id="edge5" class="edge"><title>Node5&#45;&gt;Node4</title>
<path fill="none" stroke="midnightblue" d="M67.8299,-49.2533C77.765,-39.6731 90.0875,-27.7906 98.3389,-19.8339"/>
<polygon fill="midnightblue" stroke="midnightblue" points="65.2664,-46.8631 60.4974,-56.324 70.1253,-51.902 65.2664,-46.8631"/>
</g>
<!-- Node6 -->
<g id="node6" class="node"><title>Node6</title>
<g id="a_node6"><a xlink:href="GPU__main_8cu.html" target="_top" xlink:title="src/GPU_main.cu">
<polygon fill="white" stroke="black" points="204,-0.5 204,-19.5 299,-19.5 299,-0.5 204,-0.5"/>
<text text-anchor="middle" x="251.5" y="-7.5" font-family="Helvetica,sans-Serif" font-size="10.00">src/GPU_main.cu</text>
</a>
</g>
</g>
<!-- Node5&#45;&gt;Node6 -->
<g id="edge6" class="edge"><title>Node5&#45;&gt;Node6</title>
<path fill="none" stroke="midnightblue" d="M92.8739,-53.8291C130.636,-43.6333 185.64,-28.7823 219.958,-19.5164"/>
<polygon fill="midnightblue" stroke="midnightblue" points="91.9325,-50.4578 83.1906,-56.4435 93.7572,-57.2158 91.9325,-50.4578"/>
</g>
<!-- Node7&#45;&gt;Node6 -->
<g id="edge8" class="edge"><title>Node7&#45;&gt;Node6</title>
<path fill="none" stroke="midnightblue" d="M270.824,-46.9827C265.902,-37.8168 260.142,-27.0922 256.2,-19.7511"/>
<polygon fill="midnightblue" stroke="midnightblue" points="267.896,-48.929 275.711,-56.083 274.063,-45.6171 267.896,-48.929"/>
</g>
</g>
</svg>
