<?xml version="1.0" encoding="UTF-8" standalone="no"?>
<!DOCTYPE svg PUBLIC "-//W3C//DTD SVG 1.1//EN"
 "http://www.w3.org/Graphics/SVG/1.1/DTD/svg11.dtd">
<!-- Generated by graphviz version 2.38.0 (20140413.2041)
 -->
<!-- Title: Logger::point_grid Pages: 1 -->
<svg width="411pt" height="28pt"
 viewBox="0.00 0.00 411.00 28.00" xmlns="http://www.w3.org/2000/svg" xmlns:xlink="http://www.w3.org/1999/xlink">
<g id="graph0" class="graph" transform="scale(1 1) rotate(0) translate(4 24)">
<title>Logger::point_grid</title>
<polygon fill="white" stroke="none" points="-4,4 -4,-24 407,-24 407,4 -4,4"/>
<!-- Node1 -->
<g id="node1" class="node"><title>Node1</title>
<polygon fill="#bfbfbf" stroke="black" points="0,-0.5 0,-19.5 94,-19.5 94,-0.5 0,-0.5"/>
<text text-anchor="middle" x="47" y="-7.5" font-family="Helvetica,sans-Serif" font-size="10.00">Logger::point_grid</text>
</g>
<!-- Node2 -->
<g id="node2" class="node"><title>Node2</title>
<g id="a_node2"><a xlink:href="classLogger.html#ac58fee4bd66a5359deb29a86948d584d" target="_top" xlink:title="Constructs a grid representation of the map. ">
<polygon fill="white" stroke="black" points="130,-0.5 130,-19.5 216,-19.5 216,-0.5 130,-0.5"/>
<text text-anchor="middle" x="173" y="-7.5" font-family="Helvetica,sans-Serif" font-size="10.00">Logger::obj_grid</text>
</a>
</g>
</g>
<!-- Node1&#45;&gt;Node2 -->
<g id="edge1" class="edge"><title>Node1&#45;&gt;Node2</title>
<path fill="none" stroke="midnightblue" d="M104.201,-10C112.836,-10 121.624,-10 129.884,-10"/>
<polygon fill="midnightblue" stroke="midnightblue" points="104.173,-6.5001 94.173,-10 104.173,-13.5001 104.173,-6.5001"/>
</g>
<!-- Node3 -->
<g id="node3" class="node"><title>Node3</title>
<g id="a_node3"><a xlink:href="classLogger.html#a6b670ceb54a249eb83da08a1914d2be8" target="_top" xlink:title="Closes the lgging operation. ">
<polygon fill="white" stroke="black" points="252,-0.5 252,-19.5 329,-19.5 329,-0.5 252,-0.5"/>
<text text-anchor="middle" x="290.5" y="-7.5" font-family="Helvetica,sans-Serif" font-size="10.00">Logger::Close</text>
</a>
</g>
</g>
<!-- Node2&#45;&gt;Node3 -->
<g id="edge2" class="edge"><title>Node2&#45;&gt;Node3</title>
<path fill="none" stroke="midnightblue" d="M226.105,-10C234.799,-10 243.666,-10 251.907,-10"/>
<polygon fill="midnightblue" stroke="midnightblue" points="226.025,-6.5001 216.025,-10 226.025,-13.5001 226.025,-6.5001"/>
</g>
<!-- Node4 -->
<g id="node4" class="node"><title>Node4</title>
<g id="a_node4"><a xlink:href="CPU__main_8cpp.html#abf9e6b7e6f15df4b525a2e7705ba3089" target="_top" xlink:title="main">
<polygon fill="white" stroke="black" points="365,-0.5 365,-19.5 403,-19.5 403,-0.5 365,-0.5"/>
<text text-anchor="middle" x="384" y="-7.5" font-family="Helvetica,sans-Serif" font-size="10.00">main</text>
</a>
</g>
</g>
<!-- Node3&#45;&gt;Node4 -->
<g id="edge3" class="edge"><title>Node3&#45;&gt;Node4</title>
<path fill="none" stroke="midnightblue" d="M339.362,-10C348.347,-10 357.223,-10 364.601,-10"/>
<polygon fill="midnightblue" stroke="midnightblue" points="339.245,-6.5001 329.245,-10 339.245,-13.5001 339.245,-6.5001"/>
</g>
</g>
</svg>
