<?xml version="1.0" encoding="UTF-8" standalone="no"?>
<!DOCTYPE svg PUBLIC "-//W3C//DTD SVG 1.1//EN"
 "http://www.w3.org/Graphics/SVG/1.1/DTD/svg11.dtd">
<!-- Generated by graphviz version 2.38.0 (20140413.2041)
 -->
<!-- Title: Logger Pages: 1 -->
<svg width="124pt" height="378pt"
 viewBox="0.00 0.00 124.00 378.00" xmlns="http://www.w3.org/2000/svg" xmlns:xlink="http://www.w3.org/1999/xlink">
<g id="graph0" class="graph" transform="scale(1 1) rotate(0) translate(4 374)">
<title>Logger</title>
<polygon fill="white" stroke="none" points="-4,4 -4,-374 120,-374 120,4 -4,4"/>
<!-- Node1 -->
<g id="node1" class="node"><title>Node1</title>
<polygon fill="#bfbfbf" stroke="black" points="35,-0.5 35,-19.5 81,-19.5 81,-0.5 35,-0.5"/>
<text text-anchor="middle" x="58" y="-7.5" font-family="Helvetica,sans-Serif" font-size="10.00">Logger</text>
</g>
<!-- Node2 -->
<g id="node2" class="node"><title>Node2</title>
<g id="a_node2"><a xlink:title="STL class. ">
<polygon fill="white" stroke="#bfbfbf" points="21,-100.5 21,-119.5 95,-119.5 95,-100.5 21,-100.5"/>
<text text-anchor="middle" x="58" y="-107.5" font-family="Helvetica,sans-Serif" font-size="10.00">std::ofstream</text>
</a>
</g>
</g>
<!-- Node2&#45;&gt;Node1 -->
<g id="edge1" class="edge"><title>Node2&#45;&gt;Node1</title>
<path fill="none" stroke="#9a32cd" stroke-dasharray="5,2" d="M58,-90.2203C58,-68.9514 58,-35.2197 58,-19.5374"/>
<polygon fill="#9a32cd" stroke="#9a32cd" points="54.5001,-90.3031 58,-100.303 61.5001,-90.3032 54.5001,-90.3031"/>
<text text-anchor="middle" x="79.5" y="-74" font-family="Helvetica,sans-Serif" font-size="10.00"> pose_file</text>
<text text-anchor="middle" x="79.5" y="-63" font-family="Helvetica,sans-Serif" font-size="10.00">map_file</text>
<text text-anchor="middle" x="79.5" y="-52" font-family="Helvetica,sans-Serif" font-size="10.00">grid_file</text>
<text text-anchor="middle" x="79.5" y="-41" font-family="Helvetica,sans-Serif" font-size="10.00">d_in_file</text>
</g>
<!-- Node3 -->
<g id="node3" class="node"><title>Node3</title>
<g id="a_node3"><a xlink:title="STL class. ">
<polygon fill="white" stroke="#bfbfbf" points="6.5,-157.5 6.5,-187.5 109.5,-187.5 109.5,-157.5 6.5,-157.5"/>
<text text-anchor="start" x="14.5" y="-175.5" font-family="Helvetica,sans-Serif" font-size="10.00">std::basic_ofstream</text>
<text text-anchor="middle" x="58" y="-164.5" font-family="Helvetica,sans-Serif" font-size="10.00">&lt; char &gt;</text>
</a>
</g>
</g>
<!-- Node3&#45;&gt;Node2 -->
<g id="edge2" class="edge"><title>Node3&#45;&gt;Node2</title>
<path fill="none" stroke="midnightblue" d="M58,-147.352C58,-137.513 58,-126.775 58,-119.54"/>
<polygon fill="midnightblue" stroke="midnightblue" points="54.5001,-147.468 58,-157.468 61.5001,-147.468 54.5001,-147.468"/>
</g>
<!-- Node4 -->
<g id="node4" class="node"><title>Node4</title>
<g id="a_node4"><a xlink:title="STL class. ">
<polygon fill="white" stroke="#bfbfbf" points="8,-225.5 8,-255.5 108,-255.5 108,-225.5 8,-225.5"/>
<text text-anchor="start" x="16" y="-243.5" font-family="Helvetica,sans-Serif" font-size="10.00">std::basic_ostream</text>
<text text-anchor="middle" x="58" y="-232.5" font-family="Helvetica,sans-Serif" font-size="10.00">&lt; Char &gt;</text>
</a>
</g>
</g>
<!-- Node4&#45;&gt;Node3 -->
<g id="edge3" class="edge"><title>Node4&#45;&gt;Node3</title>
<path fill="none" stroke="midnightblue" d="M58,-215.032C58,-205.861 58,-195.745 58,-187.793"/>
<polygon fill="midnightblue" stroke="midnightblue" points="54.5001,-215.179 58,-225.179 61.5001,-215.179 54.5001,-215.179"/>
</g>
<!-- Node5 -->
<g id="node5" class="node"><title>Node5</title>
<g id="a_node5"><a xlink:title="STL class. ">
<polygon fill="white" stroke="#bfbfbf" points="-7.10543e-15,-293.5 -7.10543e-15,-312.5 116,-312.5 116,-293.5 -7.10543e-15,-293.5"/>
<text text-anchor="middle" x="58" y="-300.5" font-family="Helvetica,sans-Serif" font-size="10.00">std::basic_ios&lt; Char &gt;</text>
</a>
</g>
</g>
<!-- Node5&#45;&gt;Node4 -->
<g id="edge4" class="edge"><title>Node5&#45;&gt;Node4</title>
<path fill="none" stroke="midnightblue" d="M58,-283.215C58,-274.356 58,-263.958 58,-255.759"/>
<polygon fill="midnightblue" stroke="midnightblue" points="54.5001,-283.332 58,-293.332 61.5001,-283.332 54.5001,-283.332"/>
</g>
<!-- Node6 -->
<g id="node6" class="node"><title>Node6</title>
<g id="a_node6"><a xlink:title="STL class. ">
<polygon fill="white" stroke="#bfbfbf" points="20.5,-350.5 20.5,-369.5 95.5,-369.5 95.5,-350.5 20.5,-350.5"/>
<text text-anchor="middle" x="58" y="-357.5" font-family="Helvetica,sans-Serif" font-size="10.00">std::ios_base</text>
</a>
</g>
</g>
<!-- Node6&#45;&gt;Node5 -->
<g id="edge5" class="edge"><title>Node6&#45;&gt;Node5</title>
<path fill="none" stroke="midnightblue" d="M58,-340.117C58,-330.817 58,-320.056 58,-312.715"/>
<polygon fill="midnightblue" stroke="midnightblue" points="54.5001,-340.406 58,-350.406 61.5001,-340.406 54.5001,-340.406"/>
</g>
</g>
</svg>
