<?xml version="1.0" encoding="UTF-8" standalone="no"?>
<!DOCTYPE svg PUBLIC "-//W3C//DTD SVG 1.1//EN"
 "http://www.w3.org/Graphics/SVG/1.1/DTD/svg11.dtd">
<!-- Generated by graphviz version 2.38.0 (20140413.2041)
 -->
<!-- Title: Logger::obj_grid Pages: 1 -->
<svg width="281pt" height="28pt"
 viewBox="0.00 0.00 281.00 28.00" xmlns="http://www.w3.org/2000/svg" xmlns:xlink="http://www.w3.org/1999/xlink">
<g id="graph0" class="graph" transform="scale(1 1) rotate(0) translate(4 24)">
<title>Logger::obj_grid</title>
<polygon fill="white" stroke="none" points="-4,4 -4,-24 277,-24 277,4 -4,4"/>
<!-- Node1 -->
<g id="node1" class="node"><title>Node1</title>
<polygon fill="#bfbfbf" stroke="black" points="0,-0.5 0,-19.5 86,-19.5 86,-0.5 0,-0.5"/>
<text text-anchor="middle" x="43" y="-7.5" font-family="Helvetica,sans-Serif" font-size="10.00">Logger::obj_grid</text>
</g>
<!-- Node2 -->
<g id="node2" class="node"><title>Node2</title>
<g id="a_node2"><a xlink:href="classLogger.html#a6b670ceb54a249eb83da08a1914d2be8" target="_top" xlink:title="Closes the lgging operation. ">
<polygon fill="white" stroke="black" points="122,-0.5 122,-19.5 199,-19.5 199,-0.5 122,-0.5"/>
<text text-anchor="middle" x="160.5" y="-7.5" font-family="Helvetica,sans-Serif" font-size="10.00">Logger::Close</text>
</a>
</g>
</g>
<!-- Node1&#45;&gt;Node2 -->
<g id="edge1" class="edge"><title>Node1&#45;&gt;Node2</title>
<path fill="none" stroke="midnightblue" d="M96.1046,-10C104.799,-10 113.666,-10 121.907,-10"/>
<polygon fill="midnightblue" stroke="midnightblue" points="96.0249,-6.5001 86.0249,-10 96.0248,-13.5001 96.0249,-6.5001"/>
</g>
<!-- Node3 -->
<g id="node3" class="node"><title>Node3</title>
<g id="a_node3"><a xlink:href="CPU__main_8cpp.html#abf9e6b7e6f15df4b525a2e7705ba3089" target="_top" xlink:title="main">
<polygon fill="white" stroke="black" points="235,-0.5 235,-19.5 273,-19.5 273,-0.5 235,-0.5"/>
<text text-anchor="middle" x="254" y="-7.5" font-family="Helvetica,sans-Serif" font-size="10.00">main</text>
</a>
</g>
</g>
<!-- Node2&#45;&gt;Node3 -->
<g id="edge2" class="edge"><title>Node2&#45;&gt;Node3</title>
<path fill="none" stroke="midnightblue" d="M209.362,-10C218.347,-10 227.223,-10 234.601,-10"/>
<polygon fill="midnightblue" stroke="midnightblue" points="209.245,-6.5001 199.245,-10 209.245,-13.5001 209.245,-6.5001"/>
</g>
</g>
</svg>
