<?xml version="1.0" encoding="UTF-8" standalone="no"?>
<!DOCTYPE svg PUBLIC "-//W3C//DTD SVG 1.1//EN"
 "http://www.w3.org/Graphics/SVG/1.1/DTD/svg11.dtd">
<!-- Generated by graphviz version 2.38.0 (20140413.2041)
 -->
<!-- Title: occ_grid::update_point Pages: 1 -->
<svg width="281pt" height="47pt"
 viewBox="0.00 0.00 281.00 47.00" xmlns="http://www.w3.org/2000/svg" xmlns:xlink="http://www.w3.org/1999/xlink">
<g id="graph0" class="graph" transform="scale(1 1) rotate(0) translate(4 43)">
<title>occ_grid::update_point</title>
<polygon fill="white" stroke="none" points="-4,4 -4,-43 277,-43 277,4 -4,4"/>
<!-- Node1 -->
<g id="node1" class="node"><title>Node1</title>
<polygon fill="#bfbfbf" stroke="black" points="0,-19.5 0,-38.5 115,-38.5 115,-19.5 0,-19.5"/>
<text text-anchor="middle" x="57.5" y="-26.5" font-family="Helvetica,sans-Serif" font-size="10.00">occ_grid::update_point</text>
</g>
<!-- Node2 -->
<g id="node2" class="node"><title>Node2</title>
<g id="a_node2"><a xlink:href="Voxel_8cuh.html#abbd51b1d8c2bc9b7d5ef5413e1e4ca49" target="_top" xlink:title="Calculates co&#45;ordinate of point modulo edge length. ">
<polygon fill="white" stroke="black" points="227,-19.5 227,-38.5 273,-38.5 273,-19.5 227,-19.5"/>
<text text-anchor="middle" x="250" y="-26.5" font-family="Helvetica,sans-Serif" font-size="10.00">mod_p</text>
</a>
</g>
</g>
<!-- Node1&#45;&gt;Node2 -->
<g id="edge1" class="edge"><title>Node1&#45;&gt;Node2</title>
<path fill="none" stroke="midnightblue" d="M115.141,-29C148.254,-29 188.862,-29 216.61,-29"/>
<polygon fill="midnightblue" stroke="midnightblue" points="216.933,-32.5001 226.933,-29 216.933,-25.5001 216.933,-32.5001"/>
</g>
<!-- Node3 -->
<g id="node3" class="node"><title>Node3</title>
<g id="a_node3"><a xlink:href="Voxel_8cuh.html#afeed91d5a5a0b48801aca2d5edeaf3e1" target="_top" xlink:title="Calculates index used as key to index into device vector. ">
<polygon fill="white" stroke="black" points="151,-0.5 151,-19.5 191,-19.5 191,-0.5 151,-0.5"/>
<text text-anchor="middle" x="171" y="-7.5" font-family="Helvetica,sans-Serif" font-size="10.00">index</text>
</a>
</g>
</g>
<!-- Node1&#45;&gt;Node3 -->
<g id="edge2" class="edge"><title>Node1&#45;&gt;Node3</title>
<path fill="none" stroke="midnightblue" d="M114.577,-19.4443C123.626,-17.9023 132.664,-16.3621 140.737,-14.9865"/>
<polygon fill="midnightblue" stroke="midnightblue" points="141.443,-18.4167 150.713,-13.2865 140.268,-11.5161 141.443,-18.4167"/>
</g>
<!-- Node3&#45;&gt;Node2 -->
<g id="edge3" class="edge"><title>Node3&#45;&gt;Node2</title>
<path fill="none" stroke="midnightblue" d="M191.034,-14.6966C198.929,-16.6448 208.306,-18.9587 217.193,-21.1515"/>
<polygon fill="midnightblue" stroke="midnightblue" points="216.365,-24.5521 226.912,-23.5498 218.042,-17.756 216.365,-24.5521"/>
</g>
</g>
</svg>
