<?xml version="1.0" encoding="UTF-8" standalone="no"?>
<!DOCTYPE svg PUBLIC "-//W3C//DTD SVG 1.1//EN"
 "http://www.w3.org/Graphics/SVG/1.1/DTD/svg11.dtd">
<!-- Generated by graphviz version 2.38.0 (20140413.2041)
 -->
<!-- Title: GPU_FE::Update Pages: 1 -->
<svg width="440pt" height="85pt"
 viewBox="0.00 0.00 440.00 85.00" xmlns="http://www.w3.org/2000/svg" xmlns:xlink="http://www.w3.org/1999/xlink">
<g id="graph0" class="graph" transform="scale(1 1) rotate(0) translate(4 81)">
<title>GPU_FE::Update</title>
<polygon fill="white" stroke="none" points="-4,4 -4,-81 436,-81 436,4 -4,4"/>
<!-- Node1 -->
<g id="node1" class="node"><title>Node1</title>
<polygon fill="#bfbfbf" stroke="black" points="0,-38.5 0,-57.5 94,-57.5 94,-38.5 0,-38.5"/>
<text text-anchor="middle" x="47" y="-45.5" font-family="Helvetica,sans-Serif" font-size="10.00">GPU_FE::Update</text>
</g>
<!-- Node2 -->
<g id="node2" class="node"><title>Node2</title>
<g id="a_node2"><a xlink:href="classquaternion.html#a01adb7930c2003b777cb91a7182c482e" target="_top" xlink:title="Constructor taking x, y, z, w in order. ">
<polygon fill="white" stroke="black" points="319,-57.5 319,-76.5 432,-76.5 432,-57.5 319,-57.5"/>
<text text-anchor="middle" x="375.5" y="-64.5" font-family="Helvetica,sans-Serif" font-size="10.00">quaternion::quaternion</text>
</a>
</g>
</g>
<!-- Node1&#45;&gt;Node2 -->
<g id="edge1" class="edge"><title>Node1&#45;&gt;Node2</title>
<path fill="none" stroke="midnightblue" d="M81.2123,-57.5071C96.0112,-61.2716 113.739,-65.1407 130,-67 190.24,-73.8878 259.376,-73.0892 308.726,-71.0375"/>
<polygon fill="midnightblue" stroke="midnightblue" points="309.111,-74.5239 318.946,-70.5829 308.8,-67.5308 309.111,-74.5239"/>
</g>
<!-- Node3 -->
<g id="node3" class="node"><title>Node3</title>
<g id="a_node3"><a xlink:href="classquaternion.html#a5f2dff4e0f446d05e826a63d5a45d230" target="_top" xlink:title="Inverse of the quaternion. ">
<polygon fill="white" stroke="black" points="166.5,-38.5 166.5,-57.5 246.5,-57.5 246.5,-38.5 166.5,-38.5"/>
<text text-anchor="middle" x="206.5" y="-45.5" font-family="Helvetica,sans-Serif" font-size="10.00">quaternion::inv</text>
</a>
</g>
</g>
<!-- Node1&#45;&gt;Node3 -->
<g id="edge2" class="edge"><title>Node1&#45;&gt;Node3</title>
<path fill="none" stroke="midnightblue" d="M94.4033,-48C113.875,-48 136.541,-48 156.303,-48"/>
<polygon fill="midnightblue" stroke="midnightblue" points="156.34,-51.5001 166.34,-48 156.34,-44.5001 156.34,-51.5001"/>
</g>
<!-- Node4 -->
<g id="node4" class="node"><title>Node4</title>
<g id="a_node4"><a xlink:href="Voxel_8cuh.html#aa881629585a7719857d28b2cbf1e1257" target="_top" xlink:title="Method to print out errors in CUDA kernel execution. ">
<polygon fill="white" stroke="black" points="130,-0.5 130,-19.5 283,-19.5 283,-0.5 130,-0.5"/>
<text text-anchor="middle" x="206.5" y="-7.5" font-family="Helvetica,sans-Serif" font-size="10.00">gpuCheckKernelExecutionError</text>
</a>
</g>
</g>
<!-- Node1&#45;&gt;Node4 -->
<g id="edge4" class="edge"><title>Node1&#45;&gt;Node4</title>
<path fill="none" stroke="midnightblue" d="M87.7439,-38.411C108.528,-33.3965 134.161,-27.2119 156.199,-21.8947"/>
<polygon fill="midnightblue" stroke="midnightblue" points="157.142,-25.2679 166.042,-19.5201 155.5,-18.4632 157.142,-25.2679"/>
</g>
<!-- Node3&#45;&gt;Node2 -->
<g id="edge3" class="edge"><title>Node3&#45;&gt;Node2</title>
<path fill="none" stroke="midnightblue" d="M246.654,-52.4547C265.129,-54.5566 287.685,-57.1229 308.679,-59.5114"/>
<polygon fill="midnightblue" stroke="midnightblue" points="308.503,-63.0138 318.834,-60.6668 309.294,-56.0587 308.503,-63.0138"/>
</g>
<!-- Node5 -->
<g id="node5" class="node"><title>Node5</title>
<g id="a_node5"><a xlink:href="Voxel_8cuh.html#af3f284d9dc439df44497e0e24b6d1fed" target="_top" xlink:title="Prints out errors in CUDA kernel execution. ">
<polygon fill="white" stroke="black" points="345,-0.5 345,-19.5 406,-19.5 406,-0.5 345,-0.5"/>
<text text-anchor="middle" x="375.5" y="-7.5" font-family="Helvetica,sans-Serif" font-size="10.00">gpuAssert</text>
</a>
</g>
</g>
<!-- Node4&#45;&gt;Node5 -->
<g id="edge5" class="edge"><title>Node4&#45;&gt;Node5</title>
<path fill="none" stroke="midnightblue" d="M283.182,-10C300.852,-10 318.993,-10 334.403,-10"/>
<polygon fill="midnightblue" stroke="midnightblue" points="334.596,-13.5001 344.596,-10 334.596,-6.5001 334.596,-13.5001"/>
</g>
</g>
</svg>
