<?xml version="1.0" encoding="UTF-8" standalone="no"?>
<!DOCTYPE svg PUBLIC "-//W3C//DTD SVG 1.1//EN"
 "http://www.w3.org/Graphics/SVG/1.1/DTD/svg11.dtd">
<!-- Generated by graphviz version 2.38.0 (20140413.2041)
 -->
<!-- Title: Map_FE Pages: 1 -->
<svg width="138pt" height="84pt"
 viewBox="0.00 0.00 138.00 84.00" xmlns="http://www.w3.org/2000/svg" xmlns:xlink="http://www.w3.org/1999/xlink">
<g id="graph0" class="graph" transform="scale(1 1) rotate(0) translate(4 80)">
<title>Map_FE</title>
<polygon fill="white" stroke="none" points="-4,4 -4,-80 134,-80 134,4 -4,4"/>
<!-- Node1 -->
<g id="node1" class="node"><title>Node1</title>
<polygon fill="#bfbfbf" stroke="black" points="38.5,-56.5 38.5,-75.5 91.5,-75.5 91.5,-56.5 38.5,-56.5"/>
<text text-anchor="middle" x="65" y="-63.5" font-family="Helvetica,sans-Serif" font-size="10.00">Map_FE</text>
</g>
<!-- Node2 -->
<g id="node2" class="node"><title>Node2</title>
<g id="a_node2"><a xlink:href="classCPU__FE.html" target="_top" xlink:title="Wrapper class for occ_grid. ">
<polygon fill="white" stroke="black" points="0,-0.5 0,-19.5 56,-19.5 56,-0.5 0,-0.5"/>
<text text-anchor="middle" x="28" y="-7.5" font-family="Helvetica,sans-Serif" font-size="10.00">CPU_FE</text>
</a>
</g>
</g>
<!-- Node1&#45;&gt;Node2 -->
<g id="edge1" class="edge"><title>Node1&#45;&gt;Node2</title>
<path fill="none" stroke="midnightblue" d="M53.0542,-47.5656C46.6883,-38.2747 39.1332,-27.2484 33.9961,-19.7511"/>
<polygon fill="midnightblue" stroke="midnightblue" points="50.3506,-49.812 58.8902,-56.083 56.1251,-45.8553 50.3506,-49.812"/>
</g>
<!-- Node3 -->
<g id="node3" class="node"><title>Node3</title>
<g id="a_node3"><a xlink:href="classGPU__FE.html" target="_top" xlink:title="Wrapper class for occ_grid. ">
<polygon fill="white" stroke="black" points="74,-0.5 74,-19.5 130,-19.5 130,-0.5 74,-0.5"/>
<text text-anchor="middle" x="102" y="-7.5" font-family="Helvetica,sans-Serif" font-size="10.00">GPU_FE</text>
</a>
</g>
</g>
<!-- Node1&#45;&gt;Node3 -->
<g id="edge2" class="edge"><title>Node1&#45;&gt;Node3</title>
<path fill="none" stroke="midnightblue" d="M76.9458,-47.5656C83.3117,-38.2747 90.8668,-27.2484 96.0039,-19.7511"/>
<polygon fill="midnightblue" stroke="midnightblue" points="73.8749,-45.8553 71.1098,-56.083 79.6494,-49.812 73.8749,-45.8553"/>
</g>
</g>
</svg>
