<?xml version="1.0" encoding="UTF-8" standalone="no"?>
<!DOCTYPE svg PUBLIC "-//W3C//DTD SVG 1.1//EN"
 "http://www.w3.org/Graphics/SVG/1.1/DTD/svg11.dtd">
<!-- Generated by graphviz version 2.38.0 (20140413.2041)
 -->
<!-- Title: Writer Pages: 1 -->
<svg width="174pt" height="296pt"
 viewBox="0.00 0.00 173.50 296.00" xmlns="http://www.w3.org/2000/svg" xmlns:xlink="http://www.w3.org/1999/xlink">
<g id="graph0" class="graph" transform="scale(1 1) rotate(0) translate(4 292)">
<title>Writer</title>
<polygon fill="white" stroke="none" points="-4,4 -4,-292 169.5,-292 169.5,4 -4,4"/>
<!-- Node1 -->
<g id="node1" class="node"><title>Node1</title>
<polygon fill="#bfbfbf" stroke="black" points="98.5,-0.5 98.5,-19.5 141.5,-19.5 141.5,-0.5 98.5,-0.5"/>
<text text-anchor="middle" x="120" y="-7.5" font-family="Helvetica,sans-Serif" font-size="10.00">Writer</text>
</g>
<!-- Node2 -->
<g id="node2" class="node"><title>Node2</title>
<g id="a_node2"><a xlink:href="classCamera.html" target="_top" xlink:title="Camera streams abstraction class. ">
<polygon fill="white" stroke="black" points="41.5,-67.5 41.5,-86.5 92.5,-86.5 92.5,-67.5 41.5,-67.5"/>
<text text-anchor="middle" x="67" y="-74.5" font-family="Helvetica,sans-Serif" font-size="10.00">Camera</text>
</a>
</g>
</g>
<!-- Node2&#45;&gt;Node1 -->
<g id="edge1" class="edge"><title>Node2&#45;&gt;Node1</title>
<path fill="none" stroke="#9a32cd" stroke-dasharray="5,2" d="M80.641,-59.2705C90.9746,-46.5972 104.752,-29.701 112.965,-19.6273"/>
<polygon fill="#9a32cd" stroke="#9a32cd" points="77.7547,-57.2718 74.1478,-67.2338 83.1798,-61.6954 77.7547,-57.2718"/>
<text text-anchor="middle" x="102.5" y="-41" font-family="Helvetica,sans-Serif" font-size="10.00"> C</text>
</g>
<!-- Node3 -->
<g id="node3" class="node"><title>Node3</title>
<polygon fill="white" stroke="#bfbfbf" points="0,-134.5 0,-153.5 134,-153.5 134,-134.5 0,-134.5"/>
<text text-anchor="middle" x="67" y="-141.5" font-family="Helvetica,sans-Serif" font-size="10.00">std::vector&lt; rs2::pipeline &gt;</text>
</g>
<!-- Node3&#45;&gt;Node2 -->
<g id="edge2" class="edge"><title>Node3&#45;&gt;Node2</title>
<path fill="none" stroke="#9a32cd" stroke-dasharray="5,2" d="M67,-124.037C67,-111.67 67,-96.1198 67,-86.6273"/>
<polygon fill="#9a32cd" stroke="#9a32cd" points="63.5001,-124.234 67,-134.234 70.5001,-124.234 63.5001,-124.234"/>
<text text-anchor="middle" x="88" y="-108" font-family="Helvetica,sans-Serif" font-size="10.00"> pipelines</text>
</g>
<!-- Node4 -->
<g id="node4" class="node"><title>Node4</title>
<g id="a_node4"><a xlink:title="STL class. ">
<polygon fill="white" stroke="#bfbfbf" points="23.5,-201.5 23.5,-220.5 110.5,-220.5 110.5,-201.5 23.5,-201.5"/>
<text text-anchor="middle" x="67" y="-208.5" font-family="Helvetica,sans-Serif" font-size="10.00">std::vector&lt; T &gt;</text>
</a>
</g>
</g>
<!-- Node4&#45;&gt;Node3 -->
<g id="edge3" class="edge"><title>Node4&#45;&gt;Node3</title>
<path fill="none" stroke="orange" stroke-dasharray="5,2" d="M67,-191.037C67,-178.67 67,-163.12 67,-153.627"/>
<polygon fill="orange" stroke="orange" points="63.5001,-191.234 67,-201.234 70.5001,-191.234 63.5001,-191.234"/>
<text text-anchor="middle" x="104" y="-175" font-family="Helvetica,sans-Serif" font-size="10.00"> &lt; rs2::pipeline &gt;</text>
</g>
<!-- Node5 -->
<g id="node5" class="node"><title>Node5</title>
<polygon fill="white" stroke="#bfbfbf" points="52.5,-268.5 52.5,-287.5 81.5,-287.5 81.5,-268.5 52.5,-268.5"/>
<text text-anchor="middle" x="67" y="-275.5" font-family="Helvetica,sans-Serif" font-size="10.00">T</text>
</g>
<!-- Node5&#45;&gt;Node4 -->
<g id="edge4" class="edge"><title>Node5&#45;&gt;Node4</title>
<path fill="none" stroke="#9a32cd" stroke-dasharray="5,2" d="M67,-258.037C67,-245.67 67,-230.12 67,-220.627"/>
<polygon fill="#9a32cd" stroke="#9a32cd" points="63.5001,-258.234 67,-268.234 70.5001,-258.234 63.5001,-258.234"/>
<text text-anchor="middle" x="88.5" y="-242" font-family="Helvetica,sans-Serif" font-size="10.00"> elements</text>
</g>
<!-- Node6 -->
<g id="node6" class="node"><title>Node6</title>
<g id="a_node6"><a xlink:href="structBool__Init.html" target="_top" xlink:title="Struct returned on Camera::Init() ">
<polygon fill="white" stroke="black" points="110.5,-67.5 110.5,-86.5 165.5,-86.5 165.5,-67.5 110.5,-67.5"/>
<text text-anchor="middle" x="138" y="-74.5" font-family="Helvetica,sans-Serif" font-size="10.00">Bool_Init</text>
</a>
</g>
</g>
<!-- Node6&#45;&gt;Node1 -->
<g id="edge5" class="edge"><title>Node6&#45;&gt;Node1</title>
<path fill="none" stroke="#9a32cd" stroke-dasharray="5,2" d="M132.853,-57.4145C129.412,-44.9883 125.045,-29.2166 122.389,-19.6273"/>
<polygon fill="#9a32cd" stroke="#9a32cd" points="129.531,-58.5306 135.572,-67.2338 136.277,-56.6624 129.531,-58.5306"/>
<text text-anchor="middle" x="134.5" y="-41" font-family="Helvetica,sans-Serif" font-size="10.00"> b</text>
</g>
</g>
</svg>
