<?xml version="1.0" encoding="UTF-8" standalone="no"?>
<!DOCTYPE svg PUBLIC "-//W3C//DTD SVG 1.1//EN"
 "http://www.w3.org/Graphics/SVG/1.1/DTD/svg11.dtd">
<!-- Generated by graphviz version 2.38.0 (20140413.2041)
 -->
<!-- Title: voxel::update_vox Pages: 1 -->
<svg width="236pt" height="66pt"
 viewBox="0.00 0.00 236.00 66.00" xmlns="http://www.w3.org/2000/svg" xmlns:xlink="http://www.w3.org/1999/xlink">
<g id="graph0" class="graph" transform="scale(1 1) rotate(0) translate(4 62)">
<title>voxel::update_vox</title>
<polygon fill="white" stroke="none" points="-4,4 -4,-62 232,-62 232,4 -4,4"/>
<!-- Node1 -->
<g id="node1" class="node"><title>Node1</title>
<polygon fill="#bfbfbf" stroke="black" points="0,-19.5 0,-38.5 96,-38.5 96,-19.5 0,-19.5"/>
<text text-anchor="middle" x="48" y="-26.5" font-family="Helvetica,sans-Serif" font-size="10.00">voxel::update_vox</text>
</g>
<!-- Node2 -->
<g id="node2" class="node"><title>Node2</title>
<g id="a_node2"><a xlink:href="classvoxel.html#a1748472909af5ef1f28d0a0c6648dbbd" target="_top" xlink:title="Update method for self. ">
<polygon fill="white" stroke="black" points="132,-38.5 132,-57.5 228,-57.5 228,-38.5 132,-38.5"/>
<text text-anchor="middle" x="180" y="-45.5" font-family="Helvetica,sans-Serif" font-size="10.00">voxel::update_self</text>
</a>
</g>
</g>
<!-- Node1&#45;&gt;Node2 -->
<g id="edge1" class="edge"><title>Node1&#45;&gt;Node2</title>
<path fill="none" stroke="midnightblue" d="M96.3007,-35.9132C104.65,-37.1334 113.42,-38.4152 122.002,-39.6695"/>
<polygon fill="midnightblue" stroke="midnightblue" points="121.551,-43.1407 131.952,-41.1238 122.563,-36.2143 121.551,-43.1407"/>
</g>
<!-- Node3 -->
<g id="node3" class="node"><title>Node3</title>
<g id="a_node3"><a xlink:href="classleaf.html#a3c205ce57e242832977bde6e1a04d7da" target="_top" xlink:title="Update method for this node object. ">
<polygon fill="white" stroke="black" points="135.5,-0.5 135.5,-19.5 224.5,-19.5 224.5,-0.5 135.5,-0.5"/>
<text text-anchor="middle" x="180" y="-7.5" font-family="Helvetica,sans-Serif" font-size="10.00">leaf::update_leaf</text>
</a>
</g>
</g>
<!-- Node1&#45;&gt;Node3 -->
<g id="edge2" class="edge"><title>Node1&#45;&gt;Node3</title>
<path fill="none" stroke="midnightblue" d="M96.3007,-22.0868C105.784,-20.7008 115.811,-19.2353 125.487,-17.8211"/>
<polygon fill="midnightblue" stroke="midnightblue" points="126.018,-21.2808 135.407,-16.3713 125.006,-14.3544 126.018,-21.2808"/>
</g>
</g>
</svg>
