<?xml version="1.0" encoding="UTF-8" standalone="no"?>
<!DOCTYPE svg PUBLIC "-//W3C//DTD SVG 1.1//EN"
 "http://www.w3.org/Graphics/SVG/1.1/DTD/svg11.dtd">
<!-- Generated by graphviz version 2.38.0 (20140413.2041)
 -->
<!-- Title: quaternion::quaternion Pages: 1 -->
<svg width="396pt" height="170pt"
 viewBox="0.00 0.00 396.00 170.00" xmlns="http://www.w3.org/2000/svg" xmlns:xlink="http://www.w3.org/1999/xlink">
<g id="graph0" class="graph" transform="scale(1 1) rotate(0) translate(4 166)">
<title>quaternion::quaternion</title>
<polygon fill="white" stroke="none" points="-4,4 -4,-166 392,-166 392,4 -4,4"/>
<!-- Node1 -->
<g id="node1" class="node"><title>Node1</title>
<polygon fill="#bfbfbf" stroke="black" points="0,-76.5 0,-95.5 113,-95.5 113,-76.5 0,-76.5"/>
<text text-anchor="middle" x="56.5" y="-83.5" font-family="Helvetica,sans-Serif" font-size="10.00">quaternion::quaternion</text>
</g>
<!-- Node2 -->
<g id="node2" class="node"><title>Node2</title>
<g id="a_node2"><a xlink:href="classquaternion.html#a5f2dff4e0f446d05e826a63d5a45d230" target="_top" xlink:title="Inverse of the quaternion. ">
<polygon fill="white" stroke="black" points="163.5,-76.5 163.5,-95.5 243.5,-95.5 243.5,-76.5 163.5,-76.5"/>
<text text-anchor="middle" x="203.5" y="-83.5" font-family="Helvetica,sans-Serif" font-size="10.00">quaternion::inv</text>
</a>
</g>
</g>
<!-- Node1&#45;&gt;Node2 -->
<g id="edge1" class="edge"><title>Node1&#45;&gt;Node2</title>
<path fill="none" stroke="midnightblue" d="M123.492,-86C137.142,-86 151.102,-86 163.416,-86"/>
<polygon fill="midnightblue" stroke="midnightblue" points="123.146,-82.5001 113.146,-86 123.146,-89.5001 123.146,-82.5001"/>
</g>
<!-- Node3 -->
<g id="node3" class="node"><title>Node3</title>
<g id="a_node3"><a xlink:href="Voxel_8cuh.html#a935fc0c42796b23607cf6f81a1e95e8d" target="_top" xlink:title="Updates point in the global map. ">
<polygon fill="white" stroke="black" points="306,-142.5 306,-161.5 376,-161.5 376,-142.5 306,-142.5"/>
<text text-anchor="middle" x="341" y="-149.5" font-family="Helvetica,sans-Serif" font-size="10.00">Update_root</text>
</a>
</g>
</g>
<!-- Node1&#45;&gt;Node3 -->
<g id="edge6" class="edge"><title>Node1&#45;&gt;Node3</title>
<path fill="none" stroke="midnightblue" d="M89.3186,-99.5208C106.695,-106.47 128.743,-114.592 149,-120 202.924,-134.396 267.225,-143.577 305.772,-148.254"/>
<polygon fill="midnightblue" stroke="midnightblue" points="90.2576,-96.1241 79.6761,-95.5939 87.6174,-102.607 90.2576,-96.1241"/>
</g>
<!-- Node4 -->
<g id="node4" class="node"><title>Node4</title>
<g id="a_node4"><a xlink:href="classGPU__FE.html#aa9039bd613961d4e0911b8514ed14fba" target="_top" xlink:title="Updates the measurement data in the global map. ">
<polygon fill="white" stroke="black" points="294,-85.5 294,-104.5 388,-104.5 388,-85.5 294,-85.5"/>
<text text-anchor="middle" x="341" y="-92.5" font-family="Helvetica,sans-Serif" font-size="10.00">GPU_FE::Update</text>
</a>
</g>
</g>
<!-- Node1&#45;&gt;Node4 -->
<g id="edge7" class="edge"><title>Node1&#45;&gt;Node4</title>
<path fill="none" stroke="midnightblue" d="M104.643,-97.7114C118.81,-100.709 134.454,-103.506 149,-105 197.191,-109.951 209.645,-107.938 258,-105 269.595,-104.296 282.062,-103.036 293.688,-101.643"/>
<polygon fill="midnightblue" stroke="midnightblue" points="105.144,-94.238 94.6253,-95.5093 103.641,-101.075 105.144,-94.238"/>
</g>
<!-- Node5 -->
<g id="node5" class="node"><title>Node5</title>
<g id="a_node5"><a xlink:href="classCPU__FE.html#aae7cb60a405b294a680a929ecff5c2ae" target="_top" xlink:title="Updates the measurement data in the global map. ">
<polygon fill="white" stroke="black" points="294,-47.5 294,-66.5 388,-66.5 388,-47.5 294,-47.5"/>
<text text-anchor="middle" x="341" y="-54.5" font-family="Helvetica,sans-Serif" font-size="10.00">CPU_FE::Update</text>
</a>
</g>
</g>
<!-- Node1&#45;&gt;Node5 -->
<g id="edge8" class="edge"><title>Node1&#45;&gt;Node5</title>
<path fill="none" stroke="midnightblue" d="M107.003,-74.2852C120.549,-71.4728 135.28,-68.7731 149,-67 198.232,-60.6374 255.101,-58.2957 293.897,-57.4486"/>
<polygon fill="midnightblue" stroke="midnightblue" points="105.957,-70.9296 96.9107,-76.4444 107.422,-77.7747 105.957,-70.9296"/>
</g>
<!-- Node6 -->
<g id="node6" class="node"><title>Node6</title>
<g id="a_node6"><a xlink:href="classquaternion.html#ae2cf533c781610bf66bf39c30bd6b6ec" target="_top" xlink:title=" operator ">
<polygon fill="white" stroke="black" points="149,-0.5 149,-19.5 258,-19.5 258,-0.5 149,-0.5"/>
<text text-anchor="middle" x="203.5" y="-7.5" font-family="Helvetica,sans-Serif" font-size="10.00">quaternion::operator+</text>
</a>
</g>
</g>
<!-- Node1&#45;&gt;Node6 -->
<g id="edge5" class="edge"><title>Node1&#45;&gt;Node6</title>
<path fill="none" stroke="midnightblue" d="M82.2544,-71.0824C100.468,-60.316 125.963,-45.6798 149,-34 158.988,-28.9362 170.27,-23.793 179.89,-19.5735"/>
<polygon fill="midnightblue" stroke="midnightblue" points="80.2493,-68.2027 73.4448,-76.3236 83.8284,-74.2185 80.2493,-68.2027"/>
</g>
<!-- Node2&#45;&gt;Node3 -->
<g id="edge2" class="edge"><title>Node2&#45;&gt;Node3</title>
<path fill="none" stroke="midnightblue" d="M233.264,-100.011C259.439,-112.76 297.383,-131.242 320.273,-142.391"/>
<polygon fill="midnightblue" stroke="midnightblue" points="234.726,-96.8294 224.203,-95.597 231.66,-103.123 234.726,-96.8294"/>
</g>
<!-- Node2&#45;&gt;Node4 -->
<g id="edge3" class="edge"><title>Node2&#45;&gt;Node4</title>
<path fill="none" stroke="midnightblue" d="M253.875,-89.2795C266.885,-90.1436 280.872,-91.0727 293.712,-91.9255"/>
<polygon fill="midnightblue" stroke="midnightblue" points="253.902,-85.7737 243.692,-88.6032 253.438,-92.7583 253.902,-85.7737"/>
</g>
<!-- Node2&#45;&gt;Node5 -->
<g id="edge4" class="edge"><title>Node2&#45;&gt;Node5</title>
<path fill="none" stroke="midnightblue" d="M253.79,-75.4508C267.318,-72.5555 281.909,-69.4327 295.172,-66.5943"/>
<polygon fill="midnightblue" stroke="midnightblue" points="252.738,-72.0966 243.692,-77.612 254.203,-78.9416 252.738,-72.0966"/>
</g>
</g>
</svg>
