<?xml version="1.0" encoding="UTF-8" standalone="no"?>
<!DOCTYPE svg PUBLIC "-//W3C//DTD SVG 1.1//EN"
 "http://www.w3.org/Graphics/SVG/1.1/DTD/svg11.dtd">
<!-- Generated by graphviz version 2.38.0 (20140413.2041)
 -->
<!-- Title: CPU_FE Pages: 1 -->
<svg width="200pt" height="351pt"
 viewBox="0.00 0.00 199.50 351.00" xmlns="http://www.w3.org/2000/svg" xmlns:xlink="http://www.w3.org/1999/xlink">
<g id="graph0" class="graph" transform="scale(1 1) rotate(0) translate(4 347)">
<title>CPU_FE</title>
<polygon fill="white" stroke="none" points="-4,4 -4,-347 195.5,-347 195.5,4 -4,4"/>
<!-- Node1 -->
<g id="node1" class="node"><title>Node1</title>
<polygon fill="#bfbfbf" stroke="black" points="24.5,-0.5 24.5,-19.5 80.5,-19.5 80.5,-0.5 24.5,-0.5"/>
<text text-anchor="middle" x="52.5" y="-7.5" font-family="Helvetica,sans-Serif" font-size="10.00">CPU_FE</text>
</g>
<!-- Node2 -->
<g id="node2" class="node"><title>Node2</title>
<g id="a_node2"><a xlink:href="classMap__FE.html" target="_top" xlink:title="Virtual class Parent of CPU_FE and GPU_FE classes. ">
<polygon fill="white" stroke="black" points="-3.55271e-15,-67.5 -3.55271e-15,-86.5 53,-86.5 53,-67.5 -3.55271e-15,-67.5"/>
<text text-anchor="middle" x="26.5" y="-74.5" font-family="Helvetica,sans-Serif" font-size="10.00">Map_FE</text>
</a>
</g>
</g>
<!-- Node2&#45;&gt;Node1 -->
<g id="edge1" class="edge"><title>Node2&#45;&gt;Node1</title>
<path fill="none" stroke="midnightblue" d="M33.784,-57.79C38.777,-45.3076 45.1746,-29.3135 49.0491,-19.6273"/>
<polygon fill="midnightblue" stroke="midnightblue" points="30.4708,-56.6491 30.0065,-67.2338 36.9701,-59.2489 30.4708,-56.6491"/>
</g>
<!-- Node3 -->
<g id="node3" class="node"><title>Node3</title>
<g id="a_node3"><a xlink:href="classocc__grid.html" target="_top" xlink:title="The top&#45;most class managing the global map. ">
<polygon fill="white" stroke="black" points="71,-67.5 71,-86.5 124,-86.5 124,-67.5 71,-67.5"/>
<text text-anchor="middle" x="97.5" y="-74.5" font-family="Helvetica,sans-Serif" font-size="10.00">occ_grid</text>
</a>
</g>
</g>
<!-- Node3&#45;&gt;Node1 -->
<g id="edge2" class="edge"><title>Node3&#45;&gt;Node1</title>
<path fill="none" stroke="#9a32cd" stroke-dasharray="5,2" d="M85.6641,-58.9037C76.9197,-46.2729 65.3798,-29.6041 58.4727,-19.6273"/>
<polygon fill="#9a32cd" stroke="#9a32cd" points="82.8613,-61.0041 91.4311,-67.2338 88.6166,-57.0196 82.8613,-61.0041"/>
<text text-anchor="middle" x="94" y="-41" font-family="Helvetica,sans-Serif" font-size="10.00"> g_map</text>
</g>
<!-- Node4 -->
<g id="node4" class="node"><title>Node4</title>
<polygon fill="white" stroke="#bfbfbf" points="42,-134.5 42,-186.5 153,-186.5 153,-134.5 42,-134.5"/>
<text text-anchor="start" x="50" y="-174.5" font-family="Helvetica,sans-Serif" font-size="10.00">std::map&lt; unsigned</text>
<text text-anchor="start" x="50" y="-163.5" font-family="Helvetica,sans-Serif" font-size="10.00"> long, std::pair&lt; voxel</text>
<text text-anchor="start" x="50" y="-152.5" font-family="Helvetica,sans-Serif" font-size="10.00"> *, std::array&lt; float,</text>
<text text-anchor="middle" x="97.5" y="-141.5" font-family="Helvetica,sans-Serif" font-size="10.00"> 3 &gt; &gt; &gt;</text>
</g>
<!-- Node4&#45;&gt;Node3 -->
<g id="edge3" class="edge"><title>Node4&#45;&gt;Node3</title>
<path fill="none" stroke="#9a32cd" stroke-dasharray="5,2" d="M97.5,-123.882C97.5,-110.1 97.5,-95.5212 97.5,-86.5895"/>
<polygon fill="#9a32cd" stroke="#9a32cd" points="94.0001,-124.16 97.5,-134.16 101,-124.16 94.0001,-124.16"/>
<text text-anchor="middle" x="107.5" y="-108" font-family="Helvetica,sans-Serif" font-size="10.00"> root</text>
</g>
<!-- Node5 -->
<g id="node5" class="node"><title>Node5</title>
<g id="a_node5"><a xlink:title="STL class. ">
<polygon fill="white" stroke="#bfbfbf" points="51.5,-256.5 51.5,-275.5 143.5,-275.5 143.5,-256.5 51.5,-256.5"/>
<text text-anchor="middle" x="97.5" y="-263.5" font-family="Helvetica,sans-Serif" font-size="10.00">std::map&lt; K, T &gt;</text>
</a>
</g>
</g>
<!-- Node5&#45;&gt;Node4 -->
<g id="edge4" class="edge"><title>Node5&#45;&gt;Node4</title>
<path fill="none" stroke="orange" stroke-dasharray="5,2" d="M97.5,-246.019C97.5,-229.317 97.5,-204.878 97.5,-186.571"/>
<polygon fill="orange" stroke="orange" points="94.0001,-246.176 97.5,-256.176 101,-246.176 94.0001,-246.176"/>
<text text-anchor="start" x="97.5" y="-230" font-family="Helvetica,sans-Serif" font-size="10.00"> &lt; unsigned long, std</text>
<text text-anchor="start" x="97.5" y="-219" font-family="Helvetica,sans-Serif" font-size="10.00">::pair&lt; voxel *, std</text>
<text text-anchor="middle" x="144.5" y="-208" font-family="Helvetica,sans-Serif" font-size="10.00">::array&lt; float, 3 &gt; &gt; &gt;</text>
</g>
<!-- Node6 -->
<g id="node6" class="node"><title>Node6</title>
<polygon fill="white" stroke="#bfbfbf" points="59,-323.5 59,-342.5 88,-342.5 88,-323.5 59,-323.5"/>
<text text-anchor="middle" x="73.5" y="-330.5" font-family="Helvetica,sans-Serif" font-size="10.00">K</text>
</g>
<!-- Node6&#45;&gt;Node5 -->
<g id="edge5" class="edge"><title>Node6&#45;&gt;Node5</title>
<path fill="none" stroke="#9a32cd" stroke-dasharray="5,2" d="M71.527,-313.005C71.5219,-306.774 72.2271,-299.931 74.5,-294 77.1441,-287.1 82.363,-280.736 87.162,-275.922"/>
<polygon fill="#9a32cd" stroke="#9a32cd" points="68.0466,-313.448 72.1178,-323.229 75.035,-313.044 68.0466,-313.448"/>
<text text-anchor="middle" x="87" y="-297" font-family="Helvetica,sans-Serif" font-size="10.00"> keys</text>
</g>
<!-- Node7 -->
<g id="node7" class="node"><title>Node7</title>
<polygon fill="white" stroke="#bfbfbf" points="107,-323.5 107,-342.5 136,-342.5 136,-323.5 107,-323.5"/>
<text text-anchor="middle" x="121.5" y="-330.5" font-family="Helvetica,sans-Serif" font-size="10.00">T</text>
</g>
<!-- Node7&#45;&gt;Node5 -->
<g id="edge6" class="edge"><title>Node7&#45;&gt;Node5</title>
<path fill="none" stroke="#9a32cd" stroke-dasharray="5,2" d="M114.776,-313.79C110.167,-301.308 104.262,-285.314 100.685,-275.627"/>
<polygon fill="#9a32cd" stroke="#9a32cd" points="111.516,-315.065 118.263,-323.234 118.083,-312.641 111.516,-315.065"/>
<text text-anchor="middle" x="132" y="-297" font-family="Helvetica,sans-Serif" font-size="10.00"> elements</text>
</g>
</g>
</svg>
