<?xml version="1.0" encoding="UTF-8" standalone="no"?>
<!DOCTYPE svg PUBLIC "-//W3C//DTD SVG 1.1//EN"
 "http://www.w3.org/Graphics/SVG/1.1/DTD/svg11.dtd">
<!-- Generated by graphviz version 2.38.0 (20140413.2041)
 -->
<!-- Title: CPU_FE::Update Pages: 1 -->
<svg width="484pt" height="123pt"
 viewBox="0.00 0.00 484.00 123.00" xmlns="http://www.w3.org/2000/svg" xmlns:xlink="http://www.w3.org/1999/xlink">
<g id="graph0" class="graph" transform="scale(1 1) rotate(0) translate(4 119)">
<title>CPU_FE::Update</title>
<polygon fill="white" stroke="none" points="-4,4 -4,-119 480,-119 480,4 -4,4"/>
<!-- Node1 -->
<g id="node1" class="node"><title>Node1</title>
<polygon fill="#bfbfbf" stroke="black" points="0,-57.5 0,-76.5 94,-76.5 94,-57.5 0,-57.5"/>
<text text-anchor="middle" x="47" y="-64.5" font-family="Helvetica,sans-Serif" font-size="10.00">CPU_FE::Update</text>
</g>
<!-- Node2 -->
<g id="node2" class="node"><title>Node2</title>
<g id="a_node2"><a xlink:href="classquaternion.html#a01adb7930c2003b777cb91a7182c482e" target="_top" xlink:title="Constructor taking x, y, z, w in order. ">
<polygon fill="white" stroke="black" points="281,-95.5 281,-114.5 394,-114.5 394,-95.5 281,-95.5"/>
<text text-anchor="middle" x="337.5" y="-102.5" font-family="Helvetica,sans-Serif" font-size="10.00">quaternion::quaternion</text>
</a>
</g>
</g>
<!-- Node1&#45;&gt;Node2 -->
<g id="edge1" class="edge"><title>Node1&#45;&gt;Node2</title>
<path fill="none" stroke="midnightblue" d="M84.5272,-76.5842C98.6491,-79.994 114.996,-83.5829 130,-86 176.693,-93.5219 229.842,-98.3272 270.525,-101.223"/>
<polygon fill="midnightblue" stroke="midnightblue" points="270.37,-104.721 280.588,-101.919 270.853,-97.7375 270.37,-104.721"/>
</g>
<!-- Node3 -->
<g id="node3" class="node"><title>Node3</title>
<g id="a_node3"><a xlink:href="classquaternion.html#a5f2dff4e0f446d05e826a63d5a45d230" target="_top" xlink:title="Inverse of the quaternion. ">
<polygon fill="white" stroke="black" points="147.5,-57.5 147.5,-76.5 227.5,-76.5 227.5,-57.5 147.5,-57.5"/>
<text text-anchor="middle" x="187.5" y="-64.5" font-family="Helvetica,sans-Serif" font-size="10.00">quaternion::inv</text>
</a>
</g>
</g>
<!-- Node1&#45;&gt;Node3 -->
<g id="edge2" class="edge"><title>Node1&#45;&gt;Node3</title>
<path fill="none" stroke="midnightblue" d="M94.1185,-67C107.789,-67 122.817,-67 136.709,-67"/>
<polygon fill="midnightblue" stroke="midnightblue" points="137.069,-70.5001 147.069,-67 137.069,-63.5001 137.069,-70.5001"/>
</g>
<!-- Node4 -->
<g id="node4" class="node"><title>Node4</title>
<g id="a_node4"><a xlink:href="classocc__grid.html#aaf38d339d7d1b3226d9673f8d6102b2c" target="_top" xlink:title="Updates point in the global map. ">
<polygon fill="white" stroke="black" points="130,-19.5 130,-38.5 245,-38.5 245,-19.5 130,-19.5"/>
<text text-anchor="middle" x="187.5" y="-26.5" font-family="Helvetica,sans-Serif" font-size="10.00">occ_grid::update_point</text>
</a>
</g>
</g>
<!-- Node1&#45;&gt;Node4 -->
<g id="edge4" class="edge"><title>Node1&#45;&gt;Node4</title>
<path fill="none" stroke="midnightblue" d="M82.9494,-57.411C100.828,-52.5056 122.788,-46.4804 141.878,-41.2429"/>
<polygon fill="midnightblue" stroke="midnightblue" points="142.844,-44.6072 151.562,-38.5859 140.992,-37.8566 142.844,-44.6072"/>
</g>
<!-- Node3&#45;&gt;Node2 -->
<g id="edge3" class="edge"><title>Node3&#45;&gt;Node2</title>
<path fill="none" stroke="midnightblue" d="M225.847,-76.589C245.201,-81.5583 269.03,-87.6767 289.613,-92.9613"/>
<polygon fill="midnightblue" stroke="midnightblue" points="288.866,-96.383 299.422,-95.4799 290.607,-89.6029 288.866,-96.383"/>
</g>
<!-- Node5 -->
<g id="node5" class="node"><title>Node5</title>
<g id="a_node5"><a xlink:href="Voxel_8cuh.html#abbd51b1d8c2bc9b7d5ef5413e1e4ca49" target="_top" xlink:title="Calculates co&#45;ordinate of point modulo edge length. ">
<polygon fill="white" stroke="black" points="430,-19.5 430,-38.5 476,-38.5 476,-19.5 430,-19.5"/>
<text text-anchor="middle" x="453" y="-26.5" font-family="Helvetica,sans-Serif" font-size="10.00">mod_p</text>
</a>
</g>
</g>
<!-- Node4&#45;&gt;Node5 -->
<g id="edge5" class="edge"><title>Node4&#45;&gt;Node5</title>
<path fill="none" stroke="midnightblue" d="M245.027,-29C298.281,-29 376.192,-29 419.649,-29"/>
<polygon fill="midnightblue" stroke="midnightblue" points="419.919,-32.5001 429.919,-29 419.919,-25.5001 419.919,-32.5001"/>
</g>
<!-- Node6 -->
<g id="node6" class="node"><title>Node6</title>
<g id="a_node6"><a xlink:href="Voxel_8cuh.html#afeed91d5a5a0b48801aca2d5edeaf3e1" target="_top" xlink:title="Calculates index used as key to index into device vector. ">
<polygon fill="white" stroke="black" points="317.5,-0.5 317.5,-19.5 357.5,-19.5 357.5,-0.5 317.5,-0.5"/>
<text text-anchor="middle" x="337.5" y="-7.5" font-family="Helvetica,sans-Serif" font-size="10.00">index</text>
</a>
</g>
</g>
<!-- Node4&#45;&gt;Node6 -->
<g id="edge6" class="edge"><title>Node4&#45;&gt;Node6</title>
<path fill="none" stroke="midnightblue" d="M245.297,-21.7084C266.359,-19.0045 289.39,-16.0479 307.038,-13.7823"/>
<polygon fill="midnightblue" stroke="midnightblue" points="307.793,-17.2142 317.265,-12.4693 306.901,-10.2712 307.793,-17.2142"/>
</g>
<!-- Node6&#45;&gt;Node5 -->
<g id="edge7" class="edge"><title>Node6&#45;&gt;Node5</title>
<path fill="none" stroke="midnightblue" d="M357.754,-13.2231C374.773,-16.0721 399.936,-20.2844 419.981,-23.64"/>
<polygon fill="midnightblue" stroke="midnightblue" points="419.486,-27.1058 429.927,-25.3049 420.642,-20.2018 419.486,-27.1058"/>
</g>
</g>
</svg>
