<?xml version="1.0" encoding="UTF-8" standalone="no"?>
<!DOCTYPE svg PUBLIC "-//W3C//DTD SVG 1.1//EN"
 "http://www.w3.org/Graphics/SVG/1.1/DTD/svg11.dtd">
<!-- Generated by graphviz version 2.38.0 (20140413.2041)
 -->
<!-- Title: Pair&lt; A, B &gt; Pages: 1 -->
<svg width="152pt" height="117pt"
 viewBox="0.00 0.00 152.00 117.00" xmlns="http://www.w3.org/2000/svg" xmlns:xlink="http://www.w3.org/1999/xlink">
<g id="graph0" class="graph" transform="scale(1 1) rotate(0) translate(4 113)">
<title>Pair&lt; A, B &gt;</title>
<polygon fill="white" stroke="none" points="-4,4 -4,-113 148,-113 148,4 -4,4"/>
<!-- Node1 -->
<g id="node1" class="node"><title>Node1</title>
<polygon fill="#bfbfbf" stroke="black" points="22.5,-89.5 22.5,-108.5 93.5,-108.5 93.5,-89.5 22.5,-89.5"/>
<text text-anchor="middle" x="58" y="-96.5" font-family="Helvetica,sans-Serif" font-size="10.00">Pair&lt; A, B &gt;</text>
</g>
<!-- Node2 -->
<g id="node2" class="node"><title>Node2</title>
<g id="a_node2"><a xlink:href="classPair.html" target="_top" xlink:title="Pair\&lt; long, Pair\&lt; voxel\l *, Point \&gt; \&gt;">
<polygon fill="white" stroke="black" points="-7.10543e-15,-0.5 -7.10543e-15,-30.5 116,-30.5 116,-0.5 -7.10543e-15,-0.5"/>
<text text-anchor="start" x="8" y="-18.5" font-family="Helvetica,sans-Serif" font-size="10.00">Pair&lt; long, Pair&lt; voxel</text>
<text text-anchor="middle" x="58" y="-7.5" font-family="Helvetica,sans-Serif" font-size="10.00"> *, Point &gt; &gt;</text>
</a>
</g>
</g>
<!-- Node1&#45;&gt;Node2 -->
<g id="edge1" class="edge"><title>Node1&#45;&gt;Node2</title>
<path fill="none" stroke="orange" stroke-dasharray="5,2" d="M58,-79.229C58,-64.4075 58,-44.0505 58,-30.5974"/>
<polygon fill="orange" stroke="orange" points="54.5001,-79.278 58,-89.2781 61.5001,-79.2781 54.5001,-79.278"/>
<text text-anchor="start" x="58" y="-63" font-family="Helvetica,sans-Serif" font-size="10.00"> &lt; long, Pair&lt; voxel</text>
<text text-anchor="middle" x="101" y="-52" font-family="Helvetica,sans-Serif" font-size="10.00"> *, Point &gt; &gt;</text>
</g>
</g>
</svg>
