<?xml version="1.0" encoding="UTF-8" standalone="no"?>
<!DOCTYPE svg PUBLIC "-//W3C//DTD SVG 1.1//EN"
 "http://www.w3.org/Graphics/SVG/1.1/DTD/svg11.dtd">
<!-- Generated by graphviz version 2.38.0 (20140413.2041)
 -->
<!-- Title: Logger::obj_grid Pages: 1 -->
<svg width="224pt" height="66pt"
 viewBox="0.00 0.00 224.00 66.00" xmlns="http://www.w3.org/2000/svg" xmlns:xlink="http://www.w3.org/1999/xlink">
<g id="graph0" class="graph" transform="scale(1 1) rotate(0) translate(4 62)">
<title>Logger::obj_grid</title>
<polygon fill="white" stroke="none" points="-4,4 -4,-62 220,-62 220,4 -4,4"/>
<!-- Node1 -->
<g id="node1" class="node"><title>Node1</title>
<polygon fill="#bfbfbf" stroke="black" points="0,-19.5 0,-38.5 86,-38.5 86,-19.5 0,-19.5"/>
<text text-anchor="middle" x="43" y="-26.5" font-family="Helvetica,sans-Serif" font-size="10.00">Logger::obj_grid</text>
</g>
<!-- Node2 -->
<g id="node2" class="node"><title>Node2</title>
<g id="a_node2"><a xlink:href="classMap__FE.html#aedfee41631a7287c9eb377ccb05317d6" target="_top" xlink:title="Returns all points in the map. ">
<polygon fill="white" stroke="black" points="125.5,-38.5 125.5,-57.5 212.5,-57.5 212.5,-38.5 125.5,-38.5"/>
<text text-anchor="middle" x="169" y="-45.5" font-family="Helvetica,sans-Serif" font-size="10.00">Map_FE::Points</text>
</a>
</g>
</g>
<!-- Node1&#45;&gt;Node2 -->
<g id="edge1" class="edge"><title>Node1&#45;&gt;Node2</title>
<path fill="none" stroke="midnightblue" d="M86.3269,-35.4856C95.6999,-36.9218 105.742,-38.4605 115.466,-39.9504"/>
<polygon fill="midnightblue" stroke="midnightblue" points="115.028,-43.4241 125.443,-41.4791 116.088,-36.5049 115.028,-43.4241"/>
</g>
<!-- Node3 -->
<g id="node3" class="node"><title>Node3</title>
<g id="a_node3"><a xlink:href="classLogger.html#a38c5de03e0de7deffd7b516b13f826ff" target="_top" xlink:title="Recursively constructs a voxel wireframe. ">
<polygon fill="white" stroke="black" points="122,-0.5 122,-19.5 216,-19.5 216,-0.5 122,-0.5"/>
<text text-anchor="middle" x="169" y="-7.5" font-family="Helvetica,sans-Serif" font-size="10.00">Logger::point_grid</text>
</a>
</g>
</g>
<!-- Node1&#45;&gt;Node3 -->
<g id="edge2" class="edge"><title>Node1&#45;&gt;Node3</title>
<path fill="none" stroke="midnightblue" d="M86.3269,-22.5144C94.4962,-21.2627 103.174,-19.933 111.706,-18.6257"/>
<polygon fill="midnightblue" stroke="midnightblue" points="112.262,-22.0815 121.616,-17.1072 111.201,-15.1622 112.262,-22.0815"/>
</g>
</g>
</svg>
