<?xml version="1.0" encoding="UTF-8" standalone="no"?>
<!DOCTYPE svg PUBLIC "-//W3C//DTD SVG 1.1//EN"
 "http://www.w3.org/Graphics/SVG/1.1/DTD/svg11.dtd">
<!-- Generated by graphviz version 2.38.0 (20140413.2041)
 -->
<!-- Title: Map_FE::Points Pages: 1 -->
<svg width="404pt" height="47pt"
 viewBox="0.00 0.00 404.00 47.00" xmlns="http://www.w3.org/2000/svg" xmlns:xlink="http://www.w3.org/1999/xlink">
<g id="graph0" class="graph" transform="scale(1 1) rotate(0) translate(4 43)">
<title>Map_FE::Points</title>
<polygon fill="white" stroke="none" points="-4,4 -4,-43 400,-43 400,4 -4,4"/>
<!-- Node1 -->
<g id="node1" class="node"><title>Node1</title>
<polygon fill="#bfbfbf" stroke="black" points="0,-19.5 0,-38.5 87,-38.5 87,-19.5 0,-19.5"/>
<text text-anchor="middle" x="43.5" y="-26.5" font-family="Helvetica,sans-Serif" font-size="10.00">Map_FE::Points</text>
</g>
<!-- Node2 -->
<g id="node2" class="node"><title>Node2</title>
<g id="a_node2"><a xlink:href="classLogger.html#a6b670ceb54a249eb83da08a1914d2be8" target="_top" xlink:title="Closes the lgging operation. ">
<polygon fill="white" stroke="black" points="245,-19.5 245,-38.5 322,-38.5 322,-19.5 245,-19.5"/>
<text text-anchor="middle" x="283.5" y="-26.5" font-family="Helvetica,sans-Serif" font-size="10.00">Logger::Close</text>
</a>
</g>
</g>
<!-- Node1&#45;&gt;Node2 -->
<g id="edge1" class="edge"><title>Node1&#45;&gt;Node2</title>
<path fill="none" stroke="midnightblue" d="M97.1332,-29C141.796,-29 204.795,-29 244.634,-29"/>
<polygon fill="midnightblue" stroke="midnightblue" points="97.0497,-25.5001 87.0496,-29 97.0496,-32.5001 97.0497,-25.5001"/>
</g>
<!-- Node4 -->
<g id="node4" class="node"><title>Node4</title>
<g id="a_node4"><a xlink:href="classLogger.html#ac58fee4bd66a5359deb29a86948d584d" target="_top" xlink:title="Constructs a grid representation of the map. ">
<polygon fill="white" stroke="black" points="123,-0.5 123,-19.5 209,-19.5 209,-0.5 123,-0.5"/>
<text text-anchor="middle" x="166" y="-7.5" font-family="Helvetica,sans-Serif" font-size="10.00">Logger::obj_grid</text>
</a>
</g>
</g>
<!-- Node1&#45;&gt;Node4 -->
<g id="edge3" class="edge"><title>Node1&#45;&gt;Node4</title>
<path fill="none" stroke="midnightblue" d="M97.2042,-20.6898C105.737,-19.3443 114.476,-17.9665 122.72,-16.6665"/>
<polygon fill="midnightblue" stroke="midnightblue" points="96.6559,-17.2329 87.3231,-22.2478 97.7462,-24.1475 96.6559,-17.2329"/>
</g>
<!-- Node3 -->
<g id="node3" class="node"><title>Node3</title>
<g id="a_node3"><a xlink:href="CPU__main_8cpp.html#abf9e6b7e6f15df4b525a2e7705ba3089" target="_top" xlink:title="main">
<polygon fill="white" stroke="black" points="358,-19.5 358,-38.5 396,-38.5 396,-19.5 358,-19.5"/>
<text text-anchor="middle" x="377" y="-26.5" font-family="Helvetica,sans-Serif" font-size="10.00">main</text>
</a>
</g>
</g>
<!-- Node2&#45;&gt;Node3 -->
<g id="edge2" class="edge"><title>Node2&#45;&gt;Node3</title>
<path fill="none" stroke="midnightblue" d="M332.362,-29C341.347,-29 350.223,-29 357.601,-29"/>
<polygon fill="midnightblue" stroke="midnightblue" points="332.245,-25.5001 322.245,-29 332.245,-32.5001 332.245,-25.5001"/>
</g>
<!-- Node4&#45;&gt;Node2 -->
<g id="edge4" class="edge"><title>Node4&#45;&gt;Node2</title>
<path fill="none" stroke="midnightblue" d="M219.105,-18.5713C227.799,-20.0016 236.666,-21.4602 244.907,-22.8159"/>
<polygon fill="midnightblue" stroke="midnightblue" points="219.46,-15.0829 209.025,-16.9132 218.324,-21.9901 219.46,-15.0829"/>
</g>
</g>
</svg>
