<?xml version="1.0" encoding="UTF-8" standalone="no"?>
<!DOCTYPE svg PUBLIC "-//W3C//DTD SVG 1.1//EN"
 "http://www.w3.org/Graphics/SVG/1.1/DTD/svg11.dtd">
<!-- Generated by graphviz version 2.38.0 (20140413.2041)
 -->
<!-- Title: voxel::update_self Pages: 1 -->
<svg width="236pt" height="66pt"
 viewBox="0.00 0.00 236.00 66.00" xmlns="http://www.w3.org/2000/svg" xmlns:xlink="http://www.w3.org/1999/xlink">
<g id="graph0" class="graph" transform="scale(1 1) rotate(0) translate(4 62)">
<title>voxel::update_self</title>
<polygon fill="white" stroke="none" points="-4,4 -4,-62 232,-62 232,4 -4,4"/>
<!-- Node1 -->
<g id="node1" class="node"><title>Node1</title>
<polygon fill="#bfbfbf" stroke="black" points="0,-19.5 0,-38.5 96,-38.5 96,-19.5 0,-19.5"/>
<text text-anchor="middle" x="48" y="-26.5" font-family="Helvetica,sans-Serif" font-size="10.00">voxel::update_self</text>
</g>
<!-- Node2 -->
<g id="node2" class="node"><title>Node2</title>
<g id="a_node2"><a xlink:href="classvoxel.html#a97737aec7c381e72d929d2f084952683" target="_top" xlink:title="Update method for this node object. ">
<polygon fill="white" stroke="black" points="132,-38.5 132,-57.5 228,-57.5 228,-38.5 132,-38.5"/>
<text text-anchor="middle" x="180" y="-45.5" font-family="Helvetica,sans-Serif" font-size="10.00">voxel::update_vox</text>
</a>
</g>
</g>
<!-- Node1&#45;&gt;Node2 -->
<g id="edge1" class="edge"><title>Node1&#45;&gt;Node2</title>
<path fill="none" stroke="midnightblue" d="M106.259,-37.3686C114.844,-38.6233 123.612,-39.9048 131.952,-41.1238"/>
<polygon fill="midnightblue" stroke="midnightblue" points="106.702,-33.8962 96.3007,-35.9132 105.689,-40.8227 106.702,-33.8962"/>
</g>
<!-- Node3 -->
<g id="node3" class="node"><title>Node3</title>
<g id="a_node3"><a xlink:href="Voxel_8cuh.html#a935fc0c42796b23607cf6f81a1e95e8d" target="_top" xlink:title="Updates point in the global map. ">
<polygon fill="white" stroke="black" points="145,-0.5 145,-19.5 215,-19.5 215,-0.5 145,-0.5"/>
<text text-anchor="middle" x="180" y="-7.5" font-family="Helvetica,sans-Serif" font-size="10.00">Update_root</text>
</a>
</g>
</g>
<!-- Node1&#45;&gt;Node3 -->
<g id="edge2" class="edge"><title>Node1&#45;&gt;Node3</title>
<path fill="none" stroke="midnightblue" d="M106.28,-20.6284C119.487,-18.6981 133.126,-16.7047 144.973,-14.9732"/>
<polygon fill="midnightblue" stroke="midnightblue" points="105.689,-17.1774 96.3007,-22.0868 106.702,-24.1038 105.689,-17.1774"/>
</g>
</g>
</svg>
