<?xml version="1.0" encoding="UTF-8" standalone="no"?>
<!DOCTYPE svg PUBLIC "-//W3C//DTD SVG 1.1//EN"
 "http://www.w3.org/Graphics/SVG/1.1/DTD/svg11.dtd">
<!-- Generated by graphviz version 2.38.0 (20140413.2041)
 -->
<!-- Title: Logger::Close Pages: 1 -->
<svg width="337pt" height="66pt"
 viewBox="0.00 0.00 337.00 66.00" xmlns="http://www.w3.org/2000/svg" xmlns:xlink="http://www.w3.org/1999/xlink">
<g id="graph0" class="graph" transform="scale(1 1) rotate(0) translate(4 62)">
<title>Logger::Close</title>
<polygon fill="white" stroke="none" points="-4,4 -4,-62 333,-62 333,4 -4,4"/>
<!-- Node1 -->
<g id="node1" class="node"><title>Node1</title>
<polygon fill="#bfbfbf" stroke="black" points="0,-19.5 0,-38.5 77,-38.5 77,-19.5 0,-19.5"/>
<text text-anchor="middle" x="38.5" y="-26.5" font-family="Helvetica,sans-Serif" font-size="10.00">Logger::Close</text>
</g>
<!-- Node2 -->
<g id="node2" class="node"><title>Node2</title>
<g id="a_node2"><a xlink:href="classMap__FE.html#aedfee41631a7287c9eb377ccb05317d6" target="_top" xlink:title="Returns all points in the map. ">
<polygon fill="white" stroke="black" points="238.5,-38.5 238.5,-57.5 325.5,-57.5 325.5,-38.5 238.5,-38.5"/>
<text text-anchor="middle" x="282" y="-45.5" font-family="Helvetica,sans-Serif" font-size="10.00">Map_FE::Points</text>
</a>
</g>
</g>
<!-- Node1&#45;&gt;Node2 -->
<g id="edge1" class="edge"><title>Node1&#45;&gt;Node2</title>
<path fill="none" stroke="midnightblue" d="M77.2344,-31.9688C117.811,-35.1611 182.627,-40.2605 228.241,-43.8492"/>
<polygon fill="midnightblue" stroke="midnightblue" points="227.998,-47.3408 238.242,-44.636 228.547,-40.3624 227.998,-47.3408"/>
</g>
<!-- Node3 -->
<g id="node3" class="node"><title>Node3</title>
<g id="a_node3"><a xlink:href="classLogger.html#ac58fee4bd66a5359deb29a86948d584d" target="_top" xlink:title="Constructs a grid representation of the map. ">
<polygon fill="white" stroke="black" points="113,-0.5 113,-19.5 199,-19.5 199,-0.5 113,-0.5"/>
<text text-anchor="middle" x="156" y="-7.5" font-family="Helvetica,sans-Serif" font-size="10.00">Logger::obj_grid</text>
</a>
</g>
</g>
<!-- Node1&#45;&gt;Node3 -->
<g id="edge2" class="edge"><title>Node1&#45;&gt;Node3</title>
<path fill="none" stroke="midnightblue" d="M77.319,-22.7787C85.4524,-21.4407 94.1869,-20.0039 102.758,-18.5939"/>
<polygon fill="midnightblue" stroke="midnightblue" points="103.4,-22.0355 112.699,-16.9586 102.264,-15.1283 103.4,-22.0355"/>
</g>
<!-- Node3&#45;&gt;Node2 -->
<g id="edge3" class="edge"><title>Node3&#45;&gt;Node2</title>
<path fill="none" stroke="midnightblue" d="M188.29,-19.589C204.004,-24.4044 223.238,-30.2988 240.106,-35.468"/>
<polygon fill="midnightblue" stroke="midnightblue" points="239.133,-38.8304 249.72,-38.4141 241.184,-32.1376 239.133,-38.8304"/>
</g>
<!-- Node4 -->
<g id="node4" class="node"><title>Node4</title>
<g id="a_node4"><a xlink:href="classLogger.html#a38c5de03e0de7deffd7b516b13f826ff" target="_top" xlink:title="Recursively constructs a voxel wireframe. ">
<polygon fill="white" stroke="black" points="235,-0.5 235,-19.5 329,-19.5 329,-0.5 235,-0.5"/>
<text text-anchor="middle" x="282" y="-7.5" font-family="Helvetica,sans-Serif" font-size="10.00">Logger::point_grid</text>
</a>
</g>
</g>
<!-- Node3&#45;&gt;Node4 -->
<g id="edge4" class="edge"><title>Node3&#45;&gt;Node4</title>
<path fill="none" stroke="midnightblue" d="M199.327,-10C207.407,-10 215.985,-10 224.428,-10"/>
<polygon fill="midnightblue" stroke="midnightblue" points="224.616,-13.5001 234.616,-10 224.616,-6.5001 224.616,-13.5001"/>
</g>
</g>
</svg>
