<?xml version="1.0" encoding="UTF-8" standalone="no"?>
<!DOCTYPE svg PUBLIC "-//W3C//DTD SVG 1.1//EN"
 "http://www.w3.org/Graphics/SVG/1.1/DTD/svg11.dtd">
<!-- Generated by graphviz version 2.38.0 (20140413.2041)
 -->
<!-- Title: GPU_FE Pages: 1 -->
<svg width="337pt" height="195pt"
 viewBox="0.00 0.00 336.50 195.00" xmlns="http://www.w3.org/2000/svg" xmlns:xlink="http://www.w3.org/1999/xlink">
<g id="graph0" class="graph" transform="scale(1 1) rotate(0) translate(4 191)">
<title>GPU_FE</title>
<polygon fill="white" stroke="none" points="-4,4 -4,-191 332.5,-191 332.5,4 -4,4"/>
<!-- Node1 -->
<g id="node1" class="node"><title>Node1</title>
<polygon fill="#bfbfbf" stroke="black" points="90.5,-0.5 90.5,-19.5 146.5,-19.5 146.5,-0.5 90.5,-0.5"/>
<text text-anchor="middle" x="118.5" y="-7.5" font-family="Helvetica,sans-Serif" font-size="10.00">GPU_FE</text>
</g>
<!-- Node2 -->
<g id="node2" class="node"><title>Node2</title>
<g id="a_node2"><a xlink:href="classMap__FE.html" target="_top" xlink:title="Virtual class Parent of CPU_FE and GPU_FE classes. ">
<polygon fill="white" stroke="black" points="0,-84 0,-103 53,-103 53,-84 0,-84"/>
<text text-anchor="middle" x="26.5" y="-91" font-family="Helvetica,sans-Serif" font-size="10.00">Map_FE</text>
</a>
</g>
</g>
<!-- Node2&#45;&gt;Node1 -->
<g id="edge1" class="edge"><title>Node2&#45;&gt;Node1</title>
<path fill="none" stroke="midnightblue" d="M44.0731,-76.9325C63.2746,-59.9225 93.3453,-33.2838 108.725,-19.6592"/>
<polygon fill="midnightblue" stroke="midnightblue" points="41.5101,-74.5272 36.3456,-83.7781 46.1518,-79.7669 41.5101,-74.5272"/>
</g>
<!-- Node3 -->
<g id="node3" class="node"><title>Node3</title>
<g id="a_node3"><a xlink:href="structPose.html" target="_top" xlink:title="Pose of T265 camera. ">
<polygon fill="white" stroke="black" points="71,-84 71,-103 110,-103 110,-84 71,-84"/>
<text text-anchor="middle" x="90.5" y="-91" font-family="Helvetica,sans-Serif" font-size="10.00">Pose</text>
</a>
</g>
</g>
<!-- Node3&#45;&gt;Node1 -->
<g id="edge2" class="edge"><title>Node3&#45;&gt;Node1</title>
<path fill="none" stroke="#9a32cd" stroke-dasharray="5,2" d="M96.9026,-73.864C102.744,-56.8609 111.117,-32.4895 115.525,-19.6592"/>
<polygon fill="#9a32cd" stroke="#9a32cd" points="93.4356,-73.1834 93.4965,-83.7781 100.056,-75.4579 93.4356,-73.1834"/>
<text text-anchor="middle" x="114.5" y="-46.5" font-family="Helvetica,sans-Serif" font-size="10.00"> P</text>
</g>
<!-- Node4 -->
<g id="node4" class="node"><title>Node4</title>
<g id="a_node4"><a xlink:href="classquaternion.html" target="_top" xlink:title="A basic Quaternion class. ">
<polygon fill="white" stroke="black" points="88.5,-167.5 88.5,-186.5 150.5,-186.5 150.5,-167.5 88.5,-167.5"/>
<text text-anchor="middle" x="119.5" y="-174.5" font-family="Helvetica,sans-Serif" font-size="10.00">quaternion</text>
</a>
</g>
</g>
<!-- Node4&#45;&gt;Node3 -->
<g id="edge3" class="edge"><title>Node4&#45;&gt;Node3</title>
<path fill="none" stroke="#9a32cd" stroke-dasharray="5,2" d="M113.041,-157.848C106.984,-140.826 98.1901,-116.112 93.5812,-103.159"/>
<polygon fill="#9a32cd" stroke="#9a32cd" points="109.747,-159.03 116.396,-167.278 116.342,-156.683 109.747,-159.03"/>
<text text-anchor="middle" x="113" y="-141" font-family="Helvetica,sans-Serif" font-size="10.00"> r</text>
<text text-anchor="middle" x="113" y="-130" font-family="Helvetica,sans-Serif" font-size="10.00">t</text>
</g>
<!-- Node7 -->
<g id="node7" class="node"><title>Node7</title>
<g id="a_node7"><a xlink:href="structCam.html" target="_top" xlink:title="Camera Intrinsics and Extrinsics. ">
<polygon fill="white" stroke="black" points="128.5,-84 128.5,-103 166.5,-103 166.5,-84 128.5,-84"/>
<text text-anchor="middle" x="147.5" y="-91" font-family="Helvetica,sans-Serif" font-size="10.00">Cam</text>
</a>
</g>
</g>
<!-- Node4&#45;&gt;Node7 -->
<g id="edge7" class="edge"><title>Node4&#45;&gt;Node7</title>
<path fill="none" stroke="#9a32cd" stroke-dasharray="5,2" d="M125.903,-157.364C131.744,-140.361 140.117,-115.99 144.525,-103.159"/>
<polygon fill="#9a32cd" stroke="#9a32cd" points="122.436,-156.683 122.496,-167.278 129.056,-158.958 122.436,-156.683"/>
<text text-anchor="middle" x="150.5" y="-141" font-family="Helvetica,sans-Serif" font-size="10.00"> T_TD</text>
<text text-anchor="middle" x="150.5" y="-130" font-family="Helvetica,sans-Serif" font-size="10.00">Q_TD</text>
</g>
<!-- Node5 -->
<g id="node5" class="node"><title>Node5</title>
<g id="a_node5"><a xlink:href="classPair.html" target="_top" xlink:title="Pair\&lt; long, Pair\&lt; voxel\l *, Point \&gt; \&gt;">
<polygon fill="white" stroke="black" points="184.5,-78.5 184.5,-108.5 300.5,-108.5 300.5,-78.5 184.5,-78.5"/>
<text text-anchor="start" x="192.5" y="-96.5" font-family="Helvetica,sans-Serif" font-size="10.00">Pair&lt; long, Pair&lt; voxel</text>
<text text-anchor="middle" x="242.5" y="-85.5" font-family="Helvetica,sans-Serif" font-size="10.00"> *, Point &gt; &gt;</text>
</a>
</g>
</g>
<!-- Node5&#45;&gt;Node1 -->
<g id="edge4" class="edge"><title>Node5&#45;&gt;Node1</title>
<path fill="none" stroke="#9a32cd" stroke-dasharray="5,2" d="M212.518,-72.7941C186.688,-55.8173 150.64,-32.1246 131.556,-19.5811"/>
<polygon fill="#9a32cd" stroke="#9a32cd" points="210.905,-75.922 221.184,-78.4897 214.749,-70.0723 210.905,-75.922"/>
<text text-anchor="middle" x="208" y="-52" font-family="Helvetica,sans-Serif" font-size="10.00"> dtemp</text>
<text text-anchor="middle" x="208" y="-41" font-family="Helvetica,sans-Serif" font-size="10.00">htemp</text>
</g>
<!-- Node6 -->
<g id="node6" class="node"><title>Node6</title>
<g id="a_node6"><a xlink:href="classPair.html" target="_top" xlink:title="Template Class for Pairs. ">
<polygon fill="white" stroke="black" points="207,-167.5 207,-186.5 278,-186.5 278,-167.5 207,-167.5"/>
<text text-anchor="middle" x="242.5" y="-174.5" font-family="Helvetica,sans-Serif" font-size="10.00">Pair&lt; A, B &gt;</text>
</a>
</g>
</g>
<!-- Node6&#45;&gt;Node5 -->
<g id="edge5" class="edge"><title>Node6&#45;&gt;Node5</title>
<path fill="none" stroke="orange" stroke-dasharray="5,2" d="M242.5,-157.229C242.5,-142.408 242.5,-122.051 242.5,-108.597"/>
<polygon fill="orange" stroke="orange" points="239,-157.278 242.5,-167.278 246,-157.278 239,-157.278"/>
<text text-anchor="start" x="242.5" y="-141" font-family="Helvetica,sans-Serif" font-size="10.00"> &lt; long, Pair&lt; voxel</text>
<text text-anchor="middle" x="285.5" y="-130" font-family="Helvetica,sans-Serif" font-size="10.00"> *, Point &gt; &gt;</text>
</g>
<!-- Node7&#45;&gt;Node1 -->
<g id="edge6" class="edge"><title>Node7&#45;&gt;Node1</title>
<path fill="none" stroke="#9a32cd" stroke-dasharray="5,2" d="M141.041,-74.3478C134.984,-57.3261 126.19,-32.6117 121.581,-19.6592"/>
<polygon fill="#9a32cd" stroke="#9a32cd" points="137.747,-75.5301 144.396,-83.7781 144.342,-73.1834 137.747,-75.5301"/>
<text text-anchor="middle" x="142" y="-46.5" font-family="Helvetica,sans-Serif" font-size="10.00"> C</text>
</g>
</g>
</svg>
