<?xml version="1.0" encoding="UTF-8" standalone="no"?>
<!DOCTYPE svg PUBLIC "-//W3C//DTD SVG 1.1//EN"
 "http://www.w3.org/Graphics/SVG/1.1/DTD/svg11.dtd">
<!-- Generated by graphviz version 2.38.0 (20140413.2041)
 -->
<!-- Title: occ_grid Pages: 1 -->
<svg width="158pt" height="284pt"
 viewBox="0.00 0.00 157.50 284.00" xmlns="http://www.w3.org/2000/svg" xmlns:xlink="http://www.w3.org/1999/xlink">
<g id="graph0" class="graph" transform="scale(1 1) rotate(0) translate(4 280)">
<title>occ_grid</title>
<polygon fill="white" stroke="none" points="-4,4 -4,-280 153.5,-280 153.5,4 -4,4"/>
<!-- Node1 -->
<g id="node1" class="node"><title>Node1</title>
<polygon fill="#bfbfbf" stroke="black" points="29,-0.5 29,-19.5 82,-19.5 82,-0.5 29,-0.5"/>
<text text-anchor="middle" x="55.5" y="-7.5" font-family="Helvetica,sans-Serif" font-size="10.00">occ_grid</text>
</g>
<!-- Node2 -->
<g id="node2" class="node"><title>Node2</title>
<polygon fill="white" stroke="#bfbfbf" points="-7.10543e-15,-67.5 -7.10543e-15,-119.5 111,-119.5 111,-67.5 -7.10543e-15,-67.5"/>
<text text-anchor="start" x="8" y="-107.5" font-family="Helvetica,sans-Serif" font-size="10.00">std::map&lt; unsigned</text>
<text text-anchor="start" x="8" y="-96.5" font-family="Helvetica,sans-Serif" font-size="10.00"> long, std::pair&lt; voxel</text>
<text text-anchor="start" x="8" y="-85.5" font-family="Helvetica,sans-Serif" font-size="10.00"> *, std::array&lt; float,</text>
<text text-anchor="middle" x="55.5" y="-74.5" font-family="Helvetica,sans-Serif" font-size="10.00"> 3 &gt; &gt; &gt;</text>
</g>
<!-- Node2&#45;&gt;Node1 -->
<g id="edge1" class="edge"><title>Node2&#45;&gt;Node1</title>
<path fill="none" stroke="#9a32cd" stroke-dasharray="5,2" d="M55.5,-56.882C55.5,-43.0995 55.5,-28.5212 55.5,-19.5895"/>
<polygon fill="#9a32cd" stroke="#9a32cd" points="52.0001,-57.1596 55.5,-67.1596 59.0001,-57.1597 52.0001,-57.1596"/>
<text text-anchor="middle" x="65.5" y="-41" font-family="Helvetica,sans-Serif" font-size="10.00"> root</text>
</g>
<!-- Node3 -->
<g id="node3" class="node"><title>Node3</title>
<g id="a_node3"><a xlink:title="STL class. ">
<polygon fill="white" stroke="#bfbfbf" points="9.5,-189.5 9.5,-208.5 101.5,-208.5 101.5,-189.5 9.5,-189.5"/>
<text text-anchor="middle" x="55.5" y="-196.5" font-family="Helvetica,sans-Serif" font-size="10.00">std::map&lt; K, T &gt;</text>
</a>
</g>
</g>
<!-- Node3&#45;&gt;Node2 -->
<g id="edge2" class="edge"><title>Node3&#45;&gt;Node2</title>
<path fill="none" stroke="orange" stroke-dasharray="5,2" d="M55.5,-179.019C55.5,-162.317 55.5,-137.878 55.5,-119.571"/>
<polygon fill="orange" stroke="orange" points="52.0001,-179.176 55.5,-189.176 59.0001,-179.176 52.0001,-179.176"/>
<text text-anchor="start" x="55.5" y="-163" font-family="Helvetica,sans-Serif" font-size="10.00"> &lt; unsigned long, std</text>
<text text-anchor="start" x="55.5" y="-152" font-family="Helvetica,sans-Serif" font-size="10.00">::pair&lt; voxel *, std</text>
<text text-anchor="middle" x="102.5" y="-141" font-family="Helvetica,sans-Serif" font-size="10.00">::array&lt; float, 3 &gt; &gt; &gt;</text>
</g>
<!-- Node4 -->
<g id="node4" class="node"><title>Node4</title>
<polygon fill="white" stroke="#bfbfbf" points="17,-256.5 17,-275.5 46,-275.5 46,-256.5 17,-256.5"/>
<text text-anchor="middle" x="31.5" y="-263.5" font-family="Helvetica,sans-Serif" font-size="10.00">K</text>
</g>
<!-- Node4&#45;&gt;Node3 -->
<g id="edge3" class="edge"><title>Node4&#45;&gt;Node3</title>
<path fill="none" stroke="#9a32cd" stroke-dasharray="5,2" d="M29.527,-246.005C29.5219,-239.774 30.2271,-232.931 32.5,-227 35.1441,-220.1 40.363,-213.736 45.162,-208.922"/>
<polygon fill="#9a32cd" stroke="#9a32cd" points="26.0466,-246.448 30.1178,-256.229 33.035,-246.044 26.0466,-246.448"/>
<text text-anchor="middle" x="45" y="-230" font-family="Helvetica,sans-Serif" font-size="10.00"> keys</text>
</g>
<!-- Node5 -->
<g id="node5" class="node"><title>Node5</title>
<polygon fill="white" stroke="#bfbfbf" points="65,-256.5 65,-275.5 94,-275.5 94,-256.5 65,-256.5"/>
<text text-anchor="middle" x="79.5" y="-263.5" font-family="Helvetica,sans-Serif" font-size="10.00">T</text>
</g>
<!-- Node5&#45;&gt;Node3 -->
<g id="edge4" class="edge"><title>Node5&#45;&gt;Node3</title>
<path fill="none" stroke="#9a32cd" stroke-dasharray="5,2" d="M72.7763,-246.79C68.1674,-234.308 62.2619,-218.314 58.6855,-208.627"/>
<polygon fill="#9a32cd" stroke="#9a32cd" points="69.5161,-248.065 76.2633,-256.234 76.0828,-245.641 69.5161,-248.065"/>
<text text-anchor="middle" x="90" y="-230" font-family="Helvetica,sans-Serif" font-size="10.00"> elements</text>
</g>
</g>
</svg>
