<?xml version="1.0" encoding="UTF-8" standalone="no"?>
<!DOCTYPE svg PUBLIC "-//W3C//DTD SVG 1.1//EN"
 "http://www.w3.org/Graphics/SVG/1.1/DTD/svg11.dtd">
<!-- Generated by graphviz version 2.38.0 (20140413.2041)
 -->
<!-- Title: Camera Pages: 1 -->
<svg width="149pt" height="229pt"
 viewBox="0.00 0.00 149.00 229.00" xmlns="http://www.w3.org/2000/svg" xmlns:xlink="http://www.w3.org/1999/xlink">
<g id="graph0" class="graph" transform="scale(1 1) rotate(0) translate(4 225)">
<title>Camera</title>
<polygon fill="white" stroke="none" points="-4,4 -4,-225 145,-225 145,4 -4,4"/>
<!-- Node1 -->
<g id="node1" class="node"><title>Node1</title>
<polygon fill="#bfbfbf" stroke="black" points="41.5,-0.5 41.5,-19.5 92.5,-19.5 92.5,-0.5 41.5,-0.5"/>
<text text-anchor="middle" x="67" y="-7.5" font-family="Helvetica,sans-Serif" font-size="10.00">Camera</text>
</g>
<!-- Node2 -->
<g id="node2" class="node"><title>Node2</title>
<polygon fill="white" stroke="#bfbfbf" points="0,-67.5 0,-86.5 134,-86.5 134,-67.5 0,-67.5"/>
<text text-anchor="middle" x="67" y="-74.5" font-family="Helvetica,sans-Serif" font-size="10.00">std::vector&lt; rs2::pipeline &gt;</text>
</g>
<!-- Node2&#45;&gt;Node1 -->
<g id="edge1" class="edge"><title>Node2&#45;&gt;Node1</title>
<path fill="none" stroke="#9a32cd" stroke-dasharray="5,2" d="M67,-57.037C67,-44.6703 67,-29.1198 67,-19.6273"/>
<polygon fill="#9a32cd" stroke="#9a32cd" points="63.5001,-57.2338 67,-67.2338 70.5001,-57.2338 63.5001,-57.2338"/>
<text text-anchor="middle" x="88" y="-41" font-family="Helvetica,sans-Serif" font-size="10.00"> pipelines</text>
</g>
<!-- Node3 -->
<g id="node3" class="node"><title>Node3</title>
<g id="a_node3"><a xlink:title="STL class. ">
<polygon fill="white" stroke="#bfbfbf" points="23.5,-134.5 23.5,-153.5 110.5,-153.5 110.5,-134.5 23.5,-134.5"/>
<text text-anchor="middle" x="67" y="-141.5" font-family="Helvetica,sans-Serif" font-size="10.00">std::vector&lt; T &gt;</text>
</a>
</g>
</g>
<!-- Node3&#45;&gt;Node2 -->
<g id="edge2" class="edge"><title>Node3&#45;&gt;Node2</title>
<path fill="none" stroke="orange" stroke-dasharray="5,2" d="M67,-124.037C67,-111.67 67,-96.1198 67,-86.6273"/>
<polygon fill="orange" stroke="orange" points="63.5001,-124.234 67,-134.234 70.5001,-124.234 63.5001,-124.234"/>
<text text-anchor="middle" x="104" y="-108" font-family="Helvetica,sans-Serif" font-size="10.00"> &lt; rs2::pipeline &gt;</text>
</g>
<!-- Node4 -->
<g id="node4" class="node"><title>Node4</title>
<polygon fill="white" stroke="#bfbfbf" points="52.5,-201.5 52.5,-220.5 81.5,-220.5 81.5,-201.5 52.5,-201.5"/>
<text text-anchor="middle" x="67" y="-208.5" font-family="Helvetica,sans-Serif" font-size="10.00">T</text>
</g>
<!-- Node4&#45;&gt;Node3 -->
<g id="edge3" class="edge"><title>Node4&#45;&gt;Node3</title>
<path fill="none" stroke="#9a32cd" stroke-dasharray="5,2" d="M67,-191.037C67,-178.67 67,-163.12 67,-153.627"/>
<polygon fill="#9a32cd" stroke="#9a32cd" points="63.5001,-191.234 67,-201.234 70.5001,-191.234 63.5001,-191.234"/>
<text text-anchor="middle" x="88.5" y="-175" font-family="Helvetica,sans-Serif" font-size="10.00"> elements</text>
</g>
</g>
</svg>
