<?xml version="1.0" encoding="UTF-8" standalone="no"?>
<!DOCTYPE svg PUBLIC "-//W3C//DTD SVG 1.1//EN"
 "http://www.w3.org/Graphics/SVG/1.1/DTD/svg11.dtd">
<!-- Generated by graphviz version 2.38.0 (20140413.2041)
 -->
<!-- Title: quaternion::inv Pages: 1 -->
<svg width="218pt" height="104pt"
 viewBox="0.00 0.00 218.00 104.00" xmlns="http://www.w3.org/2000/svg" xmlns:xlink="http://www.w3.org/1999/xlink">
<g id="graph0" class="graph" transform="scale(1 1) rotate(0) translate(4 100)">
<title>quaternion::inv</title>
<polygon fill="white" stroke="none" points="-4,4 -4,-100 214,-100 214,4 -4,4"/>
<!-- Node1 -->
<g id="node1" class="node"><title>Node1</title>
<polygon fill="#bfbfbf" stroke="black" points="0,-38.5 0,-57.5 80,-57.5 80,-38.5 0,-38.5"/>
<text text-anchor="middle" x="40" y="-45.5" font-family="Helvetica,sans-Serif" font-size="10.00">quaternion::inv</text>
</g>
<!-- Node2 -->
<g id="node2" class="node"><title>Node2</title>
<g id="a_node2"><a xlink:href="Voxel_8cuh.html#a935fc0c42796b23607cf6f81a1e95e8d" target="_top" xlink:title="Updates point in the global map. ">
<polygon fill="white" stroke="black" points="128,-76.5 128,-95.5 198,-95.5 198,-76.5 128,-76.5"/>
<text text-anchor="middle" x="163" y="-83.5" font-family="Helvetica,sans-Serif" font-size="10.00">Update_root</text>
</a>
</g>
</g>
<!-- Node1&#45;&gt;Node2 -->
<g id="edge1" class="edge"><title>Node1&#45;&gt;Node2</title>
<path fill="none" stroke="midnightblue" d="M81.3771,-60.6804C97.7262,-65.8148 116.288,-71.6441 131.476,-76.4141"/>
<polygon fill="midnightblue" stroke="midnightblue" points="82.1227,-57.2461 71.5334,-57.589 80.0253,-63.9245 82.1227,-57.2461"/>
</g>
<!-- Node3 -->
<g id="node3" class="node"><title>Node3</title>
<g id="a_node3"><a xlink:href="classGPU__FE.html#aa9039bd613961d4e0911b8514ed14fba" target="_top" xlink:title="Updates the measurement data in the global map. ">
<polygon fill="white" stroke="black" points="116,-38.5 116,-57.5 210,-57.5 210,-38.5 116,-38.5"/>
<text text-anchor="middle" x="163" y="-45.5" font-family="Helvetica,sans-Serif" font-size="10.00">GPU_FE::Update</text>
</a>
</g>
</g>
<!-- Node1&#45;&gt;Node3 -->
<g id="edge2" class="edge"><title>Node1&#45;&gt;Node3</title>
<path fill="none" stroke="midnightblue" d="M90.3379,-48C98.7375,-48 107.435,-48 115.751,-48"/>
<polygon fill="midnightblue" stroke="midnightblue" points="90.2853,-44.5001 80.2852,-48 90.2852,-51.5001 90.2853,-44.5001"/>
</g>
<!-- Node4 -->
<g id="node4" class="node"><title>Node4</title>
<g id="a_node4"><a xlink:href="classCPU__FE.html#aae7cb60a405b294a680a929ecff5c2ae" target="_top" xlink:title="Updates the measurement data in the global map. ">
<polygon fill="white" stroke="black" points="116,-0.5 116,-19.5 210,-19.5 210,-0.5 116,-0.5"/>
<text text-anchor="middle" x="163" y="-7.5" font-family="Helvetica,sans-Serif" font-size="10.00">CPU_FE::Update</text>
</a>
</g>
</g>
<!-- Node1&#45;&gt;Node4 -->
<g id="edge3" class="edge"><title>Node1&#45;&gt;Node4</title>
<path fill="none" stroke="midnightblue" d="M81.3771,-35.3196C97.7262,-30.1852 116.288,-24.3559 131.476,-19.5859"/>
<polygon fill="midnightblue" stroke="midnightblue" points="80.0253,-32.0755 71.5334,-38.411 82.1227,-38.7539 80.0253,-32.0755"/>
</g>
</g>
</svg>
