<?xml version="1.0" encoding="UTF-8" standalone="no"?>
<!DOCTYPE svg PUBLIC "-//W3C//DTD SVG 1.1//EN"
 "http://www.w3.org/Graphics/SVG/1.1/DTD/svg11.dtd">
<!-- Generated by graphviz version 2.38.0 (20140413.2041)
 -->
<!-- Title: src/CPU_main.cpp Pages: 1 -->
<!--zoomable 252 -->
<svg id="main" version="1.1" xmlns="http://www.w3.org/2000/svg" xmlns:xlink="http://www.w3.org/1999/xlink" xml:space="preserve" onload="init(evt)">
<style type="text/css"><![CDATA[
.edge:hover path { stroke: red; }
.edge:hover polygon { stroke: red; fill: red; }
]]></style>
<script type="text/javascript"><![CDATA[
var edges = document.getElementsByTagName('g');
if (edges && edges.length) {
  for (var i=0;i<edges.length;i++) {
    if (edges[i].id.substr(0,4)=='edge') {
      edges[i].setAttribute('class','edge');
    }
  }
}
]]></script>
        <defs>
                <circle id="rim" cx="0" cy="0" r="7"/>
                <circle id="rim2" cx="0" cy="0" r="3.5"/>
                <g id="zoomPlus">
                        <use xlink:href="#rim" fill="#404040">
                                <set attributeName="fill" to="#808080" begin="zoomplus.mouseover" end="zoomplus.mouseout"/>
                        </use>
                        <path d="M-4,0h8M0,-4v8" fill="none" stroke="white" stroke-width="1.5" pointer-events="none"/>
                </g>
                <g id="zoomMin">
                        <use xlink:href="#rim" fill="#404040">
                                <set attributeName="fill" to="#808080" begin="zoomminus.mouseover" end="zoomminus.mouseout"/>
                        </use>
                        <path d="M-4,0h8" fill="none" stroke="white" stroke-width="1.5" pointer-events="none"/>
                </g>
                <g id="dirArrow">
                        <path fill="none" stroke="white" stroke-width="1.5" d="M0,-3.0v7 M-2.5,-0.5L0,-3.0L2.5,-0.5"/>
                </g>
               <g id="resetDef">
                       <use xlink:href="#rim2" fill="#404040">
                               <set attributeName="fill" to="#808080" begin="reset.mouseover" end="reset.mouseout"/>
                       </use>
               </g>
        </defs>

<script type="text/javascript">
var viewWidth = 1209;
var viewHeight = 252;
var sectionId = 'dynsection-0';
</script>
<script xlink:href="svgpan.js"/>
<svg id="graph" class="graph">
<g id="viewport">
<title>src/CPU_main.cpp</title>
<polygon fill="white" stroke="none" points="-4,4 -4,-248 1204.8,-248 1204.8,4 -4,4"/>
<!-- Node1 -->
<g id="node1" class="node"><title>Node1</title>
<polygon fill="#bfbfbf" stroke="black" points="538.804,-224.5 538.804,-243.5 638.804,-243.5 638.804,-224.5 538.804,-224.5"/>
<text text-anchor="middle" x="588.804" y="-231.5" font-family="Helvetica,sans-Serif" font-size="10.00">src/CPU_main.cpp</text>
</g>
<!-- Node2 -->
<g id="node2" class="node"><title>Node2</title>
<polygon fill="white" stroke="#bfbfbf" points="52.3037,-56.5 52.3037,-75.5 159.304,-75.5 159.304,-56.5 52.3037,-56.5"/>
<text text-anchor="middle" x="105.804" y="-63.5" font-family="Helvetica,sans-Serif" font-size="10.00">opencv2/opencv.hpp</text>
</g>
<!-- Node1&#45;&gt;Node2 -->
<g id="edge1" class="edge"><title>Node1&#45;&gt;Node2</title>
<path fill="none" stroke="midnightblue" d="M538.549,-232.914C408.257,-231.443 65.4749,-219.21 4.8037,-132 -12.8089,-106.683 23.6411,-88.9238 57.5645,-78.4395"/>
<polygon fill="midnightblue" stroke="midnightblue" points="58.8621,-81.7069 67.4822,-75.5471 56.9022,-74.9869 58.8621,-81.7069"/>
</g>
<!-- Node3 -->
<g id="node3" class="node"><title>Node3</title>
<polygon fill="white" stroke="#bfbfbf" points="369.804,-112.5 369.804,-131.5 423.804,-131.5 423.804,-112.5 369.804,-112.5"/>
<text text-anchor="middle" x="396.804" y="-119.5" font-family="Helvetica,sans-Serif" font-size="10.00">iostream</text>
</g>
<!-- Node1&#45;&gt;Node3 -->
<g id="edge2" class="edge"><title>Node1&#45;&gt;Node3</title>
<path fill="none" stroke="midnightblue" d="M573.738,-224.368C540.51,-205.332 460.714,-159.615 420.63,-136.65"/>
<polygon fill="midnightblue" stroke="midnightblue" points="422.216,-133.526 411.8,-131.591 418.737,-139.599 422.216,-133.526"/>
</g>
<!-- Node4 -->
<g id="node4" class="node"><title>Node4</title>
<polygon fill="white" stroke="#bfbfbf" points="523.804,-112.5 523.804,-131.5 573.804,-131.5 573.804,-112.5 523.804,-112.5"/>
<text text-anchor="middle" x="548.804" y="-119.5" font-family="Helvetica,sans-Serif" font-size="10.00">fstream</text>
</g>
<!-- Node1&#45;&gt;Node4 -->
<g id="edge3" class="edge"><title>Node1&#45;&gt;Node4</title>
<path fill="none" stroke="midnightblue" d="M585.665,-224.368C579.181,-206.537 564.184,-165.295 555.448,-141.272"/>
<polygon fill="midnightblue" stroke="midnightblue" points="558.635,-139.793 551.928,-131.591 552.056,-142.185 558.635,-139.793"/>
</g>
<!-- Node5 -->
<g id="node5" class="node"><title>Node5</title>
<polygon fill="white" stroke="#bfbfbf" points="591.804,-112.5 591.804,-131.5 635.804,-131.5 635.804,-112.5 591.804,-112.5"/>
<text text-anchor="middle" x="613.804" y="-119.5" font-family="Helvetica,sans-Serif" font-size="10.00">vector</text>
</g>
<!-- Node1&#45;&gt;Node5 -->
<g id="edge4" class="edge"><title>Node1&#45;&gt;Node5</title>
<path fill="none" stroke="midnightblue" d="M590.765,-224.368C594.8,-206.617 604.107,-165.666 609.577,-141.597"/>
<polygon fill="midnightblue" stroke="midnightblue" points="613.048,-142.118 611.851,-131.591 606.222,-140.567 613.048,-142.118"/>
</g>
<!-- Node6 -->
<g id="node6" class="node"><title>Node6</title>
<polygon fill="white" stroke="#bfbfbf" points="723.804,-112.5 723.804,-131.5 767.804,-131.5 767.804,-112.5 723.804,-112.5"/>
<text text-anchor="middle" x="745.804" y="-119.5" font-family="Helvetica,sans-Serif" font-size="10.00">cmath</text>
</g>
<!-- Node1&#45;&gt;Node6 -->
<g id="edge5" class="edge"><title>Node1&#45;&gt;Node6</title>
<path fill="none" stroke="midnightblue" d="M601.123,-224.368C627.95,-205.573 691.898,-160.768 725.061,-137.533"/>
<polygon fill="midnightblue" stroke="midnightblue" points="727.36,-140.196 733.541,-131.591 723.343,-134.463 727.36,-140.196"/>
</g>
<!-- Node7 -->
<g id="node7" class="node"><title>Node7</title>
<polygon fill="white" stroke="#bfbfbf" points="654.304,-112.5 654.304,-131.5 705.304,-131.5 705.304,-112.5 654.304,-112.5"/>
<text text-anchor="middle" x="679.804" y="-119.5" font-family="Helvetica,sans-Serif" font-size="10.00">unistd.h</text>
</g>
<!-- Node1&#45;&gt;Node7 -->
<g id="edge6" class="edge"><title>Node1&#45;&gt;Node7</title>
<path fill="none" stroke="midnightblue" d="M595.944,-224.368C611.095,-206.055 646.672,-163.049 666.268,-139.362"/>
<polygon fill="midnightblue" stroke="midnightblue" points="669.019,-141.528 672.696,-131.591 663.625,-137.066 669.019,-141.528"/>
</g>
<!-- Node8 -->
<g id="node8" class="node"><title>Node8</title>
<polygon fill="white" stroke="#bfbfbf" points="814.804,-168.5 814.804,-187.5 858.804,-187.5 858.804,-168.5 814.804,-168.5"/>
<text text-anchor="middle" x="836.804" y="-175.5" font-family="Helvetica,sans-Serif" font-size="10.00">mutex</text>
</g>
<!-- Node1&#45;&gt;Node8 -->
<g id="edge7" class="edge"><title>Node1&#45;&gt;Node8</title>
<path fill="none" stroke="midnightblue" d="M635.182,-224.47C677.127,-216.512 740.775,-203.833 804.67,-188.139"/>
<polygon fill="midnightblue" stroke="midnightblue" points="805.646,-191.503 814.509,-185.698 803.961,-184.709 805.646,-191.503"/>
</g>
<!-- Node9 -->
<g id="node9" class="node"><title>Node9</title>
<polygon fill="white" stroke="#bfbfbf" points="876.804,-168.5 876.804,-187.5 920.804,-187.5 920.804,-168.5 876.804,-168.5"/>
<text text-anchor="middle" x="898.804" y="-175.5" font-family="Helvetica,sans-Serif" font-size="10.00">thread</text>
</g>
<!-- Node1&#45;&gt;Node9 -->
<g id="edge8" class="edge"><title>Node1&#45;&gt;Node9</title>
<path fill="none" stroke="midnightblue" d="M639.052,-226.785C693.103,-219.679 781.702,-206.818 866.725,-188.019"/>
<polygon fill="midnightblue" stroke="midnightblue" points="867.546,-191.422 876.538,-185.819 866.014,-184.591 867.546,-191.422"/>
</g>
<!-- Node10 -->
<g id="node10" class="node"><title>Node10</title>
<polygon fill="white" stroke="#bfbfbf" points="938.804,-168.5 938.804,-187.5 984.804,-187.5 984.804,-168.5 938.804,-168.5"/>
<text text-anchor="middle" x="961.804" y="-175.5" font-family="Helvetica,sans-Serif" font-size="10.00">atomic</text>
</g>
<!-- Node1&#45;&gt;Node10 -->
<g id="edge9" class="edge"><title>Node1&#45;&gt;Node10</title>
<path fill="none" stroke="midnightblue" d="M638.873,-228.654C703.656,-222.532 820.12,-209.835 928.367,-188.043"/>
<polygon fill="midnightblue" stroke="midnightblue" points="929.383,-191.408 938.48,-185.976 927.981,-184.55 929.383,-191.408"/>
</g>
<!-- Node11 -->
<g id="node11" class="node"><title>Node11</title>
<polygon fill="white" stroke="#bfbfbf" points="13.8037,-112.5 13.8037,-131.5 59.8037,-131.5 59.8037,-112.5 13.8037,-112.5"/>
<text text-anchor="middle" x="36.8037" y="-119.5" font-family="Helvetica,sans-Serif" font-size="10.00">chrono</text>
</g>
<!-- Node1&#45;&gt;Node11 -->
<g id="edge10" class="edge"><title>Node1&#45;&gt;Node11</title>
<path fill="none" stroke="midnightblue" d="M538.752,-229.949C468.704,-224.957 337.777,-212.986 228.804,-188 170.079,-174.535 104.03,-150.009 66.7174,-135.239"/>
<polygon fill="midnightblue" stroke="midnightblue" points="68.0133,-131.988 57.4284,-131.528 65.4161,-138.488 68.0133,-131.988"/>
</g>
<!-- Node12 -->
<g id="node12" class="node"><title>Node12</title>
<polygon fill="white" stroke="#bfbfbf" points="77.8037,-112.5 77.8037,-131.5 121.804,-131.5 121.804,-112.5 77.8037,-112.5"/>
<text text-anchor="middle" x="99.8037" y="-119.5" font-family="Helvetica,sans-Serif" font-size="10.00">time.h</text>
</g>
<!-- Node1&#45;&gt;Node12 -->
<g id="edge11" class="edge"><title>Node1&#45;&gt;Node12</title>
<path fill="none" stroke="midnightblue" d="M538.55,-227.704C480.34,-220.994 381.802,-207.857 298.804,-188 238.613,-173.6 170.449,-149.598 131.55,-135.139"/>
<polygon fill="midnightblue" stroke="midnightblue" points="132.442,-131.735 121.849,-131.505 129.986,-138.29 132.442,-131.735"/>
</g>
<!-- Node13 -->
<g id="node13" class="node"><title>Node13</title>
<g id="a_node13"><a xlink:href="Voxel_8hpp.html" target="_top" xlink:title="../include/Voxel.hpp">
<polygon fill="white" stroke="black" points="693.304,-168.5 693.304,-187.5 796.304,-187.5 796.304,-168.5 693.304,-168.5"/>
<text text-anchor="middle" x="744.804" y="-175.5" font-family="Helvetica,sans-Serif" font-size="10.00">../include/Voxel.hpp</text>
</a>
</g>
</g>
<!-- Node1&#45;&gt;Node13 -->
<g id="edge12" class="edge"><title>Node1&#45;&gt;Node13</title>
<path fill="none" stroke="midnightblue" d="M613.522,-224.444C639.652,-215.399 681.063,-201.064 710.38,-190.916"/>
<polygon fill="midnightblue" stroke="midnightblue" points="711.896,-194.095 720.201,-187.516 709.606,-187.48 711.896,-194.095"/>
</g>
<!-- Node25 -->
<g id="node25" class="node"><title>Node25</title>
<g id="a_node25"><a xlink:href="Logging_8hpp.html" target="_top" xlink:title="../include/Logging.hpp">
<polygon fill="white" stroke="black" points="307.804,-168.5 307.804,-187.5 419.804,-187.5 419.804,-168.5 307.804,-168.5"/>
<text text-anchor="middle" x="363.804" y="-175.5" font-family="Helvetica,sans-Serif" font-size="10.00">../include/Logging.hpp</text>
</a>
</g>
</g>
<!-- Node1&#45;&gt;Node25 -->
<g id="edge30" class="edge"><title>Node1&#45;&gt;Node25</title>
<path fill="none" stroke="midnightblue" d="M553.152,-224.444C514.148,-215.083 451.537,-200.056 409.087,-189.868"/>
<polygon fill="midnightblue" stroke="midnightblue" points="409.83,-186.447 399.289,-187.516 408.196,-193.254 409.83,-186.447"/>
</g>
<!-- Node13&#45;&gt;Node3 -->
<g id="edge13" class="edge"><title>Node13&#45;&gt;Node3</title>
<path fill="none" stroke="midnightblue" d="M693.188,-171.188C633.153,-164.064 530.898,-150.811 433.843,-132.033"/>
<polygon fill="midnightblue" stroke="midnightblue" points="434.35,-128.566 423.864,-130.079 433.005,-135.435 434.35,-128.566"/>
</g>
<!-- Node13&#45;&gt;Node4 -->
<g id="edge14" class="edge"><title>Node13&#45;&gt;Node4</title>
<path fill="none" stroke="midnightblue" d="M713.747,-168.444C678.326,-158.685 620.554,-142.768 583.632,-132.596"/>
<polygon fill="midnightblue" stroke="midnightblue" points="584.377,-129.171 573.807,-129.889 582.518,-135.919 584.377,-129.171"/>
</g>
<!-- Node13&#45;&gt;Node5 -->
<g id="edge18" class="edge"><title>Node13&#45;&gt;Node5</title>
<path fill="none" stroke="midnightblue" d="M724.046,-168.444C702.487,-159.557 668.54,-145.563 644.01,-135.451"/>
<polygon fill="midnightblue" stroke="midnightblue" points="645.043,-132.092 634.464,-131.516 642.375,-138.563 645.043,-132.092"/>
</g>
<!-- Node13&#45;&gt;Node6 -->
<g id="edge16" class="edge"><title>Node13&#45;&gt;Node6</title>
<path fill="none" stroke="midnightblue" d="M744.969,-168.083C745.1,-161.006 745.288,-150.861 745.452,-141.986"/>
<polygon fill="midnightblue" stroke="midnightblue" points="748.956,-141.814 745.642,-131.751 741.957,-141.685 748.956,-141.814"/>
</g>
<!-- Node13&#45;&gt;Node7 -->
<g id="edge24" class="edge"><title>Node13&#45;&gt;Node7</title>
<path fill="none" stroke="midnightblue" d="M734.36,-168.324C724.657,-160.263 709.988,-148.077 698.304,-138.369"/>
<polygon fill="midnightblue" stroke="midnightblue" points="700.366,-135.532 690.437,-131.834 695.892,-140.916 700.366,-135.532"/>
</g>
<!-- Node14 -->
<g id="node14" class="node"><title>Node14</title>
<polygon fill="white" stroke="#bfbfbf" points="898.304,-112.5 898.304,-131.5 949.304,-131.5 949.304,-112.5 898.304,-112.5"/>
<text text-anchor="middle" x="923.804" y="-119.5" font-family="Helvetica,sans-Serif" font-size="10.00">typeinfo</text>
</g>
<!-- Node13&#45;&gt;Node14 -->
<g id="edge15" class="edge"><title>Node13&#45;&gt;Node14</title>
<path fill="none" stroke="midnightblue" d="M773.167,-168.444C804.346,-159.038 854.487,-143.911 888.265,-133.721"/>
<polygon fill="midnightblue" stroke="midnightblue" points="889.62,-136.968 898.183,-130.729 887.599,-130.266 889.62,-136.968"/>
</g>
<!-- Node15 -->
<g id="node15" class="node"><title>Node15</title>
<polygon fill="white" stroke="#bfbfbf" points="967.304,-112.5 967.304,-131.5 1014.3,-131.5 1014.3,-112.5 967.304,-112.5"/>
<text text-anchor="middle" x="990.804" y="-119.5" font-family="Helvetica,sans-Serif" font-size="10.00">math.h</text>
</g>
<!-- Node13&#45;&gt;Node15 -->
<g id="edge17" class="edge"><title>Node13&#45;&gt;Node15</title>
<path fill="none" stroke="midnightblue" d="M789.677,-168.472C830.993,-160.416 894.187,-147.585 957.359,-132.244"/>
<polygon fill="midnightblue" stroke="midnightblue" points="958.205,-135.64 967.085,-129.862 956.539,-128.841 958.205,-135.64"/>
</g>
<!-- Node16 -->
<g id="node16" class="node"><title>Node16</title>
<polygon fill="white" stroke="#bfbfbf" points="1032.8,-112.5 1032.8,-131.5 1070.8,-131.5 1070.8,-112.5 1032.8,-112.5"/>
<text text-anchor="middle" x="1051.8" y="-119.5" font-family="Helvetica,sans-Serif" font-size="10.00">array</text>
</g>
<!-- Node13&#45;&gt;Node16 -->
<g id="edge19" class="edge"><title>Node13&#45;&gt;Node16</title>
<path fill="none" stroke="midnightblue" d="M796.437,-169.105C864.557,-158.627 980.025,-140.642 1022.64,-131.816"/>
<polygon fill="midnightblue" stroke="midnightblue" points="1023.64,-135.181 1032.63,-129.584 1022.11,-128.349 1023.64,-135.181"/>
</g>
<!-- Node17 -->
<g id="node17" class="node"><title>Node17</title>
<polygon fill="white" stroke="#bfbfbf" points="1088.8,-112.5 1088.8,-131.5 1126.8,-131.5 1126.8,-112.5 1088.8,-112.5"/>
<text text-anchor="middle" x="1107.8" y="-119.5" font-family="Helvetica,sans-Serif" font-size="10.00">tuple</text>
</g>
<!-- Node13&#45;&gt;Node17 -->
<g id="edge20" class="edge"><title>Node13&#45;&gt;Node17</title>
<path fill="none" stroke="midnightblue" d="M796.38,-169.332C799.568,-168.876 802.729,-168.429 805.804,-168 924.243,-151.483 958.185,-158.504 1078.67,-131.896"/>
<polygon fill="midnightblue" stroke="midnightblue" points="1079.66,-135.261 1088.65,-129.659 1078.13,-128.431 1079.66,-135.261"/>
</g>
<!-- Node18 -->
<g id="node18" class="node"><title>Node18</title>
<polygon fill="white" stroke="#bfbfbf" points="1144.8,-112.5 1144.8,-131.5 1200.8,-131.5 1200.8,-112.5 1144.8,-112.5"/>
<text text-anchor="middle" x="1172.8" y="-119.5" font-family="Helvetica,sans-Serif" font-size="10.00">algorithm</text>
</g>
<!-- Node13&#45;&gt;Node18 -->
<g id="edge21" class="edge"><title>Node13&#45;&gt;Node18</title>
<path fill="none" stroke="midnightblue" d="M796.369,-169.252C799.56,-168.816 802.724,-168.395 805.804,-168 948.855,-149.651 988.708,-157.132 1134.39,-132.042"/>
<polygon fill="midnightblue" stroke="midnightblue" points="1135.35,-135.427 1144.6,-130.26 1134.15,-128.531 1135.35,-135.427"/>
</g>
<!-- Node19 -->
<g id="node19" class="node"><title>Node19</title>
<polygon fill="white" stroke="#bfbfbf" points="786.304,-112.5 786.304,-131.5 821.304,-131.5 821.304,-112.5 786.304,-112.5"/>
<text text-anchor="middle" x="803.804" y="-119.5" font-family="Helvetica,sans-Serif" font-size="10.00">map</text>
</g>
<!-- Node13&#45;&gt;Node19 -->
<g id="edge22" class="edge"><title>Node13&#45;&gt;Node19</title>
<path fill="none" stroke="midnightblue" d="M754.283,-168.324C763.005,-160.341 776.147,-148.313 786.701,-138.653"/>
<polygon fill="midnightblue" stroke="midnightblue" points="789.138,-141.167 794.152,-131.834 784.412,-136.004 789.138,-141.167"/>
</g>
<!-- Node20 -->
<g id="node20" class="node"><title>Node20</title>
<polygon fill="white" stroke="#bfbfbf" points="839.804,-112.5 839.804,-131.5 879.804,-131.5 879.804,-112.5 839.804,-112.5"/>
<text text-anchor="middle" x="859.804" y="-119.5" font-family="Helvetica,sans-Serif" font-size="10.00">utility</text>
</g>
<!-- Node13&#45;&gt;Node20 -->
<g id="edge23" class="edge"><title>Node13&#45;&gt;Node20</title>
<path fill="none" stroke="midnightblue" d="M763.026,-168.444C781.699,-159.675 810.96,-145.935 832.421,-135.858"/>
<polygon fill="midnightblue" stroke="midnightblue" points="834.103,-138.935 841.667,-131.516 831.127,-132.599 834.103,-138.935"/>
</g>
<!-- Node21 -->
<g id="node21" class="node"><title>Node21</title>
<g id="a_node21"><a xlink:href="Helper_8hpp.html" target="_top" xlink:title="Helper.hpp">
<polygon fill="white" stroke="black" points="441.804,-112.5 441.804,-131.5 505.804,-131.5 505.804,-112.5 441.804,-112.5"/>
<text text-anchor="middle" x="473.804" y="-119.5" font-family="Helvetica,sans-Serif" font-size="10.00">Helper.hpp</text>
</a>
</g>
</g>
<!-- Node13&#45;&gt;Node21 -->
<g id="edge25" class="edge"><title>Node13&#45;&gt;Node21</title>
<path fill="none" stroke="midnightblue" d="M699.356,-168.426C655.002,-159.987 585.352,-146.547 515.825,-132.178"/>
<polygon fill="midnightblue" stroke="midnightblue" points="516.52,-128.747 506.018,-130.144 515.099,-135.602 516.52,-128.747"/>
</g>
<!-- Node21&#45;&gt;Node2 -->
<g id="edge29" class="edge"><title>Node21&#45;&gt;Node2</title>
<path fill="none" stroke="midnightblue" d="M441.623,-113.683C438.647,-113.083 435.673,-112.512 432.804,-112 341.9,-95.7943 235.884,-82.1615 169.791,-74.2828"/>
<polygon fill="midnightblue" stroke="midnightblue" points="169.877,-70.7687 159.535,-73.0683 169.054,-77.7201 169.877,-70.7687"/>
</g>
<!-- Node22 -->
<g id="node22" class="node"><title>Node22</title>
<g id="a_node22"><a xlink:href="Camera_8hpp.html" target="_top" xlink:title="Camera.hpp">
<polygon fill="white" stroke="black" points="306.804,-56.5 306.804,-75.5 376.804,-75.5 376.804,-56.5 306.804,-56.5"/>
<text text-anchor="middle" x="341.804" y="-63.5" font-family="Helvetica,sans-Serif" font-size="10.00">Camera.hpp</text>
</a>
</g>
</g>
<!-- Node21&#45;&gt;Node22 -->
<g id="edge26" class="edge"><title>Node21&#45;&gt;Node22</title>
<path fill="none" stroke="midnightblue" d="M452.888,-112.444C431.068,-103.517 396.654,-89.4387 371.911,-79.3168"/>
<polygon fill="midnightblue" stroke="midnightblue" points="373.202,-76.0634 362.622,-75.5164 370.552,-82.5422 373.202,-76.0634"/>
</g>
<!-- Node23 -->
<g id="node23" class="node"><title>Node23</title>
<polygon fill="white" stroke="#bfbfbf" points="289.804,-0.5 289.804,-19.5 393.804,-19.5 393.804,-0.5 289.804,-0.5"/>
<text text-anchor="middle" x="341.804" y="-7.5" font-family="Helvetica,sans-Serif" font-size="10.00">librealsense2/rs.hpp</text>
</g>
<!-- Node22&#45;&gt;Node23 -->
<g id="edge27" class="edge"><title>Node22&#45;&gt;Node23</title>
<path fill="none" stroke="midnightblue" d="M341.804,-56.083C341.804,-49.0059 341.804,-38.8611 341.804,-29.9865"/>
<polygon fill="midnightblue" stroke="midnightblue" points="345.304,-29.751 341.804,-19.7511 338.304,-29.7511 345.304,-29.751"/>
</g>
<!-- Node24 -->
<g id="node24" class="node"><title>Node24</title>
<polygon fill="white" stroke="#bfbfbf" points="199.304,-0.5 199.304,-19.5 240.304,-19.5 240.304,-0.5 199.304,-0.5"/>
<text text-anchor="middle" x="219.804" y="-7.5" font-family="Helvetica,sans-Serif" font-size="10.00">string</text>
</g>
<!-- Node22&#45;&gt;Node24 -->
<g id="edge28" class="edge"><title>Node22&#45;&gt;Node24</title>
<path fill="none" stroke="midnightblue" d="M322.472,-56.4435C302.484,-47.5961 271.061,-33.6875 248.24,-23.5865"/>
<polygon fill="midnightblue" stroke="midnightblue" points="249.605,-20.3635 239.045,-19.5164 246.772,-26.7645 249.605,-20.3635"/>
</g>
<!-- Node25&#45;&gt;Node2 -->
<g id="edge31" class="edge"><title>Node25&#45;&gt;Node2</title>
<path fill="none" stroke="midnightblue" d="M307.388,-171.55C268.041,-165.91 215.355,-154.576 173.804,-132 151.491,-119.877 131.198,-98.5026 118.702,-83.5865"/>
<polygon fill="midnightblue" stroke="midnightblue" points="121.303,-81.2369 112.289,-75.6692 115.863,-85.6428 121.303,-81.2369"/>
</g>
<!-- Node25&#45;&gt;Node3 -->
<g id="edge32" class="edge"><title>Node25&#45;&gt;Node3</title>
<path fill="none" stroke="midnightblue" d="M369.253,-168.083C373.818,-160.613 380.472,-149.724 386.097,-140.52"/>
<polygon fill="midnightblue" stroke="midnightblue" points="389.228,-142.109 391.456,-131.751 383.255,-138.459 389.228,-142.109"/>
</g>
<!-- Node25&#45;&gt;Node4 -->
<g id="edge33" class="edge"><title>Node25&#45;&gt;Node4</title>
<path fill="none" stroke="midnightblue" d="M393.117,-168.444C425.944,-158.862 479.108,-143.344 514.014,-133.155"/>
<polygon fill="midnightblue" stroke="midnightblue" points="515.161,-136.466 523.78,-130.304 513.2,-129.746 515.161,-136.466"/>
</g>
<!-- Node25&#45;&gt;Node5 -->
<g id="edge34" class="edge"><title>Node25&#45;&gt;Node5</title>
<path fill="none" stroke="midnightblue" d="M411.04,-168.424C453.386,-160.482 517.396,-147.855 581.621,-132.147"/>
<polygon fill="midnightblue" stroke="midnightblue" points="582.642,-135.5 591.51,-129.703 580.963,-128.704 582.642,-135.5"/>
</g>
<!-- Node25&#45;&gt;Node7 -->
<g id="edge35" class="edge"><title>Node25&#45;&gt;Node7</title>
<path fill="none" stroke="midnightblue" d="M420.065,-169.558C474.827,-161.962 560.574,-149.135 644.318,-131.927"/>
<polygon fill="midnightblue" stroke="midnightblue" points="645.175,-135.323 654.254,-129.862 643.751,-128.47 645.175,-135.323"/>
</g>
<!-- Node25&#45;&gt;Node11 -->
<g id="edge36" class="edge"><title>Node25&#45;&gt;Node11</title>
<path fill="none" stroke="midnightblue" d="M307.7,-170.525C250.229,-163.425 158.17,-150.762 70.033,-132.05"/>
<polygon fill="midnightblue" stroke="midnightblue" points="70.6521,-128.604 60.1395,-129.92 69.1788,-135.447 70.6521,-128.604"/>
</g>
<!-- Node25&#45;&gt;Node12 -->
<g id="edge37" class="edge"><title>Node25&#45;&gt;Node12</title>
<path fill="none" stroke="midnightblue" d="M316.937,-168.461C270.743,-159.877 198.213,-145.951 135.804,-132 134.531,-131.715 133.234,-131.42 131.924,-131.116"/>
<polygon fill="midnightblue" stroke="midnightblue" points="132.388,-127.628 121.847,-128.696 130.754,-134.434 132.388,-127.628"/>
</g>
<!-- Node25&#45;&gt;Node21 -->
<g id="edge41" class="edge"><title>Node25&#45;&gt;Node21</title>
<path fill="none" stroke="midnightblue" d="M381.477,-168.324C399.198,-159.625 426.707,-146.12 447.092,-136.113"/>
<polygon fill="midnightblue" stroke="midnightblue" points="448.74,-139.203 456.174,-131.655 445.655,-132.919 448.74,-139.203"/>
</g>
<!-- Node25&#45;&gt;Node22 -->
<g id="edge40" class="edge"><title>Node25&#45;&gt;Node22</title>
<path fill="none" stroke="midnightblue" d="M362.077,-168.368C358.527,-150.617 350.337,-109.666 345.523,-85.5974"/>
<polygon fill="midnightblue" stroke="midnightblue" points="348.915,-84.7108 343.522,-75.5914 342.051,-86.0837 348.915,-84.7108"/>
</g>
<!-- Node25&#45;&gt;Node24 -->
<g id="edge38" class="edge"><title>Node25&#45;&gt;Node24</title>
<path fill="none" stroke="midnightblue" d="M309.065,-168.448C268.913,-160.926 219.304,-148.587 206.804,-132 184.004,-101.748 199.518,-54.5174 210.862,-28.9308"/>
<polygon fill="midnightblue" stroke="midnightblue" points="214.119,-30.228 215.202,-19.6886 207.783,-27.2526 214.119,-30.228"/>
</g>
<!-- Node26 -->
<g id="node26" class="node"><title>Node26</title>
<polygon fill="white" stroke="#bfbfbf" points="216.304,-112.5 216.304,-131.5 313.304,-131.5 313.304,-112.5 216.304,-112.5"/>
<text text-anchor="middle" x="264.804" y="-119.5" font-family="Helvetica,sans-Serif" font-size="10.00">gnuplot&#45;iostream.h</text>
</g>
<!-- Node25&#45;&gt;Node26 -->
<g id="edge39" class="edge"><title>Node25&#45;&gt;Node26</title>
<path fill="none" stroke="midnightblue" d="M347.898,-168.324C332.165,-159.743 307.861,-146.486 289.595,-136.522"/>
<polygon fill="midnightblue" stroke="midnightblue" points="291.125,-133.37 280.67,-131.655 287.773,-139.516 291.125,-133.37"/>
</g>
</g>
</svg>
        <g id="navigator" transform="translate(0 0)" fill="#404254">
                <rect fill="#f2f5e9" fill-opacity="0.5" stroke="#606060" stroke-width=".5" x="0" y="0" width="60" height="60"/>
                <use id="zoomplus" xlink:href="#zoomPlus" x="17" y="9" onmousedown="handleZoom(evt,'in')"/>
                <use id="zoomminus" xlink:href="#zoomMin" x="42" y="9" onmousedown="handleZoom(evt,'out')"/>
                <use id="reset" xlink:href="#resetDef" x="30" y="36" onmousedown="handleReset()"/>
                <g id="arrowUp" xlink:href="#dirArrow" transform="translate(30 24)" onmousedown="handlePan(0,-1)">
                  <use xlink:href="#rim" fill="#404040">
                        <set attributeName="fill" to="#808080" begin="arrowUp.mouseover" end="arrowUp.mouseout"/>
                  </use>
                  <path fill="none" stroke="white" stroke-width="1.5" d="M0,-3.0v7 M-2.5,-0.5L0,-3.0L2.5,-0.5"/>
                </g>
                <g id="arrowRight" xlink:href="#dirArrow" transform="rotate(90) translate(36 -43)" onmousedown="handlePan(1,0)">
                  <use xlink:href="#rim" fill="#404040">
                        <set attributeName="fill" to="#808080" begin="arrowRight.mouseover" end="arrowRight.mouseout"/>
                  </use>
                  <path fill="none" stroke="white" stroke-width="1.5" d="M0,-3.0v7 M-2.5,-0.5L0,-3.0L2.5,-0.5"/>
                </g>
                <g id="arrowDown" xlink:href="#dirArrow" transform="rotate(180) translate(-30 -48)" onmousedown="handlePan(0,1)">
                  <use xlink:href="#rim" fill="#404040">
                        <set attributeName="fill" to="#808080" begin="arrowDown.mouseover" end="arrowDown.mouseout"/>
                  </use>
                  <path fill="none" stroke="white" stroke-width="1.5" d="M0,-3.0v7 M-2.5,-0.5L0,-3.0L2.5,-0.5"/>
                </g>
                <g id="arrowLeft" xlink:href="#dirArrow" transform="rotate(270) translate(-36 17)" onmousedown="handlePan(-1,0)">
                  <use xlink:href="#rim" fill="#404040">
                        <set attributeName="fill" to="#808080" begin="arrowLeft.mouseover" end="arrowLeft.mouseout"/>
                  </use>
                  <path fill="none" stroke="white" stroke-width="1.5" d="M0,-3.0v7 M-2.5,-0.5L0,-3.0L2.5,-0.5"/>
                </g>
        </g>
        <svg viewBox="0 0 15 15" width="100%" height="30px" preserveAspectRatio="xMaxYMin meet">
         <g id="arrow_out" transform="scale(0.3 0.3)">
          <a xlink:href="CPU__main_8cpp__incl_org.svg" target="_base">
           <rect id="button" ry="5" rx="5" y="6" x="6" height="38" width="38"
                fill="#f2f5e9" fill-opacity="0.5" stroke="#606060" stroke-width="1.0"/>
           <path id="arrow"
             d="M 11.500037,31.436501 C 11.940474,20.09759 22.043105,11.32322 32.158766,21.979434 L 37.068811,17.246167 C 37.068811,17.246167 37.088388,32 37.088388,32 L 22.160133,31.978069 C 22.160133,31.978069 26.997745,27.140456 26.997745,27.140456 C 18.528582,18.264221 13.291696,25.230495 11.500037,31.436501 z"
             style="fill:#404040;"/>
          </a>
         </g>
        </svg>
</svg>
