<?xml version="1.0" encoding="UTF-8" standalone="no"?>
<!DOCTYPE svg PUBLIC "-//W3C//DTD SVG 1.1//EN"
 "http://www.w3.org/Graphics/SVG/1.1/DTD/svg11.dtd">
<!-- Generated by graphviz version 2.38.0 (20140413.2041)
 -->
<!-- Title: main Pages: 1 -->
<svg width="425pt" height="199pt"
 viewBox="0.00 0.00 425.00 199.00" xmlns="http://www.w3.org/2000/svg" xmlns:xlink="http://www.w3.org/1999/xlink">
<g id="graph0" class="graph" transform="scale(1 1) rotate(0) translate(4 195)">
<title>main</title>
<polygon fill="white" stroke="none" points="-4,4 -4,-195 421,-195 421,4 -4,4"/>
<!-- Node1 -->
<g id="node1" class="node"><title>Node1</title>
<polygon fill="#bfbfbf" stroke="black" points="0,-95.5 0,-114.5 38,-114.5 38,-95.5 0,-95.5"/>
<text text-anchor="middle" x="19" y="-102.5" font-family="Helvetica,sans-Serif" font-size="10.00">main</text>
</g>
<!-- Node2 -->
<g id="node2" class="node"><title>Node2</title>
<g id="a_node2"><a xlink:href="classCamera.html#a7f09b843d9b3a97e78eefcebbc53e054" target="_top" xlink:title="Initialize and start camera streams. ">
<polygon fill="white" stroke="black" points="84,-171.5 84,-190.5 155,-190.5 155,-171.5 84,-171.5"/>
<text text-anchor="middle" x="119.5" y="-178.5" font-family="Helvetica,sans-Serif" font-size="10.00">Camera::Init</text>
</a>
</g>
</g>
<!-- Node1&#45;&gt;Node2 -->
<g id="edge1" class="edge"><title>Node1&#45;&gt;Node2</title>
<path fill="none" stroke="midnightblue" d="M27.0795,-114.628C36.5813,-126.988 54.5315,-148.452 74,-162 76.5383,-163.766 79.2667,-165.418 82.0781,-166.95"/>
<polygon fill="midnightblue" stroke="midnightblue" points="80.691,-170.168 91.2095,-171.438 83.7785,-163.886 80.691,-170.168"/>
</g>
<!-- Node3 -->
<g id="node3" class="node"><title>Node3</title>
<g id="a_node3"><a xlink:href="classLogger.html#a42c282f4c0e2c6557d16e2967c1ddf7e" target="_top" xlink:title="Initializes Logger. ">
<polygon fill="white" stroke="black" points="87,-133.5 87,-152.5 152,-152.5 152,-133.5 87,-133.5"/>
<text text-anchor="middle" x="119.5" y="-140.5" font-family="Helvetica,sans-Serif" font-size="10.00">Logger::Init</text>
</a>
</g>
</g>
<!-- Node1&#45;&gt;Node3 -->
<g id="edge2" class="edge"><title>Node1&#45;&gt;Node3</title>
<path fill="none" stroke="midnightblue" d="M38.0664,-111.97C51.0366,-116.974 68.9085,-123.868 84.5123,-129.888"/>
<polygon fill="midnightblue" stroke="midnightblue" points="83.281,-133.164 93.8706,-133.498 85.8006,-126.634 83.281,-133.164"/>
</g>
<!-- Node4 -->
<g id="node4" class="node"><title>Node4</title>
<g id="a_node4"><a xlink:href="classMap__FE.html#a901af5011ef87bfd1dac3e568ef29c47" target="_top" xlink:title="Method to update global map. ">
<polygon fill="white" stroke="black" points="74,-95.5 74,-114.5 165,-114.5 165,-95.5 74,-95.5"/>
<text text-anchor="middle" x="119.5" y="-102.5" font-family="Helvetica,sans-Serif" font-size="10.00">Map_FE::Update</text>
</a>
</g>
</g>
<!-- Node1&#45;&gt;Node4 -->
<g id="edge3" class="edge"><title>Node1&#45;&gt;Node4</title>
<path fill="none" stroke="midnightblue" d="M38.0664,-105C45.4896,-105 54.5184,-105 63.8086,-105"/>
<polygon fill="midnightblue" stroke="midnightblue" points="63.9286,-108.5 73.9285,-105 63.9285,-101.5 63.9286,-108.5"/>
</g>
<!-- Node5 -->
<g id="node5" class="node"><title>Node5</title>
<g id="a_node5"><a xlink:href="classLogger.html#adcc95257ff2edceded8e272dac3603ce" target="_top" xlink:title="Real&#45;time logging method. ">
<polygon fill="white" stroke="black" points="85.5,-57.5 85.5,-76.5 153.5,-76.5 153.5,-57.5 85.5,-57.5"/>
<text text-anchor="middle" x="119.5" y="-64.5" font-family="Helvetica,sans-Serif" font-size="10.00">Logger::Log</text>
</a>
</g>
</g>
<!-- Node1&#45;&gt;Node5 -->
<g id="edge4" class="edge"><title>Node1&#45;&gt;Node5</title>
<path fill="none" stroke="midnightblue" d="M38.0664,-98.0302C51.0366,-93.0265 68.9085,-86.1318 84.5123,-80.112"/>
<polygon fill="midnightblue" stroke="midnightblue" points="85.8006,-83.3665 93.8706,-76.5017 83.281,-76.8356 85.8006,-83.3665"/>
</g>
<!-- Node6 -->
<g id="node6" class="node"><title>Node6</title>
<g id="a_node6"><a xlink:href="classLogger.html#a6b670ceb54a249eb83da08a1914d2be8" target="_top" xlink:title="Closes the lgging operation. ">
<polygon fill="white" stroke="black" points="81,-19.5 81,-38.5 158,-38.5 158,-19.5 81,-19.5"/>
<text text-anchor="middle" x="119.5" y="-26.5" font-family="Helvetica,sans-Serif" font-size="10.00">Logger::Close</text>
</a>
</g>
</g>
<!-- Node1&#45;&gt;Node6 -->
<g id="edge5" class="edge"><title>Node1&#45;&gt;Node6</title>
<path fill="none" stroke="midnightblue" d="M27.0795,-95.3721C36.5813,-83.012 54.5315,-61.5484 74,-48 76.5383,-46.2336 79.2667,-44.5823 82.0781,-43.0496"/>
<polygon fill="midnightblue" stroke="midnightblue" points="83.7785,-46.1138 91.2095,-38.5619 80.691,-39.8315 83.7785,-46.1138"/>
</g>
<!-- Node7 -->
<g id="node7" class="node"><title>Node7</title>
<g id="a_node7"><a xlink:href="classMap__FE.html#aedfee41631a7287c9eb377ccb05317d6" target="_top" xlink:title="Returns all points in the map. ">
<polygon fill="white" stroke="black" points="326.5,-38.5 326.5,-57.5 413.5,-57.5 413.5,-38.5 326.5,-38.5"/>
<text text-anchor="middle" x="370" y="-45.5" font-family="Helvetica,sans-Serif" font-size="10.00">Map_FE::Points</text>
</a>
</g>
</g>
<!-- Node6&#45;&gt;Node7 -->
<g id="edge6" class="edge"><title>Node6&#45;&gt;Node7</title>
<path fill="none" stroke="midnightblue" d="M158.242,-31.8857C200.364,-35.1063 268.82,-40.3404 316.232,-43.9654"/>
<polygon fill="midnightblue" stroke="midnightblue" points="316.072,-47.4633 326.31,-44.736 316.606,-40.4837 316.072,-47.4633"/>
</g>
<!-- Node8 -->
<g id="node8" class="node"><title>Node8</title>
<g id="a_node8"><a xlink:href="classLogger.html#ac58fee4bd66a5359deb29a86948d584d" target="_top" xlink:title="Constructs a grid representation of the map. ">
<polygon fill="white" stroke="black" points="201,-0.5 201,-19.5 287,-19.5 287,-0.5 201,-0.5"/>
<text text-anchor="middle" x="244" y="-7.5" font-family="Helvetica,sans-Serif" font-size="10.00">Logger::obj_grid</text>
</a>
</g>
</g>
<!-- Node6&#45;&gt;Node8 -->
<g id="edge7" class="edge"><title>Node6&#45;&gt;Node8</title>
<path fill="none" stroke="midnightblue" d="M158.254,-23.1443C168.588,-21.5415 179.973,-19.7755 190.955,-18.0722"/>
<polygon fill="midnightblue" stroke="midnightblue" points="191.54,-21.5235 200.885,-16.5321 190.467,-14.6062 191.54,-21.5235"/>
</g>
<!-- Node8&#45;&gt;Node7 -->
<g id="edge8" class="edge"><title>Node8&#45;&gt;Node7</title>
<path fill="none" stroke="midnightblue" d="M276.29,-19.589C292.004,-24.4044 311.238,-30.2988 328.106,-35.468"/>
<polygon fill="midnightblue" stroke="midnightblue" points="327.133,-38.8304 337.72,-38.4141 329.184,-32.1376 327.133,-38.8304"/>
</g>
<!-- Node9 -->
<g id="node9" class="node"><title>Node9</title>
<g id="a_node9"><a xlink:href="classLogger.html#a38c5de03e0de7deffd7b516b13f826ff" target="_top" xlink:title="Recursively constructs a voxel wireframe. ">
<polygon fill="white" stroke="black" points="323,-0.5 323,-19.5 417,-19.5 417,-0.5 323,-0.5"/>
<text text-anchor="middle" x="370" y="-7.5" font-family="Helvetica,sans-Serif" font-size="10.00">Logger::point_grid</text>
</a>
</g>
</g>
<!-- Node8&#45;&gt;Node9 -->
<g id="edge9" class="edge"><title>Node8&#45;&gt;Node9</title>
<path fill="none" stroke="midnightblue" d="M287.327,-10C295.407,-10 303.985,-10 312.428,-10"/>
<polygon fill="midnightblue" stroke="midnightblue" points="312.616,-13.5001 322.616,-10 312.616,-6.5001 312.616,-13.5001"/>
</g>
</g>
</svg>
