<?xml version="1.0" encoding="UTF-8" standalone="no"?>
<!DOCTYPE svg PUBLIC "-//W3C//DTD SVG 1.1//EN"
 "http://www.w3.org/Graphics/SVG/1.1/DTD/svg11.dtd">
<!-- Generated by graphviz version 2.38.0 (20140413.2041)
 -->
<!-- Title: include/Helper.hpp Pages: 1 -->
<svg width="266pt" height="140pt"
 viewBox="0.00 0.00 265.50 140.00" xmlns="http://www.w3.org/2000/svg" xmlns:xlink="http://www.w3.org/1999/xlink">
<g id="graph0" class="graph" transform="scale(1 1) rotate(0) translate(4 136)">
<title>include/Helper.hpp</title>
<polygon fill="white" stroke="none" points="-4,4 -4,-136 261.5,-136 261.5,4 -4,4"/>
<!-- Node1 -->
<g id="node1" class="node"><title>Node1</title>
<polygon fill="#bfbfbf" stroke="black" points="101,-112.5 101,-131.5 199,-131.5 199,-112.5 101,-112.5"/>
<text text-anchor="middle" x="150" y="-119.5" font-family="Helvetica,sans-Serif" font-size="10.00">include/Helper.hpp</text>
</g>
<!-- Node2 -->
<g id="node2" class="node"><title>Node2</title>
<g id="a_node2"><a xlink:href="Camera_8hpp.html" target="_top" xlink:title="Camera.hpp">
<polygon fill="white" stroke="black" points="62,-56.5 62,-75.5 132,-75.5 132,-56.5 62,-56.5"/>
<text text-anchor="middle" x="97" y="-63.5" font-family="Helvetica,sans-Serif" font-size="10.00">Camera.hpp</text>
</a>
</g>
</g>
<!-- Node1&#45;&gt;Node2 -->
<g id="edge1" class="edge"><title>Node1&#45;&gt;Node2</title>
<path fill="none" stroke="midnightblue" d="M141.248,-112.083C133.53,-104.22 122.095,-92.5688 112.783,-83.0813"/>
<polygon fill="midnightblue" stroke="midnightblue" points="115.092,-80.4363 105.589,-75.7511 110.096,-85.3396 115.092,-80.4363"/>
</g>
<!-- Node5 -->
<g id="node5" class="node"><title>Node5</title>
<polygon fill="white" stroke="#bfbfbf" points="150.5,-56.5 150.5,-75.5 257.5,-75.5 257.5,-56.5 150.5,-56.5"/>
<text text-anchor="middle" x="204" y="-63.5" font-family="Helvetica,sans-Serif" font-size="10.00">opencv2/opencv.hpp</text>
</g>
<!-- Node1&#45;&gt;Node5 -->
<g id="edge4" class="edge"><title>Node1&#45;&gt;Node5</title>
<path fill="none" stroke="midnightblue" d="M158.917,-112.083C166.78,-104.22 178.431,-92.5688 187.919,-83.0813"/>
<polygon fill="midnightblue" stroke="midnightblue" points="190.653,-85.2971 195.249,-75.7511 185.703,-80.3473 190.653,-85.2971"/>
</g>
<!-- Node3 -->
<g id="node3" class="node"><title>Node3</title>
<polygon fill="white" stroke="#bfbfbf" points="0,-0.5 0,-19.5 104,-19.5 104,-0.5 0,-0.5"/>
<text text-anchor="middle" x="52" y="-7.5" font-family="Helvetica,sans-Serif" font-size="10.00">librealsense2/rs.hpp</text>
</g>
<!-- Node2&#45;&gt;Node3 -->
<g id="edge2" class="edge"><title>Node2&#45;&gt;Node3</title>
<path fill="none" stroke="midnightblue" d="M89.5692,-56.083C83.1473,-48.3768 73.6944,-37.0333 65.8775,-27.6531"/>
<polygon fill="midnightblue" stroke="midnightblue" points="68.3832,-25.1927 59.2926,-19.7511 63.0057,-29.674 68.3832,-25.1927"/>
</g>
<!-- Node4 -->
<g id="node4" class="node"><title>Node4</title>
<polygon fill="white" stroke="#bfbfbf" points="122.5,-0.5 122.5,-19.5 163.5,-19.5 163.5,-0.5 122.5,-0.5"/>
<text text-anchor="middle" x="143" y="-7.5" font-family="Helvetica,sans-Serif" font-size="10.00">string</text>
</g>
<!-- Node2&#45;&gt;Node4 -->
<g id="edge3" class="edge"><title>Node2&#45;&gt;Node4</title>
<path fill="none" stroke="midnightblue" d="M104.596,-56.083C111.227,-48.2982 121.021,-36.8015 129.058,-27.3665"/>
<polygon fill="midnightblue" stroke="midnightblue" points="131.725,-29.6332 135.545,-19.7511 126.396,-25.0939 131.725,-29.6332"/>
</g>
</g>
</svg>
