<?xml version="1.0" encoding="UTF-8" standalone="no"?>
<!DOCTYPE svg PUBLIC "-//W3C//DTD SVG 1.1//EN"
 "http://www.w3.org/Graphics/SVG/1.1/DTD/svg11.dtd">
<!-- Generated by graphviz version 2.38.0 (20140413.2041)
 -->
<!-- Title: include/Helper.hpp Pages: 1 -->
<svg width="339pt" height="140pt"
 viewBox="0.00 0.00 339.00 140.00" xmlns="http://www.w3.org/2000/svg" xmlns:xlink="http://www.w3.org/1999/xlink">
<g id="graph0" class="graph" transform="scale(1 1) rotate(0) translate(4 136)">
<title>include/Helper.hpp</title>
<polygon fill="white" stroke="none" points="-4,4 -4,-136 335,-136 335,4 -4,4"/>
<!-- Node1 -->
<g id="node1" class="node"><title>Node1</title>
<polygon fill="#bfbfbf" stroke="black" points="118,-112.5 118,-131.5 216,-131.5 216,-112.5 118,-112.5"/>
<text text-anchor="middle" x="167" y="-119.5" font-family="Helvetica,sans-Serif" font-size="10.00">include/Helper.hpp</text>
</g>
<!-- Node2 -->
<g id="node2" class="node"><title>Node2</title>
<g id="a_node2"><a xlink:href="Voxel_8hpp.html" target="_top" xlink:title="include/Voxel.hpp">
<polygon fill="white" stroke="black" points="3,-56.5 3,-75.5 97,-75.5 97,-56.5 3,-56.5"/>
<text text-anchor="middle" x="50" y="-63.5" font-family="Helvetica,sans-Serif" font-size="10.00">include/Voxel.hpp</text>
</a>
</g>
</g>
<!-- Node1&#45;&gt;Node2 -->
<g id="edge1" class="edge"><title>Node1&#45;&gt;Node2</title>
<path fill="none" stroke="midnightblue" d="M139.336,-108.232C117.451,-98.1312 87.5032,-84.3091 68.4523,-75.5164"/>
<polygon fill="midnightblue" stroke="midnightblue" points="137.915,-111.431 148.461,-112.444 140.848,-105.075 137.915,-111.431"/>
</g>
<!-- Node4 -->
<g id="node4" class="node"><title>Node4</title>
<g id="a_node4"><a xlink:href="Logging_8hpp.html" target="_top" xlink:title="include/Logging.hpp">
<polygon fill="white" stroke="black" points="115.5,-56.5 115.5,-75.5 218.5,-75.5 218.5,-56.5 115.5,-56.5"/>
<text text-anchor="middle" x="167" y="-63.5" font-family="Helvetica,sans-Serif" font-size="10.00">include/Logging.hpp</text>
</a>
</g>
</g>
<!-- Node1&#45;&gt;Node4 -->
<g id="edge3" class="edge"><title>Node1&#45;&gt;Node4</title>
<path fill="none" stroke="midnightblue" d="M167,-101.805C167,-92.9102 167,-82.7798 167,-75.7511"/>
<polygon fill="midnightblue" stroke="midnightblue" points="163.5,-102.083 167,-112.083 170.5,-102.083 163.5,-102.083"/>
</g>
<!-- Node6 -->
<g id="node6" class="node"><title>Node6</title>
<g id="a_node6"><a xlink:href="Voxel_8cuh.html" target="_top" xlink:title="include/Voxel.cuh">
<polygon fill="white" stroke="black" points="237,-56.5 237,-75.5 331,-75.5 331,-56.5 237,-56.5"/>
<text text-anchor="middle" x="284" y="-63.5" font-family="Helvetica,sans-Serif" font-size="10.00">include/Voxel.cuh</text>
</a>
</g>
</g>
<!-- Node1&#45;&gt;Node6 -->
<g id="edge6" class="edge"><title>Node1&#45;&gt;Node6</title>
<path fill="none" stroke="midnightblue" d="M194.664,-108.232C216.549,-98.1312 246.497,-84.3091 265.548,-75.5164"/>
<polygon fill="midnightblue" stroke="midnightblue" points="193.152,-105.075 185.539,-112.444 196.085,-111.431 193.152,-105.075"/>
</g>
<!-- Node3 -->
<g id="node3" class="node"><title>Node3</title>
<g id="a_node3"><a xlink:href="CPU__main_8cpp.html" target="_top" xlink:title="src/CPU_main.cpp">
<polygon fill="white" stroke="black" points="0,-0.5 0,-19.5 100,-19.5 100,-0.5 0,-0.5"/>
<text text-anchor="middle" x="50" y="-7.5" font-family="Helvetica,sans-Serif" font-size="10.00">src/CPU_main.cpp</text>
</a>
</g>
</g>
<!-- Node2&#45;&gt;Node3 -->
<g id="edge2" class="edge"><title>Node2&#45;&gt;Node3</title>
<path fill="none" stroke="midnightblue" d="M50,-45.8045C50,-36.9102 50,-26.7798 50,-19.7511"/>
<polygon fill="midnightblue" stroke="midnightblue" points="46.5001,-46.083 50,-56.083 53.5001,-46.083 46.5001,-46.083"/>
</g>
<!-- Node4&#45;&gt;Node3 -->
<g id="edge4" class="edge"><title>Node4&#45;&gt;Node3</title>
<path fill="none" stroke="midnightblue" d="M139.336,-52.2321C117.451,-42.1312 87.5032,-28.3091 68.4523,-19.5164"/>
<polygon fill="midnightblue" stroke="midnightblue" points="137.915,-55.4308 148.461,-56.4435 140.848,-49.075 137.915,-55.4308"/>
</g>
<!-- Node5 -->
<g id="node5" class="node"><title>Node5</title>
<g id="a_node5"><a xlink:href="GPU__main_8cu.html" target="_top" xlink:title="src/GPU_main.cu">
<polygon fill="white" stroke="black" points="177.5,-0.5 177.5,-19.5 272.5,-19.5 272.5,-0.5 177.5,-0.5"/>
<text text-anchor="middle" x="225" y="-7.5" font-family="Helvetica,sans-Serif" font-size="10.00">src/GPU_main.cu</text>
</a>
</g>
</g>
<!-- Node4&#45;&gt;Node5 -->
<g id="edge5" class="edge"><title>Node4&#45;&gt;Node5</title>
<path fill="none" stroke="midnightblue" d="M183.913,-49.2533C194.203,-39.6731 206.966,-27.7906 215.512,-19.8339"/>
<polygon fill="midnightblue" stroke="midnightblue" points="181.253,-46.9481 176.319,-56.324 186.023,-52.0714 181.253,-46.9481"/>
</g>
<!-- Node6&#45;&gt;Node5 -->
<g id="edge7" class="edge"><title>Node6&#45;&gt;Node5</title>
<path fill="none" stroke="midnightblue" d="M267.105,-49.5372C256.585,-39.9087 243.431,-27.8694 234.652,-19.8339"/>
<polygon fill="midnightblue" stroke="midnightblue" points="264.781,-52.1542 274.521,-56.324 269.507,-46.9905 264.781,-52.1542"/>
</g>
</g>
</svg>
