<?xml version="1.0" encoding="UTF-8" standalone="no"?>
<!DOCTYPE svg PUBLIC "-//W3C//DTD SVG 1.1//EN"
 "http://www.w3.org/Graphics/SVG/1.1/DTD/svg11.dtd">
<!-- Generated by graphviz version 2.38.0 (20140413.2041)
 -->
<!-- Title: Graphical Class Hierarchy Pages: 1 -->
<svg width="153pt" height="66pt"
 viewBox="0.00 0.00 153.00 66.00" xmlns="http://www.w3.org/2000/svg" xmlns:xlink="http://www.w3.org/1999/xlink">
<g id="graph0" class="graph" transform="scale(1 1) rotate(0) translate(4 62)">
<title>Graphical Class Hierarchy</title>
<polygon fill="white" stroke="none" points="-4,4 -4,-62 149,-62 149,4 -4,4"/>
<!-- Node1 -->
<g id="node1" class="node"><title>Node1</title>
<g id="a_node1"><a xlink:href="classMap__FE.html" target="_top" xlink:title="Virtual class Parent of CPU_FE and GPU_FE classes. ">
<polygon fill="white" stroke="black" points="0,-19.5 0,-38.5 53,-38.5 53,-19.5 0,-19.5"/>
<text text-anchor="middle" x="26.5" y="-26.5" font-family="Helvetica,sans-Serif" font-size="10.00">Map_FE</text>
</a>
</g>
</g>
<!-- Node2 -->
<g id="node2" class="node"><title>Node2</title>
<g id="a_node2"><a xlink:href="classCPU__FE.html" target="_top" xlink:title="Wrapper class for occ_grid. ">
<polygon fill="white" stroke="black" points="89,-38.5 89,-57.5 145,-57.5 145,-38.5 89,-38.5"/>
<text text-anchor="middle" x="117" y="-45.5" font-family="Helvetica,sans-Serif" font-size="10.00">CPU_FE</text>
</a>
</g>
</g>
<!-- Node1&#45;&gt;Node2 -->
<g id="edge1" class="edge"><title>Node1&#45;&gt;Node2</title>
<path fill="none" stroke="midnightblue" d="M62.9559,-36.612C71.6077,-38.4694 80.7268,-40.4272 88.9172,-42.1856"/>
<polygon fill="midnightblue" stroke="midnightblue" points="63.6098,-33.1727 53.0979,-34.4956 62.1404,-40.0168 63.6098,-33.1727"/>
</g>
<!-- Node3 -->
<g id="node3" class="node"><title>Node3</title>
<g id="a_node3"><a xlink:href="classGPU__FE.html" target="_top" xlink:title="Wrapper class for occ_grid. ">
<polygon fill="white" stroke="black" points="89,-0.5 89,-19.5 145,-19.5 145,-0.5 89,-0.5"/>
<text text-anchor="middle" x="117" y="-7.5" font-family="Helvetica,sans-Serif" font-size="10.00">GPU_FE</text>
</a>
</g>
</g>
<!-- Node1&#45;&gt;Node3 -->
<g id="edge2" class="edge"><title>Node1&#45;&gt;Node3</title>
<path fill="none" stroke="midnightblue" d="M62.9559,-21.388C71.6077,-19.5306 80.7268,-17.5728 88.9172,-15.8144"/>
<polygon fill="midnightblue" stroke="midnightblue" points="62.1404,-17.9832 53.0979,-23.5044 63.6098,-24.8273 62.1404,-17.9832"/>
</g>
</g>
</svg>
