<?xml version="1.0" encoding="UTF-8" standalone="no"?>
<!DOCTYPE svg PUBLIC "-//W3C//DTD SVG 1.1//EN"
 "http://www.w3.org/Graphics/SVG/1.1/DTD/svg11.dtd">
<!-- Generated by graphviz version 2.38.0 (20140413.2041)
 -->
<!-- Title: include/Logging.hpp Pages: 1 -->
<!--zoomable 196 -->
<svg id="main" version="1.1" xmlns="http://www.w3.org/2000/svg" xmlns:xlink="http://www.w3.org/1999/xlink" xml:space="preserve" onload="init(evt)">
<style type="text/css"><![CDATA[
.edge:hover path { stroke: red; }
.edge:hover polygon { stroke: red; fill: red; }
]]></style>
<script type="text/javascript"><![CDATA[
var edges = document.getElementsByTagName('g');
if (edges && edges.length) {
  for (var i=0;i<edges.length;i++) {
    if (edges[i].id.substr(0,4)=='edge') {
      edges[i].setAttribute('class','edge');
    }
  }
}
]]></script>
        <defs>
                <circle id="rim" cx="0" cy="0" r="7"/>
                <circle id="rim2" cx="0" cy="0" r="3.5"/>
                <g id="zoomPlus">
                        <use xlink:href="#rim" fill="#404040">
                                <set attributeName="fill" to="#808080" begin="zoomplus.mouseover" end="zoomplus.mouseout"/>
                        </use>
                        <path d="M-4,0h8M0,-4v8" fill="none" stroke="white" stroke-width="1.5" pointer-events="none"/>
                </g>
                <g id="zoomMin">
                        <use xlink:href="#rim" fill="#404040">
                                <set attributeName="fill" to="#808080" begin="zoomminus.mouseover" end="zoomminus.mouseout"/>
                        </use>
                        <path d="M-4,0h8" fill="none" stroke="white" stroke-width="1.5" pointer-events="none"/>
                </g>
                <g id="dirArrow">
                        <path fill="none" stroke="white" stroke-width="1.5" d="M0,-3.0v7 M-2.5,-0.5L0,-3.0L2.5,-0.5"/>
                </g>
               <g id="resetDef">
                       <use xlink:href="#rim2" fill="#404040">
                               <set attributeName="fill" to="#808080" begin="reset.mouseover" end="reset.mouseout"/>
                       </use>
               </g>
        </defs>

<script type="text/javascript">
var viewWidth = 691;
var viewHeight = 196;
var sectionId = 'dynsection-0';
</script>
<script xlink:href="svgpan.js"/>
<svg id="graph" class="graph">
<g id="viewport">
<title>include/Logging.hpp</title>
<polygon fill="white" stroke="none" points="-4,4 -4,-192 687.296,-192 687.296,4 -4,4"/>
<!-- Node1 -->
<g id="node1" class="node"><title>Node1</title>
<polygon fill="#bfbfbf" stroke="black" points="262.296,-168.5 262.296,-187.5 365.296,-187.5 365.296,-168.5 262.296,-168.5"/>
<text text-anchor="middle" x="313.796" y="-175.5" font-family="Helvetica,sans-Serif" font-size="10.00">include/Logging.hpp</text>
</g>
<!-- Node2 -->
<g id="node2" class="node"><title>Node2</title>
<polygon fill="white" stroke="#bfbfbf" points="166.296,-56.5 166.296,-75.5 273.296,-75.5 273.296,-56.5 166.296,-56.5"/>
<text text-anchor="middle" x="219.796" y="-63.5" font-family="Helvetica,sans-Serif" font-size="10.00">opencv2/opencv.hpp</text>
</g>
<!-- Node1&#45;&gt;Node2 -->
<g id="edge1" class="edge"><title>Node1&#45;&gt;Node2</title>
<path fill="none" stroke="midnightblue" d="M262.155,-177.134C184.104,-176.113 41.7752,-169.061 9.79597,-132 -33.6912,-81.6017 79.5618,-69.7054 156.16,-67.2414"/>
<polygon fill="midnightblue" stroke="midnightblue" points="156.339,-70.7379 166.238,-66.9639 156.146,-63.7406 156.339,-70.7379"/>
</g>
<!-- Node3 -->
<g id="node3" class="node"><title>Node3</title>
<polygon fill="white" stroke="#bfbfbf" points="18.796,-112.5 18.796,-131.5 72.796,-131.5 72.796,-112.5 18.796,-112.5"/>
<text text-anchor="middle" x="45.796" y="-119.5" font-family="Helvetica,sans-Serif" font-size="10.00">iostream</text>
</g>
<!-- Node1&#45;&gt;Node3 -->
<g id="edge2" class="edge"><title>Node1&#45;&gt;Node3</title>
<path fill="none" stroke="midnightblue" d="M265.654,-168.437C220.828,-160.29 151.919,-147.325 83.0447,-132.186"/>
<polygon fill="midnightblue" stroke="midnightblue" points="83.4063,-128.682 72.8861,-129.937 81.8931,-135.516 83.4063,-128.682"/>
</g>
<!-- Node4 -->
<g id="node4" class="node"><title>Node4</title>
<polygon fill="white" stroke="#bfbfbf" points="90.796,-112.5 90.796,-131.5 140.796,-131.5 140.796,-112.5 90.796,-112.5"/>
<text text-anchor="middle" x="115.796" y="-119.5" font-family="Helvetica,sans-Serif" font-size="10.00">fstream</text>
</g>
<!-- Node1&#45;&gt;Node4 -->
<g id="edge3" class="edge"><title>Node1&#45;&gt;Node4</title>
<path fill="none" stroke="midnightblue" d="M282.422,-168.444C246.64,-158.685 188.279,-142.768 150.98,-132.596"/>
<polygon fill="midnightblue" stroke="midnightblue" points="151.623,-129.143 141.054,-129.889 149.781,-135.897 151.623,-129.143"/>
</g>
<!-- Node5 -->
<g id="node5" class="node"><title>Node5</title>
<polygon fill="white" stroke="#bfbfbf" points="158.796,-112.5 158.796,-131.5 202.796,-131.5 202.796,-112.5 158.796,-112.5"/>
<text text-anchor="middle" x="180.796" y="-119.5" font-family="Helvetica,sans-Serif" font-size="10.00">vector</text>
</g>
<!-- Node1&#45;&gt;Node5 -->
<g id="edge4" class="edge"><title>Node1&#45;&gt;Node5</title>
<path fill="none" stroke="midnightblue" d="M292.722,-168.444C270.736,-159.517 236.062,-145.439 211.132,-135.317"/>
<polygon fill="midnightblue" stroke="midnightblue" points="212.354,-132.035 201.772,-131.516 209.72,-138.521 212.354,-132.035"/>
</g>
<!-- Node6 -->
<g id="node6" class="node"><title>Node6</title>
<polygon fill="white" stroke="#bfbfbf" points="221.296,-112.5 221.296,-131.5 272.296,-131.5 272.296,-112.5 221.296,-112.5"/>
<text text-anchor="middle" x="246.796" y="-119.5" font-family="Helvetica,sans-Serif" font-size="10.00">unistd.h</text>
</g>
<!-- Node1&#45;&gt;Node6 -->
<g id="edge5" class="edge"><title>Node1&#45;&gt;Node6</title>
<path fill="none" stroke="midnightblue" d="M303.031,-168.324C293.03,-160.263 277.909,-148.077 265.865,-138.369"/>
<polygon fill="midnightblue" stroke="midnightblue" points="267.739,-135.384 257.757,-131.834 263.346,-140.834 267.739,-135.384"/>
</g>
<!-- Node7 -->
<g id="node7" class="node"><title>Node7</title>
<polygon fill="white" stroke="#bfbfbf" points="290.796,-112.5 290.796,-131.5 336.796,-131.5 336.796,-112.5 290.796,-112.5"/>
<text text-anchor="middle" x="313.796" y="-119.5" font-family="Helvetica,sans-Serif" font-size="10.00">chrono</text>
</g>
<!-- Node1&#45;&gt;Node7 -->
<g id="edge6" class="edge"><title>Node1&#45;&gt;Node7</title>
<path fill="none" stroke="midnightblue" d="M313.796,-168.083C313.796,-161.006 313.796,-150.861 313.796,-141.986"/>
<polygon fill="midnightblue" stroke="midnightblue" points="317.296,-141.751 313.796,-131.751 310.296,-141.751 317.296,-141.751"/>
</g>
<!-- Node8 -->
<g id="node8" class="node"><title>Node8</title>
<polygon fill="white" stroke="#bfbfbf" points="354.796,-112.5 354.796,-131.5 398.796,-131.5 398.796,-112.5 354.796,-112.5"/>
<text text-anchor="middle" x="376.796" y="-119.5" font-family="Helvetica,sans-Serif" font-size="10.00">time.h</text>
</g>
<!-- Node1&#45;&gt;Node8 -->
<g id="edge7" class="edge"><title>Node1&#45;&gt;Node8</title>
<path fill="none" stroke="midnightblue" d="M323.918,-168.324C333.322,-160.263 347.54,-148.077 358.865,-138.369"/>
<polygon fill="midnightblue" stroke="midnightblue" points="361.175,-140.999 366.49,-131.834 356.619,-135.684 361.175,-140.999"/>
</g>
<!-- Node9 -->
<g id="node9" class="node"><title>Node9</title>
<polygon fill="white" stroke="#bfbfbf" points="642.296,-0.5 642.296,-19.5 683.296,-19.5 683.296,-0.5 642.296,-0.5"/>
<text text-anchor="middle" x="662.796" y="-7.5" font-family="Helvetica,sans-Serif" font-size="10.00">string</text>
</g>
<!-- Node1&#45;&gt;Node9 -->
<g id="edge8" class="edge"><title>Node1&#45;&gt;Node9</title>
<path fill="none" stroke="midnightblue" d="M365.379,-175.83C442.741,-173.045 583.805,-163.649 621.796,-132 652.513,-106.41 660.3,-56.8692 662.219,-29.7915"/>
<polygon fill="midnightblue" stroke="midnightblue" points="665.72,-29.8622 662.732,-19.6974 658.729,-29.5069 665.72,-29.8622"/>
</g>
<!-- Node10 -->
<g id="node10" class="node"><title>Node10</title>
<polygon fill="white" stroke="#bfbfbf" points="499.296,-112.5 499.296,-131.5 596.296,-131.5 596.296,-112.5 499.296,-112.5"/>
<text text-anchor="middle" x="547.796" y="-119.5" font-family="Helvetica,sans-Serif" font-size="10.00">gnuplot&#45;iostream.h</text>
</g>
<!-- Node1&#45;&gt;Node10 -->
<g id="edge9" class="edge"><title>Node1&#45;&gt;Node10</title>
<path fill="none" stroke="midnightblue" d="M350.874,-168.444C391.524,-159.063 456.828,-143.993 500.98,-133.804"/>
<polygon fill="midnightblue" stroke="midnightblue" points="501.935,-137.175 510.891,-131.516 500.36,-130.355 501.935,-137.175"/>
</g>
<!-- Node11 -->
<g id="node11" class="node"><title>Node11</title>
<g id="a_node11"><a xlink:href="Camera_8hpp.html" target="_top" xlink:title="Camera.hpp">
<polygon fill="white" stroke="black" points="550.796,-56.5 550.796,-75.5 620.796,-75.5 620.796,-56.5 550.796,-56.5"/>
<text text-anchor="middle" x="585.796" y="-63.5" font-family="Helvetica,sans-Serif" font-size="10.00">Camera.hpp</text>
</a>
</g>
</g>
<!-- Node1&#45;&gt;Node11 -->
<g id="edge10" class="edge"><title>Node1&#45;&gt;Node11</title>
<path fill="none" stroke="midnightblue" d="M365.404,-176.741C440.58,-175.142 574.56,-167.271 604.796,-132 616.345,-118.527 607.671,-98.3457 598.606,-84.0499"/>
<polygon fill="midnightblue" stroke="midnightblue" points="601.36,-81.879 592.8,-75.6352 595.598,-85.854 601.36,-81.879"/>
</g>
<!-- Node13 -->
<g id="node13" class="node"><title>Node13</title>
<g id="a_node13"><a xlink:href="Helper_8hpp.html" target="_top" xlink:title="Helper.hpp">
<polygon fill="white" stroke="black" points="416.796,-112.5 416.796,-131.5 480.796,-131.5 480.796,-112.5 416.796,-112.5"/>
<text text-anchor="middle" x="448.796" y="-119.5" font-family="Helvetica,sans-Serif" font-size="10.00">Helper.hpp</text>
</a>
</g>
</g>
<!-- Node1&#45;&gt;Node13 -->
<g id="edge13" class="edge"><title>Node1&#45;&gt;Node13</title>
<path fill="none" stroke="midnightblue" d="M335.187,-168.444C357.503,-159.517 392.699,-145.439 418.004,-135.317"/>
<polygon fill="midnightblue" stroke="midnightblue" points="419.52,-138.48 427.505,-131.516 416.92,-131.981 419.52,-138.48"/>
</g>
<!-- Node11&#45;&gt;Node9 -->
<g id="edge12" class="edge"><title>Node11&#45;&gt;Node9</title>
<path fill="none" stroke="midnightblue" d="M598.167,-56.324C609.954,-48.0577 627.928,-35.4527 641.931,-25.6322"/>
<polygon fill="midnightblue" stroke="midnightblue" points="644.278,-28.2619 650.455,-19.6545 640.258,-22.5307 644.278,-28.2619"/>
</g>
<!-- Node12 -->
<g id="node12" class="node"><title>Node12</title>
<polygon fill="white" stroke="#bfbfbf" points="519.796,-0.5 519.796,-19.5 623.796,-19.5 623.796,-0.5 519.796,-0.5"/>
<text text-anchor="middle" x="571.796" y="-7.5" font-family="Helvetica,sans-Serif" font-size="10.00">librealsense2/rs.hpp</text>
</g>
<!-- Node11&#45;&gt;Node12 -->
<g id="edge11" class="edge"><title>Node11&#45;&gt;Node12</title>
<path fill="none" stroke="midnightblue" d="M583.484,-56.083C581.629,-48.9272 578.961,-38.6353 576.642,-29.6911"/>
<polygon fill="midnightblue" stroke="midnightblue" points="579.962,-28.5527 574.065,-19.7511 573.186,-30.3094 579.962,-28.5527"/>
</g>
<!-- Node13&#45;&gt;Node2 -->
<g id="edge15" class="edge"><title>Node13&#45;&gt;Node2</title>
<path fill="none" stroke="midnightblue" d="M416.472,-113.378C377.157,-104.107 310.523,-88.3942 265.85,-77.8599"/>
<polygon fill="midnightblue" stroke="midnightblue" points="266.649,-74.4523 256.112,-75.5637 265.042,-81.2655 266.649,-74.4523"/>
</g>
<!-- Node13&#45;&gt;Node11 -->
<g id="edge14" class="edge"><title>Node13&#45;&gt;Node11</title>
<path fill="none" stroke="midnightblue" d="M470.504,-112.444C493.151,-103.517 528.868,-89.4387 554.548,-79.3168"/>
<polygon fill="midnightblue" stroke="midnightblue" points="556.17,-82.4397 564.189,-75.5164 553.603,-75.9273 556.17,-82.4397"/>
</g>
</g>
</svg>
        <g id="navigator" transform="translate(0 0)" fill="#404254">
                <rect fill="#f2f5e9" fill-opacity="0.5" stroke="#606060" stroke-width=".5" x="0" y="0" width="60" height="60"/>
                <use id="zoomplus" xlink:href="#zoomPlus" x="17" y="9" onmousedown="handleZoom(evt,'in')"/>
                <use id="zoomminus" xlink:href="#zoomMin" x="42" y="9" onmousedown="handleZoom(evt,'out')"/>
                <use id="reset" xlink:href="#resetDef" x="30" y="36" onmousedown="handleReset()"/>
                <g id="arrowUp" xlink:href="#dirArrow" transform="translate(30 24)" onmousedown="handlePan(0,-1)">
                  <use xlink:href="#rim" fill="#404040">
                        <set attributeName="fill" to="#808080" begin="arrowUp.mouseover" end="arrowUp.mouseout"/>
                  </use>
                  <path fill="none" stroke="white" stroke-width="1.5" d="M0,-3.0v7 M-2.5,-0.5L0,-3.0L2.5,-0.5"/>
                </g>
                <g id="arrowRight" xlink:href="#dirArrow" transform="rotate(90) translate(36 -43)" onmousedown="handlePan(1,0)">
                  <use xlink:href="#rim" fill="#404040">
                        <set attributeName="fill" to="#808080" begin="arrowRight.mouseover" end="arrowRight.mouseout"/>
                  </use>
                  <path fill="none" stroke="white" stroke-width="1.5" d="M0,-3.0v7 M-2.5,-0.5L0,-3.0L2.5,-0.5"/>
                </g>
                <g id="arrowDown" xlink:href="#dirArrow" transform="rotate(180) translate(-30 -48)" onmousedown="handlePan(0,1)">
                  <use xlink:href="#rim" fill="#404040">
                        <set attributeName="fill" to="#808080" begin="arrowDown.mouseover" end="arrowDown.mouseout"/>
                  </use>
                  <path fill="none" stroke="white" stroke-width="1.5" d="M0,-3.0v7 M-2.5,-0.5L0,-3.0L2.5,-0.5"/>
                </g>
                <g id="arrowLeft" xlink:href="#dirArrow" transform="rotate(270) translate(-36 17)" onmousedown="handlePan(-1,0)">
                  <use xlink:href="#rim" fill="#404040">
                        <set attributeName="fill" to="#808080" begin="arrowLeft.mouseover" end="arrowLeft.mouseout"/>
                  </use>
                  <path fill="none" stroke="white" stroke-width="1.5" d="M0,-3.0v7 M-2.5,-0.5L0,-3.0L2.5,-0.5"/>
                </g>
        </g>
        <svg viewBox="0 0 15 15" width="100%" height="30px" preserveAspectRatio="xMaxYMin meet">
         <g id="arrow_out" transform="scale(0.3 0.3)">
          <a xlink:href="Logging_8hpp__incl_org.svg" target="_base">
           <rect id="button" ry="5" rx="5" y="6" x="6" height="38" width="38"
                fill="#f2f5e9" fill-opacity="0.5" stroke="#606060" stroke-width="1.0"/>
           <path id="arrow"
             d="M 11.500037,31.436501 C 11.940474,20.09759 22.043105,11.32322 32.158766,21.979434 L 37.068811,17.246167 C 37.068811,17.246167 37.088388,32 37.088388,32 L 22.160133,31.978069 C 22.160133,31.978069 26.997745,27.140456 26.997745,27.140456 C 18.528582,18.264221 13.291696,25.230495 11.500037,31.436501 z"
             style="fill:#404040;"/>
          </a>
         </g>
        </svg>
</svg>
