<?xml version="1.0" encoding="UTF-8" standalone="no"?>
<!DOCTYPE svg PUBLIC "-//W3C//DTD SVG 1.1//EN"
 "http://www.w3.org/Graphics/SVG/1.1/DTD/svg11.dtd">
<!-- Generated by graphviz version 2.38.0 (20140413.2041)
 -->
<!-- Title: Cam Pages: 1 -->
<svg width="70pt" height="106pt"
 viewBox="0.00 0.00 70.00 106.00" xmlns="http://www.w3.org/2000/svg" xmlns:xlink="http://www.w3.org/1999/xlink">
<g id="graph0" class="graph" transform="scale(1 1) rotate(0) translate(4 102)">
<title>Cam</title>
<polygon fill="white" stroke="none" points="-4,4 -4,-102 66,-102 66,4 -4,4"/>
<!-- Node1 -->
<g id="node1" class="node"><title>Node1</title>
<polygon fill="#bfbfbf" stroke="black" points="12,-0.5 12,-19.5 50,-19.5 50,-0.5 12,-0.5"/>
<text text-anchor="middle" x="31" y="-7.5" font-family="Helvetica,sans-Serif" font-size="10.00">Cam</text>
</g>
<!-- Node2 -->
<g id="node2" class="node"><title>Node2</title>
<g id="a_node2"><a xlink:href="classquaternion.html" target="_top" xlink:title="A basic Quaternion class. ">
<polygon fill="white" stroke="black" points="-3.55271e-15,-78.5 -3.55271e-15,-97.5 62,-97.5 62,-78.5 -3.55271e-15,-78.5"/>
<text text-anchor="middle" x="31" y="-85.5" font-family="Helvetica,sans-Serif" font-size="10.00">quaternion</text>
</a>
</g>
</g>
<!-- Node2&#45;&gt;Node1 -->
<g id="edge1" class="edge"><title>Node2&#45;&gt;Node1</title>
<path fill="none" stroke="#9a32cd" stroke-dasharray="5,2" d="M31,-68.2239C31,-52.6974 31,-31.3582 31,-19.6165"/>
<polygon fill="#9a32cd" stroke="#9a32cd" points="27.5001,-68.2818 31,-78.2818 34.5001,-68.2819 27.5001,-68.2818"/>
<text text-anchor="middle" x="45" y="-52" font-family="Helvetica,sans-Serif" font-size="10.00"> T_TD</text>
<text text-anchor="middle" x="45" y="-41" font-family="Helvetica,sans-Serif" font-size="10.00">Q_TD</text>
</g>
</g>
</svg>
