<?xml version="1.0" encoding="UTF-8" standalone="no"?>
<!DOCTYPE svg PUBLIC "-//W3C//DTD SVG 1.1//EN"
 "http://www.w3.org/Graphics/SVG/1.1/DTD/svg11.dtd">
<!-- Generated by graphviz version 2.38.0 (20140413.2041)
 -->
<!-- Title: include/Voxel.cuh Pages: 1 -->
<svg width="1602pt" height="196pt"
 viewBox="0.00 0.00 1601.50 196.00" xmlns="http://www.w3.org/2000/svg" xmlns:xlink="http://www.w3.org/1999/xlink">
<g id="graph0" class="graph" transform="scale(1 1) rotate(0) translate(4 192)">
<title>include/Voxel.cuh</title>
<polygon fill="white" stroke="none" points="-4,4 -4,-192 1597.5,-192 1597.5,4 -4,4"/>
<!-- Node1 -->
<g id="node1" class="node"><title>Node1</title>
<polygon fill="#bfbfbf" stroke="black" points="593,-168.5 593,-187.5 687,-187.5 687,-168.5 593,-168.5"/>
<text text-anchor="middle" x="640" y="-175.5" font-family="Helvetica,sans-Serif" font-size="10.00">include/Voxel.cuh</text>
</g>
<!-- Node2 -->
<g id="node2" class="node"><title>Node2</title>
<polygon fill="white" stroke="#bfbfbf" points="0,-112.5 0,-131.5 46,-131.5 46,-112.5 0,-112.5"/>
<text text-anchor="middle" x="23" y="-119.5" font-family="Helvetica,sans-Serif" font-size="10.00">cuda.h</text>
</g>
<!-- Node1&#45;&gt;Node2 -->
<g id="edge1" class="edge"><title>Node1&#45;&gt;Node2</title>
<path fill="none" stroke="midnightblue" d="M592.97,-176.52C494.718,-174.842 260.545,-167.323 56.3052,-131.889"/>
<polygon fill="midnightblue" stroke="midnightblue" points="56.7511,-128.414 46.2954,-130.126 55.5365,-135.308 56.7511,-128.414"/>
</g>
<!-- Node3 -->
<g id="node3" class="node"><title>Node3</title>
<polygon fill="white" stroke="#bfbfbf" points="64.5,-112.5 64.5,-131.5 147.5,-131.5 147.5,-112.5 64.5,-112.5"/>
<text text-anchor="middle" x="106" y="-119.5" font-family="Helvetica,sans-Serif" font-size="10.00">cuda_runtime.h</text>
</g>
<!-- Node1&#45;&gt;Node3 -->
<g id="edge2" class="edge"><title>Node1&#45;&gt;Node3</title>
<path fill="none" stroke="midnightblue" d="M592.89,-173.896C508.096,-168.03 323.963,-154.018 158.098,-132.037"/>
<polygon fill="midnightblue" stroke="midnightblue" points="158.081,-128.504 147.705,-130.646 157.152,-135.442 158.081,-128.504"/>
</g>
<!-- Node4 -->
<g id="node4" class="node"><title>Node4</title>
<polygon fill="white" stroke="#bfbfbf" points="166,-112.5 166,-131.5 264,-131.5 264,-112.5 166,-112.5"/>
<text text-anchor="middle" x="215" y="-119.5" font-family="Helvetica,sans-Serif" font-size="10.00">cuda_profiler_api.h</text>
</g>
<!-- Node1&#45;&gt;Node4 -->
<g id="edge3" class="edge"><title>Node1&#45;&gt;Node4</title>
<path fill="none" stroke="midnightblue" d="M592.721,-171.692C524.681,-163.945 394.95,-148.773 274.193,-132.128"/>
<polygon fill="midnightblue" stroke="midnightblue" points="274.417,-128.626 264.032,-130.721 273.457,-135.56 274.417,-128.626"/>
</g>
<!-- Node5 -->
<g id="node5" class="node"><title>Node5</title>
<polygon fill="white" stroke="#bfbfbf" points="282,-112.5 282,-131.5 336,-131.5 336,-112.5 282,-112.5"/>
<text text-anchor="middle" x="309" y="-119.5" font-family="Helvetica,sans-Serif" font-size="10.00">iostream</text>
</g>
<!-- Node1&#45;&gt;Node5 -->
<g id="edge4" class="edge"><title>Node1&#45;&gt;Node5</title>
<path fill="none" stroke="midnightblue" d="M592.757,-171.18C536.3,-163.918 438.809,-150.406 345.909,-132.025"/>
<polygon fill="midnightblue" stroke="midnightblue" points="346.558,-128.585 336.065,-130.055 345.184,-135.449 346.558,-128.585"/>
</g>
<!-- Node6 -->
<g id="node6" class="node"><title>Node6</title>
<polygon fill="white" stroke="#bfbfbf" points="354,-112.5 354,-131.5 404,-131.5 404,-112.5 354,-112.5"/>
<text text-anchor="middle" x="379" y="-119.5" font-family="Helvetica,sans-Serif" font-size="10.00">fstream</text>
</g>
<!-- Node1&#45;&gt;Node6 -->
<g id="edge5" class="edge"><title>Node1&#45;&gt;Node6</title>
<path fill="none" stroke="midnightblue" d="M593.094,-168.441C547.273,-159.897 475.629,-146.048 414,-132 413.901,-131.977 413.801,-131.955 413.701,-131.932"/>
<polygon fill="midnightblue" stroke="midnightblue" points="414.735,-128.58 404.195,-129.656 413.105,-135.388 414.735,-128.58"/>
</g>
<!-- Node7 -->
<g id="node7" class="node"><title>Node7</title>
<polygon fill="white" stroke="#bfbfbf" points="422.5,-112.5 422.5,-131.5 473.5,-131.5 473.5,-112.5 422.5,-112.5"/>
<text text-anchor="middle" x="448" y="-119.5" font-family="Helvetica,sans-Serif" font-size="10.00">typeinfo</text>
</g>
<!-- Node1&#45;&gt;Node7 -->
<g id="edge6" class="edge"><title>Node1&#45;&gt;Node7</title>
<path fill="none" stroke="midnightblue" d="M609.577,-168.444C575.265,-158.793 519.545,-143.122 483.334,-132.938"/>
<polygon fill="midnightblue" stroke="midnightblue" points="484.246,-129.559 473.672,-130.22 482.351,-136.297 484.246,-129.559"/>
</g>
<!-- Node8 -->
<g id="node8" class="node"><title>Node8</title>
<polygon fill="white" stroke="#bfbfbf" points="492,-112.5 492,-131.5 536,-131.5 536,-112.5 492,-112.5"/>
<text text-anchor="middle" x="514" y="-119.5" font-family="Helvetica,sans-Serif" font-size="10.00">cmath</text>
</g>
<!-- Node1&#45;&gt;Node8 -->
<g id="edge7" class="edge"><title>Node1&#45;&gt;Node8</title>
<path fill="none" stroke="midnightblue" d="M620.035,-168.444C599.391,-159.596 566.937,-145.687 543.368,-135.586"/>
<polygon fill="midnightblue" stroke="midnightblue" points="544.442,-132.239 533.872,-131.516 541.684,-138.673 544.442,-132.239"/>
</g>
<!-- Node9 -->
<g id="node9" class="node"><title>Node9</title>
<polygon fill="white" stroke="#bfbfbf" points="554.5,-112.5 554.5,-131.5 601.5,-131.5 601.5,-112.5 554.5,-112.5"/>
<text text-anchor="middle" x="578" y="-119.5" font-family="Helvetica,sans-Serif" font-size="10.00">math.h</text>
</g>
<!-- Node1&#45;&gt;Node9 -->
<g id="edge8" class="edge"><title>Node1&#45;&gt;Node9</title>
<path fill="none" stroke="midnightblue" d="M630.039,-168.324C620.873,-160.341 607.063,-148.313 595.972,-138.653"/>
<polygon fill="midnightblue" stroke="midnightblue" points="597.982,-135.762 588.143,-131.834 593.385,-141.041 597.982,-135.762"/>
</g>
<!-- Node10 -->
<g id="node10" class="node"><title>Node10</title>
<polygon fill="white" stroke="#bfbfbf" points="620,-112.5 620,-131.5 660,-131.5 660,-112.5 620,-112.5"/>
<text text-anchor="middle" x="640" y="-119.5" font-family="Helvetica,sans-Serif" font-size="10.00">utility</text>
</g>
<!-- Node1&#45;&gt;Node10 -->
<g id="edge9" class="edge"><title>Node1&#45;&gt;Node10</title>
<path fill="none" stroke="midnightblue" d="M640,-168.083C640,-161.006 640,-150.861 640,-141.986"/>
<polygon fill="midnightblue" stroke="midnightblue" points="643.5,-141.751 640,-131.751 636.5,-141.751 643.5,-141.751"/>
</g>
<!-- Node11 -->
<g id="node11" class="node"><title>Node11</title>
<polygon fill="white" stroke="#bfbfbf" points="678.5,-112.5 678.5,-131.5 729.5,-131.5 729.5,-112.5 678.5,-112.5"/>
<text text-anchor="middle" x="704" y="-119.5" font-family="Helvetica,sans-Serif" font-size="10.00">unistd.h</text>
</g>
<!-- Node1&#45;&gt;Node11 -->
<g id="edge10" class="edge"><title>Node1&#45;&gt;Node11</title>
<path fill="none" stroke="midnightblue" d="M650.283,-168.324C659.836,-160.263 674.28,-148.077 685.784,-138.369"/>
<polygon fill="midnightblue" stroke="midnightblue" points="688.144,-140.958 693.53,-131.834 683.63,-135.608 688.144,-140.958"/>
</g>
<!-- Node12 -->
<g id="node12" class="node"><title>Node12</title>
<polygon fill="white" stroke="#bfbfbf" points="748,-112.5 748,-131.5 822,-131.5 822,-112.5 748,-112.5"/>
<text text-anchor="middle" x="785" y="-119.5" font-family="Helvetica,sans-Serif" font-size="10.00">thrust/tuple.h</text>
</g>
<!-- Node1&#45;&gt;Node12 -->
<g id="edge11" class="edge"><title>Node1&#45;&gt;Node12</title>
<path fill="none" stroke="midnightblue" d="M662.976,-168.444C687.157,-159.438 725.418,-145.189 752.646,-135.049"/>
<polygon fill="midnightblue" stroke="midnightblue" points="753.982,-138.286 762.132,-131.516 751.539,-131.727 753.982,-138.286"/>
</g>
<!-- Node13 -->
<g id="node13" class="node"><title>Node13</title>
<polygon fill="white" stroke="#bfbfbf" points="840,-112.5 840,-131.5 944,-131.5 944,-112.5 840,-112.5"/>
<text text-anchor="middle" x="892" y="-119.5" font-family="Helvetica,sans-Serif" font-size="10.00">thrust/host_vector.h</text>
</g>
<!-- Node1&#45;&gt;Node13 -->
<g id="edge12" class="edge"><title>Node1&#45;&gt;Node13</title>
<path fill="none" stroke="midnightblue" d="M679.93,-168.444C723.891,-159.023 794.627,-143.866 842.183,-133.675"/>
<polygon fill="midnightblue" stroke="midnightblue" points="843.212,-137.034 852.257,-131.516 841.745,-130.189 843.212,-137.034"/>
</g>
<!-- Node14 -->
<g id="node14" class="node"><title>Node14</title>
<polygon fill="white" stroke="#bfbfbf" points="962.5,-112.5 962.5,-131.5 1075.5,-131.5 1075.5,-112.5 962.5,-112.5"/>
<text text-anchor="middle" x="1019" y="-119.5" font-family="Helvetica,sans-Serif" font-size="10.00">thrust/device_vector.h</text>
</g>
<!-- Node1&#45;&gt;Node14 -->
<g id="edge13" class="edge"><title>Node1&#45;&gt;Node14</title>
<path fill="none" stroke="midnightblue" d="M687.234,-170.27C753.986,-160.759 876.24,-143.34 952.248,-132.511"/>
<polygon fill="midnightblue" stroke="midnightblue" points="952.79,-135.969 962.197,-131.093 951.803,-129.039 952.79,-135.969"/>
</g>
<!-- Node15 -->
<g id="node15" class="node"><title>Node15</title>
<polygon fill="white" stroke="#bfbfbf" points="1093.5,-112.5 1093.5,-131.5 1218.5,-131.5 1218.5,-112.5 1093.5,-112.5"/>
<text text-anchor="middle" x="1156" y="-119.5" font-family="Helvetica,sans-Serif" font-size="10.00">thrust/execution_policy.h</text>
</g>
<!-- Node1&#45;&gt;Node15 -->
<g id="edge14" class="edge"><title>Node1&#45;&gt;Node15</title>
<path fill="none" stroke="midnightblue" d="M687.135,-172.629C766.585,-165.175 932.478,-149.239 1082.94,-132.212"/>
<polygon fill="midnightblue" stroke="midnightblue" points="1083.75,-135.643 1093.29,-131.036 1082.96,-128.688 1083.75,-135.643"/>
</g>
<!-- Node16 -->
<g id="node16" class="node"><title>Node16</title>
<polygon fill="white" stroke="#bfbfbf" points="1236.5,-112.5 1236.5,-131.5 1305.5,-131.5 1305.5,-112.5 1236.5,-112.5"/>
<text text-anchor="middle" x="1271" y="-119.5" font-family="Helvetica,sans-Serif" font-size="10.00">thrust/sort.h</text>
</g>
<!-- Node1&#45;&gt;Node16 -->
<g id="edge15" class="edge"><title>Node1&#45;&gt;Node16</title>
<path fill="none" stroke="midnightblue" d="M687.101,-175.473C785.536,-171.834 1020.34,-160.814 1226.24,-132.085"/>
<polygon fill="midnightblue" stroke="midnightblue" points="1226.92,-135.524 1236.33,-130.659 1225.94,-128.592 1226.92,-135.524"/>
</g>
<!-- Node17 -->
<g id="node17" class="node"><title>Node17</title>
<polygon fill="white" stroke="#bfbfbf" points="1323.5,-112.5 1323.5,-131.5 1436.5,-131.5 1436.5,-112.5 1323.5,-112.5"/>
<text text-anchor="middle" x="1380" y="-119.5" font-family="Helvetica,sans-Serif" font-size="10.00">thrust/binary_search.h</text>
</g>
<!-- Node1&#45;&gt;Node17 -->
<g id="edge16" class="edge"><title>Node1&#45;&gt;Node17</title>
<path fill="none" stroke="midnightblue" d="M687.152,-175.011C795.767,-170.179 1072.17,-156.467 1313.3,-132.11"/>
<polygon fill="midnightblue" stroke="midnightblue" points="1313.71,-135.586 1323.31,-131.091 1313.01,-128.622 1313.71,-135.586"/>
</g>
<!-- Node18 -->
<g id="node18" class="node"><title>Node18</title>
<g id="a_node18"><a xlink:href="Helper_8hpp.html" target="_top" xlink:title="Helper.hpp">
<polygon fill="white" stroke="black" points="1455,-112.5 1455,-131.5 1519,-131.5 1519,-112.5 1455,-112.5"/>
<text text-anchor="middle" x="1487" y="-119.5" font-family="Helvetica,sans-Serif" font-size="10.00">Helper.hpp</text>
</a>
</g>
</g>
<!-- Node1&#45;&gt;Node18 -->
<g id="edge17" class="edge"><title>Node1&#45;&gt;Node18</title>
<path fill="none" stroke="midnightblue" d="M687.04,-177C810.12,-176.44 1151.82,-171.288 1444.89,-131.921"/>
<polygon fill="midnightblue" stroke="midnightblue" points="1445.42,-135.381 1454.86,-130.566 1444.48,-128.445 1445.42,-135.381"/>
</g>
<!-- Node19 -->
<g id="node19" class="node"><title>Node19</title>
<g id="a_node19"><a xlink:href="Camera_8hpp.html" target="_top" xlink:title="Camera.hpp">
<polygon fill="white" stroke="black" points="1398,-56.5 1398,-75.5 1468,-75.5 1468,-56.5 1398,-56.5"/>
<text text-anchor="middle" x="1433" y="-63.5" font-family="Helvetica,sans-Serif" font-size="10.00">Camera.hpp</text>
</a>
</g>
</g>
<!-- Node18&#45;&gt;Node19 -->
<g id="edge18" class="edge"><title>Node18&#45;&gt;Node19</title>
<path fill="none" stroke="midnightblue" d="M1478.08,-112.083C1470.22,-104.22 1458.57,-92.5688 1449.08,-83.0813"/>
<polygon fill="midnightblue" stroke="midnightblue" points="1451.3,-80.3473 1441.75,-75.7511 1446.35,-85.2971 1451.3,-80.3473"/>
</g>
<!-- Node22 -->
<g id="node22" class="node"><title>Node22</title>
<polygon fill="white" stroke="#bfbfbf" points="1486.5,-56.5 1486.5,-75.5 1593.5,-75.5 1593.5,-56.5 1486.5,-56.5"/>
<text text-anchor="middle" x="1540" y="-63.5" font-family="Helvetica,sans-Serif" font-size="10.00">opencv2/opencv.hpp</text>
</g>
<!-- Node18&#45;&gt;Node22 -->
<g id="edge21" class="edge"><title>Node18&#45;&gt;Node22</title>
<path fill="none" stroke="midnightblue" d="M1495.75,-112.083C1503.47,-104.22 1514.9,-92.5688 1524.22,-83.0813"/>
<polygon fill="midnightblue" stroke="midnightblue" points="1526.9,-85.3396 1531.41,-75.7511 1521.91,-80.4363 1526.9,-85.3396"/>
</g>
<!-- Node20 -->
<g id="node20" class="node"><title>Node20</title>
<polygon fill="white" stroke="#bfbfbf" points="1336,-0.5 1336,-19.5 1440,-19.5 1440,-0.5 1336,-0.5"/>
<text text-anchor="middle" x="1388" y="-7.5" font-family="Helvetica,sans-Serif" font-size="10.00">librealsense2/rs.hpp</text>
</g>
<!-- Node19&#45;&gt;Node20 -->
<g id="edge19" class="edge"><title>Node19&#45;&gt;Node20</title>
<path fill="none" stroke="midnightblue" d="M1425.57,-56.083C1419.15,-48.3768 1409.69,-37.0333 1401.88,-27.6531"/>
<polygon fill="midnightblue" stroke="midnightblue" points="1404.38,-25.1927 1395.29,-19.7511 1399.01,-29.674 1404.38,-25.1927"/>
</g>
<!-- Node21 -->
<g id="node21" class="node"><title>Node21</title>
<polygon fill="white" stroke="#bfbfbf" points="1458.5,-0.5 1458.5,-19.5 1499.5,-19.5 1499.5,-0.5 1458.5,-0.5"/>
<text text-anchor="middle" x="1479" y="-7.5" font-family="Helvetica,sans-Serif" font-size="10.00">string</text>
</g>
<!-- Node19&#45;&gt;Node21 -->
<g id="edge20" class="edge"><title>Node19&#45;&gt;Node21</title>
<path fill="none" stroke="midnightblue" d="M1440.6,-56.083C1447.23,-48.2982 1457.02,-36.8015 1465.06,-27.3665"/>
<polygon fill="midnightblue" stroke="midnightblue" points="1467.73,-29.6332 1471.55,-19.7511 1462.4,-25.0939 1467.73,-29.6332"/>
</g>
</g>
</svg>
