<?xml version="1.0" encoding="UTF-8" standalone="no"?>
<!DOCTYPE svg PUBLIC "-//W3C//DTD SVG 1.1//EN"
 "http://www.w3.org/Graphics/SVG/1.1/DTD/svg11.dtd">
<!-- Generated by graphviz version 2.38.0 (20140413.2041)
 -->
<!-- Title: gpuAssert Pages: 1 -->
<svg width="388pt" height="28pt"
 viewBox="0.00 0.00 388.00 28.00" xmlns="http://www.w3.org/2000/svg" xmlns:xlink="http://www.w3.org/1999/xlink">
<g id="graph0" class="graph" transform="scale(1 1) rotate(0) translate(4 24)">
<title>gpuAssert</title>
<polygon fill="white" stroke="none" points="-4,4 -4,-24 384,-24 384,4 -4,4"/>
<!-- Node1 -->
<g id="node1" class="node"><title>Node1</title>
<polygon fill="#bfbfbf" stroke="black" points="0,-0.5 0,-19.5 61,-19.5 61,-0.5 0,-0.5"/>
<text text-anchor="middle" x="30.5" y="-7.5" font-family="Helvetica,sans-Serif" font-size="10.00">gpuAssert</text>
</g>
<!-- Node2 -->
<g id="node2" class="node"><title>Node2</title>
<g id="a_node2"><a xlink:href="Voxel_8cuh.html#aa881629585a7719857d28b2cbf1e1257" target="_top" xlink:title="Method to print out errors in CUDA kernel execution. ">
<polygon fill="white" stroke="black" points="97,-0.5 97,-19.5 250,-19.5 250,-0.5 97,-0.5"/>
<text text-anchor="middle" x="173.5" y="-7.5" font-family="Helvetica,sans-Serif" font-size="10.00">gpuCheckKernelExecutionError</text>
</a>
</g>
</g>
<!-- Node1&#45;&gt;Node2 -->
<g id="edge1" class="edge"><title>Node1&#45;&gt;Node2</title>
<path fill="none" stroke="midnightblue" d="M71.2051,-10C79.2512,-10 87.9634,-10 96.785,-10"/>
<polygon fill="midnightblue" stroke="midnightblue" points="71.0583,-6.5001 61.0582,-10 71.0582,-13.5001 71.0583,-6.5001"/>
</g>
<!-- Node3 -->
<g id="node3" class="node"><title>Node3</title>
<g id="a_node3"><a xlink:href="classGPU__FE.html#aa9039bd613961d4e0911b8514ed14fba" target="_top" xlink:title="Updates the measurement data in the global map. ">
<polygon fill="white" stroke="black" points="286,-0.5 286,-19.5 380,-19.5 380,-0.5 286,-0.5"/>
<text text-anchor="middle" x="333" y="-7.5" font-family="Helvetica,sans-Serif" font-size="10.00">GPU_FE::Update</text>
</a>
</g>
</g>
<!-- Node2&#45;&gt;Node3 -->
<g id="edge2" class="edge"><title>Node2&#45;&gt;Node3</title>
<path fill="none" stroke="midnightblue" d="M260.278,-10C268.992,-10 277.59,-10 285.641,-10"/>
<polygon fill="midnightblue" stroke="midnightblue" points="260.021,-6.5001 250.021,-10 260.021,-13.5001 260.021,-6.5001"/>
</g>
</g>
</svg>
