<?xml version="1.0" encoding="UTF-8" standalone="no"?>
<!DOCTYPE svg PUBLIC "-//W3C//DTD SVG 1.1//EN"
 "http://www.w3.org/Graphics/SVG/1.1/DTD/svg11.dtd">
<!-- Generated by graphviz version 2.38.0 (20140413.2041)
 -->
<!-- Title: Update_root Pages: 1 -->
<svg width="359pt" height="202pt"
 viewBox="0.00 0.00 359.00 201.97" xmlns="http://www.w3.org/2000/svg" xmlns:xlink="http://www.w3.org/1999/xlink">
<g id="graph0" class="graph" transform="scale(1 1) rotate(0) translate(4 197.973)">
<title>Update_root</title>
<polygon fill="white" stroke="none" points="-4,4 -4,-197.973 355,-197.973 355,4 -4,4"/>
<!-- Node1 -->
<g id="node1" class="node"><title>Node1</title>
<polygon fill="#bfbfbf" stroke="black" points="0,-95.5 0,-114.5 70,-114.5 70,-95.5 0,-95.5"/>
<text text-anchor="middle" x="35" y="-102.5" font-family="Helvetica,sans-Serif" font-size="10.00">Update_root</text>
</g>
<!-- Node2 -->
<g id="node2" class="node"><title>Node2</title>
<g id="a_node2"><a xlink:href="classquaternion.html#a01adb7930c2003b777cb91a7182c482e" target="_top" xlink:title="Constructor taking x, y, z, w in order. ">
<polygon fill="white" stroke="black" points="238,-161.5 238,-180.5 351,-180.5 351,-161.5 238,-161.5"/>
<text text-anchor="middle" x="294.5" y="-168.5" font-family="Helvetica,sans-Serif" font-size="10.00">quaternion::quaternion</text>
</a>
</g>
</g>
<!-- Node1&#45;&gt;Node2 -->
<g id="edge1" class="edge"><title>Node1&#45;&gt;Node2</title>
<path fill="none" stroke="midnightblue" d="M41.178,-114.55C51.0998,-131.707 74.6218,-167.241 106,-181 153.65,-201.894 214.766,-192.847 254.035,-183.073"/>
<polygon fill="midnightblue" stroke="midnightblue" points="254.984,-186.442 263.771,-180.523 253.21,-179.671 254.984,-186.442"/>
</g>
<!-- Node3 -->
<g id="node3" class="node"><title>Node3</title>
<g id="a_node3"><a xlink:href="classquaternion.html#a5f2dff4e0f446d05e826a63d5a45d230" target="_top" xlink:title="Inverse of the quaternion. ">
<polygon fill="white" stroke="black" points="114,-152.5 114,-171.5 194,-171.5 194,-152.5 114,-152.5"/>
<text text-anchor="middle" x="154" y="-159.5" font-family="Helvetica,sans-Serif" font-size="10.00">quaternion::inv</text>
</a>
</g>
</g>
<!-- Node1&#45;&gt;Node3 -->
<g id="edge2" class="edge"><title>Node1&#45;&gt;Node3</title>
<path fill="none" stroke="midnightblue" d="M52.4165,-114.598C66.4321,-122.626 87.2403,-134.151 106,-143 110.05,-144.91 114.346,-146.812 118.631,-148.632"/>
<polygon fill="midnightblue" stroke="midnightblue" points="117.315,-151.875 127.893,-152.461 119.989,-145.406 117.315,-151.875"/>
</g>
<!-- Node4 -->
<g id="node4" class="node"><title>Node4</title>
<g id="a_node4"><a xlink:href="Voxel_8cuh.html#afeed91d5a5a0b48801aca2d5edeaf3e1" target="_top" xlink:title="Calculates index used as key to index into device vector. ">
<polygon fill="white" stroke="black" points="134,-114.5 134,-133.5 174,-133.5 174,-114.5 134,-114.5"/>
<text text-anchor="middle" x="154" y="-121.5" font-family="Helvetica,sans-Serif" font-size="10.00">index</text>
</a>
</g>
</g>
<!-- Node1&#45;&gt;Node4 -->
<g id="edge4" class="edge"><title>Node1&#45;&gt;Node4</title>
<path fill="none" stroke="midnightblue" d="M70.1558,-110.547C87.1973,-113.314 107.593,-116.626 123.884,-119.272"/>
<polygon fill="midnightblue" stroke="midnightblue" points="123.487,-122.753 133.919,-120.901 124.609,-115.844 123.487,-122.753"/>
</g>
<!-- Node5 -->
<g id="node5" class="node"><title>Node5</title>
<g id="a_node5"><a xlink:href="Voxel_8cuh.html#abbd51b1d8c2bc9b7d5ef5413e1e4ca49" target="_top" xlink:title="Calculates co&#45;ordinate of point modulo edge length. ">
<polygon fill="white" stroke="black" points="271.5,-104.5 271.5,-123.5 317.5,-123.5 317.5,-104.5 271.5,-104.5"/>
<text text-anchor="middle" x="294.5" y="-111.5" font-family="Helvetica,sans-Serif" font-size="10.00">mod_p</text>
</a>
</g>
</g>
<!-- Node1&#45;&gt;Node5 -->
<g id="edge6" class="edge"><title>Node1&#45;&gt;Node5</title>
<path fill="none" stroke="midnightblue" d="M70.0417,-104.026C103.614,-103.295 156.376,-102.762 202,-105 221.672,-105.965 243.638,-108.091 261.116,-110.034"/>
<polygon fill="midnightblue" stroke="midnightblue" points="261.024,-113.546 271.358,-111.208 261.821,-106.592 261.024,-113.546"/>
</g>
<!-- Node6 -->
<g id="node6" class="node"><title>Node6</title>
<g id="a_node6"><a xlink:href="Voxel_8cuh.html#a8af940c50e32ce0514198b2bf835b80c" target="_top" xlink:title="Binary search for key in sorted array. ">
<polygon fill="white" stroke="black" points="115.5,-38.5 115.5,-57.5 192.5,-57.5 192.5,-38.5 115.5,-38.5"/>
<text text-anchor="middle" x="154" y="-45.5" font-family="Helvetica,sans-Serif" font-size="10.00">binary_search</text>
</a>
</g>
</g>
<!-- Node1&#45;&gt;Node6 -->
<g id="edge7" class="edge"><title>Node1&#45;&gt;Node6</title>
<path fill="none" stroke="midnightblue" d="M55.5832,-95.4595C74.3123,-86.335 102.781,-72.4656 124.114,-62.0726"/>
<polygon fill="midnightblue" stroke="midnightblue" points="125.896,-65.0979 133.353,-57.5716 122.83,-58.8049 125.896,-65.0979"/>
</g>
<!-- Node7 -->
<g id="node7" class="node"><title>Node7</title>
<g id="a_node7"><a xlink:href="classvoxel.html#a1748472909af5ef1f28d0a0c6648dbbd" target="_top" xlink:title="Update method for self. ">
<polygon fill="white" stroke="black" points="106,-0.5 106,-19.5 202,-19.5 202,-0.5 106,-0.5"/>
<text text-anchor="middle" x="154" y="-7.5" font-family="Helvetica,sans-Serif" font-size="10.00">voxel::update_self</text>
</a>
</g>
</g>
<!-- Node1&#45;&gt;Node7 -->
<g id="edge8" class="edge"><title>Node1&#45;&gt;Node7</title>
<path fill="none" stroke="midnightblue" d="M42.6849,-95.319C54.0429,-79.5027 78.5631,-47.9857 106,-29 108.678,-27.147 111.563,-25.4327 114.541,-23.8558"/>
<polygon fill="midnightblue" stroke="midnightblue" points="116.102,-26.989 123.632,-19.5356 113.098,-20.6665 116.102,-26.989"/>
</g>
<!-- Node3&#45;&gt;Node2 -->
<g id="edge3" class="edge"><title>Node3&#45;&gt;Node2</title>
<path fill="none" stroke="midnightblue" d="M194.318,-164.555C204.772,-165.234 216.352,-165.987 227.802,-166.731"/>
<polygon fill="midnightblue" stroke="midnightblue" points="227.594,-170.225 237.8,-167.38 228.048,-163.239 227.594,-170.225"/>
</g>
<!-- Node4&#45;&gt;Node5 -->
<g id="edge5" class="edge"><title>Node4&#45;&gt;Node5</title>
<path fill="none" stroke="midnightblue" d="M174.258,-122.61C196.699,-120.989 234.138,-118.286 261.083,-116.341"/>
<polygon fill="midnightblue" stroke="midnightblue" points="261.478,-119.821 271.2,-115.61 260.973,-112.839 261.478,-119.821"/>
</g>
</g>
</svg>
