<?xml version="1.0" encoding="UTF-8" standalone="no"?>
<!DOCTYPE svg PUBLIC "-//W3C//DTD SVG 1.1//EN"
 "http://www.w3.org/Graphics/SVG/1.1/DTD/svg11.dtd">
<!-- Generated by graphviz version 2.38.0 (20140413.2041)
 -->
<!-- Title: mod_p Pages: 1 -->
<svg width="454pt" height="123pt"
 viewBox="0.00 0.00 454.00 123.13" xmlns="http://www.w3.org/2000/svg" xmlns:xlink="http://www.w3.org/1999/xlink">
<g id="graph0" class="graph" transform="scale(1 1) rotate(0) translate(4 119.127)">
<title>mod_p</title>
<polygon fill="white" stroke="none" points="-4,4 -4,-119.127 450,-119.127 450,4 -4,4"/>
<!-- Node1 -->
<g id="node1" class="node"><title>Node1</title>
<polygon fill="#bfbfbf" stroke="black" points="0,-57.5 0,-76.5 46,-76.5 46,-57.5 0,-57.5"/>
<text text-anchor="middle" x="23" y="-64.5" font-family="Helvetica,sans-Serif" font-size="10.00">mod_p</text>
</g>
<!-- Node2 -->
<g id="node2" class="node"><title>Node2</title>
<g id="a_node2"><a xlink:href="Voxel_8cuh.html#afeed91d5a5a0b48801aca2d5edeaf3e1" target="_top" xlink:title="Calculates index used as key to index into device vector. ">
<polygon fill="white" stroke="black" points="103.5,-76.5 103.5,-95.5 143.5,-95.5 143.5,-76.5 103.5,-76.5"/>
<text text-anchor="middle" x="123.5" y="-83.5" font-family="Helvetica,sans-Serif" font-size="10.00">index</text>
</a>
</g>
</g>
<!-- Node1&#45;&gt;Node2 -->
<g id="edge1" class="edge"><title>Node1&#45;&gt;Node2</title>
<path fill="none" stroke="midnightblue" d="M56.5668,-73.2819C72.0237,-76.2634 89.9666,-79.7245 103.229,-82.2827"/>
<polygon fill="midnightblue" stroke="midnightblue" points="56.8331,-69.7688 46.3512,-71.3114 55.5072,-76.6421 56.8331,-69.7688"/>
</g>
<!-- Node3 -->
<g id="node3" class="node"><title>Node3</title>
<g id="a_node3"><a xlink:href="Voxel_8cuh.html#a935fc0c42796b23607cf6f81a1e95e8d" target="_top" xlink:title="Updates point in the global map. ">
<polygon fill="white" stroke="black" points="223.5,-95.5 223.5,-114.5 293.5,-114.5 293.5,-95.5 223.5,-95.5"/>
<text text-anchor="middle" x="258.5" y="-102.5" font-family="Helvetica,sans-Serif" font-size="10.00">Update_root</text>
</a>
</g>
</g>
<!-- Node1&#45;&gt;Node3 -->
<g id="edge5" class="edge"><title>Node1&#45;&gt;Node3</title>
<path fill="none" stroke="midnightblue" d="M42.3713,-83.0404C53.1311,-91.3526 67.4365,-100.654 82,-105 129.444,-119.158 187.37,-115.342 223.355,-110.666"/>
<polygon fill="midnightblue" stroke="midnightblue" points="44.5339,-80.2879 34.5651,-76.6999 40.1206,-85.7214 44.5339,-80.2879"/>
</g>
<!-- Node4 -->
<g id="node4" class="node"><title>Node4</title>
<g id="a_node4"><a xlink:href="classocc__grid.html#aaf38d339d7d1b3226d9673f8d6102b2c" target="_top" xlink:title="Updates point in the global map. ">
<polygon fill="white" stroke="black" points="201,-48.5 201,-67.5 316,-67.5 316,-48.5 201,-48.5"/>
<text text-anchor="middle" x="258.5" y="-55.5" font-family="Helvetica,sans-Serif" font-size="10.00">occ_grid::update_point</text>
</a>
</g>
</g>
<!-- Node1&#45;&gt;Node4 -->
<g id="edge6" class="edge"><title>Node1&#45;&gt;Node4</title>
<path fill="none" stroke="midnightblue" d="M56.6874,-65.7401C94.0039,-64.3018 155.711,-61.9233 200.89,-60.182"/>
<polygon fill="midnightblue" stroke="midnightblue" points="56.2467,-62.2544 46.389,-66.137 56.5164,-69.2492 56.2467,-62.2544"/>
</g>
<!-- Node6 -->
<g id="node6" class="node"><title>Node6</title>
<g id="a_node6"><a xlink:href="classocc__grid.html#a0fb045d82217675decfc9b9289ad35ea" target="_top" xlink:title="Calculates index used as key to index into root. ">
<polygon fill="white" stroke="black" points="82,-0.5 82,-19.5 165,-19.5 165,-0.5 82,-0.5"/>
<text text-anchor="middle" x="123.5" y="-7.5" font-family="Helvetica,sans-Serif" font-size="10.00">occ_grid::index</text>
</a>
</g>
</g>
<!-- Node1&#45;&gt;Node6 -->
<g id="edge7" class="edge"><title>Node1&#45;&gt;Node6</title>
<path fill="none" stroke="midnightblue" d="M49.4644,-52.2642C67.2964,-41.9452 90.6031,-28.4581 106.038,-19.5265"/>
<polygon fill="midnightblue" stroke="midnightblue" points="47.6114,-49.2927 40.7092,-57.3307 51.1175,-55.3514 47.6114,-49.2927"/>
</g>
<!-- Node2&#45;&gt;Node3 -->
<g id="edge2" class="edge"><title>Node2&#45;&gt;Node3</title>
<path fill="none" stroke="midnightblue" d="M153.581,-90.1544C174.115,-93.0878 201.705,-97.0293 223.296,-100.114"/>
<polygon fill="midnightblue" stroke="midnightblue" points="153.95,-86.6717 143.556,-88.7222 152.96,-93.6014 153.95,-86.6717"/>
</g>
<!-- Node2&#45;&gt;Node4 -->
<g id="edge3" class="edge"><title>Node2&#45;&gt;Node4</title>
<path fill="none" stroke="midnightblue" d="M153.556,-79.883C170.755,-76.262 192.913,-71.5972 212.349,-67.5055"/>
<polygon fill="midnightblue" stroke="midnightblue" points="152.62,-76.5032 143.556,-81.9883 154.062,-83.353 152.62,-76.5032"/>
</g>
<!-- Node5 -->
<g id="node5" class="node"><title>Node5</title>
<g id="a_node5"><a xlink:href="classCPU__FE.html#aae7cb60a405b294a680a929ecff5c2ae" target="_top" xlink:title="Updates the measurement data in the global map. ">
<polygon fill="white" stroke="black" points="352,-48.5 352,-67.5 446,-67.5 446,-48.5 352,-48.5"/>
<text text-anchor="middle" x="399" y="-55.5" font-family="Helvetica,sans-Serif" font-size="10.00">CPU_FE::Update</text>
</a>
</g>
</g>
<!-- Node4&#45;&gt;Node5 -->
<g id="edge4" class="edge"><title>Node4&#45;&gt;Node5</title>
<path fill="none" stroke="midnightblue" d="M326.279,-58C334.884,-58 343.54,-58 351.715,-58"/>
<polygon fill="midnightblue" stroke="midnightblue" points="326.233,-54.5001 316.233,-58 326.233,-61.5001 326.233,-54.5001"/>
</g>
</g>
</svg>
