<?xml version="1.0" encoding="UTF-8" standalone="no"?>
<!DOCTYPE svg PUBLIC "-//W3C//DTD SVG 1.1//EN"
 "http://www.w3.org/Graphics/SVG/1.1/DTD/svg11.dtd">
<!-- Generated by graphviz version 2.38.0 (20140413.2041)
 -->
<!-- Title: index Pages: 1 -->
<svg width="329pt" height="66pt"
 viewBox="0.00 0.00 329.00 66.00" xmlns="http://www.w3.org/2000/svg" xmlns:xlink="http://www.w3.org/1999/xlink">
<g id="graph0" class="graph" transform="scale(1 1) rotate(0) translate(4 62)">
<title>index</title>
<polygon fill="white" stroke="none" points="-4,4 -4,-62 325,-62 325,4 -4,4"/>
<!-- Node1 -->
<g id="node1" class="node"><title>Node1</title>
<polygon fill="#bfbfbf" stroke="black" points="0,-19.5 0,-38.5 40,-38.5 40,-19.5 0,-19.5"/>
<text text-anchor="middle" x="20" y="-26.5" font-family="Helvetica,sans-Serif" font-size="10.00">index</text>
</g>
<!-- Node2 -->
<g id="node2" class="node"><title>Node2</title>
<g id="a_node2"><a xlink:href="Voxel_8cuh.html#a935fc0c42796b23607cf6f81a1e95e8d" target="_top" xlink:title="Updates point in the global map. ">
<polygon fill="white" stroke="black" points="98.5,-38.5 98.5,-57.5 168.5,-57.5 168.5,-38.5 98.5,-38.5"/>
<text text-anchor="middle" x="133.5" y="-45.5" font-family="Helvetica,sans-Serif" font-size="10.00">Update_root</text>
</a>
</g>
</g>
<!-- Node1&#45;&gt;Node2 -->
<g id="edge1" class="edge"><title>Node1&#45;&gt;Node2</title>
<path fill="none" stroke="midnightblue" d="M50.2418,-33.9829C64.9721,-36.493 82.9205,-39.5515 98.2886,-42.1703"/>
<polygon fill="midnightblue" stroke="midnightblue" points="50.6134,-30.4959 40.1675,-32.2662 49.4375,-37.3964 50.6134,-30.4959"/>
</g>
<!-- Node3 -->
<g id="node3" class="node"><title>Node3</title>
<g id="a_node3"><a xlink:href="classocc__grid.html#aaf38d339d7d1b3226d9673f8d6102b2c" target="_top" xlink:title="Updates point in the global map. ">
<polygon fill="white" stroke="black" points="76,-0.5 76,-19.5 191,-19.5 191,-0.5 76,-0.5"/>
<text text-anchor="middle" x="133.5" y="-7.5" font-family="Helvetica,sans-Serif" font-size="10.00">occ_grid::update_point</text>
</a>
</g>
</g>
<!-- Node1&#45;&gt;Node3 -->
<g id="edge2" class="edge"><title>Node1&#45;&gt;Node3</title>
<path fill="none" stroke="midnightblue" d="M50.2351,-24.0182C58.3885,-22.6289 67.5283,-21.0714 76.6709,-19.5135"/>
<polygon fill="midnightblue" stroke="midnightblue" points="49.4375,-20.6036 40.1675,-25.7338 50.6134,-27.5041 49.4375,-20.6036"/>
</g>
<!-- Node4 -->
<g id="node4" class="node"><title>Node4</title>
<g id="a_node4"><a xlink:href="classCPU__FE.html#aae7cb60a405b294a680a929ecff5c2ae" target="_top" xlink:title="Updates the measurement data in the global map. ">
<polygon fill="white" stroke="black" points="227,-0.5 227,-19.5 321,-19.5 321,-0.5 227,-0.5"/>
<text text-anchor="middle" x="274" y="-7.5" font-family="Helvetica,sans-Serif" font-size="10.00">CPU_FE::Update</text>
</a>
</g>
</g>
<!-- Node3&#45;&gt;Node4 -->
<g id="edge3" class="edge"><title>Node3&#45;&gt;Node4</title>
<path fill="none" stroke="midnightblue" d="M201.279,-10C209.884,-10 218.54,-10 226.715,-10"/>
<polygon fill="midnightblue" stroke="midnightblue" points="201.233,-6.5001 191.233,-10 201.233,-13.5001 201.233,-6.5001"/>
</g>
</g>
</svg>
